<?xml version="1.0" standalone="no"?>
<!DOCTYPE svg PUBLIC "-//W3C//DTD SVG 1.1//EN" "http://www.w3.org/Graphics/SVG/1.1/DTD/svg11.dtd" >
<svg>
<metadata>
Created by FontForge 20090622 at Thu Oct 13 10:49:25 2016
 By ffonts
Copyright \(c\) 2016 by Artimasa. All rights reserved.
</metadata>
<defs>
<font id="Playlist-Caps" horiz-adv-x="407" >
  <font-face 
    font-family="Playlist"
    font-weight="500"
    font-variant="small-caps"
    font-stretch="semi-expanded"
    units-per-em="1000"
    panose-1="0 0 0 0 0 0 0 0 0 0"
    ascent="800"
    descent="-200"
    x-height="772"
    cap-height="819"
    bbox="-23.1674 -95.9414 650.304 842.525"
    underline-thickness="50"
    underline-position="-50"
    unicode-range="U+0020-U+007A"
  />
<missing-glyph horiz-adv-x="220" 
 />
    <glyph glyph-name=".notdef" horiz-adv-x="220" 
 />
    <glyph glyph-name="space" unicode=" " horiz-adv-x="220" 
 />
    <glyph glyph-name="a" unicode="a" horiz-adv-x="359" 
d="M343 16v-3c-26 -20 -60 -33 -83 -16c-9 6 -18 45 -18 69c1 29 -5 55 -12 82c-24 -13 -48 -18 -72 -30c-39 -19 -21 8 -29 -37c-5 -31 3 -62 -14 -85c-24 -32 -59 -22 -79 3c-26 31 -20 76 -18 114c7 115 43 229 67 342c18 89 36 178 63 264c12 37 18 61 60 72
c35 9 74 1 85 -36c2 -7 -14 -56 -15 -64c-1 -23 3 -47 5 -70c3 -50 1 -101 4 -151c4 -72 -1 -106 9 -177c6 -41 18 -110 20 -152c3 -43 25 -85 27 -125zM149 222c91 0 79 48 76 125c-2 70 8 157 -17 223c-22 -15 -27 -129 -33 -157c-12 -63 -22 -127 -26 -191zM122 308
c1 2 4 5 0 7c-2 1 -9 1 -12 0v1c1 2 2 4 2 5c0 2 -1 4 -2 6s-3 4 -5 5c0 1 -4 0 -4 -1c-2 -4 -2 -7 -1 -10c0 -2 -1 -4 -1 -5c0 -2 2 -3 3 -4c-6 -4 -7 -8 -9 -11c-2 -2 -3 -5 -3 -8s4 -5 7 -8v-1c-3 -5 -7 -10 -8 -15c-1 -3 0 -6 0 -8c0 -3 -1 -6 0 -9c0 0 0 -1 1 -1h-4
c-2 -2 1 -5 1 -7l-2 -6c-1 -1 -3 -5 2 -7h-3c-3 -3 0 -7 -1 -10c-1 -4 -7 -7 -9 -11c-1 -2 3 -5 4 -7c0 -1 0 -1 1 -1l-1 -1c-3 -6 -14 -11 -9 -18c1 -1 7 -2 8 -1c4 2 3 5 6 8l4 4l-3 -9c-2 -5 -2 -10 -8 -13c-5 -3 -6 -7 -4 -11l3 -7v-1c-1 1 -2 3 -2 4c0 0 -4 1 -5 1
c-2 -2 0 -5 3 -7c3 -3 4 -5 3 -8c-2 1 -4 1 -5 0c-2 0 -1 -2 0 -2c1 -2 3 -5 1 -6c0 -1 1 -1 1 -1c-1 -2 -2 -4 -4 -6h-3c-3 -2 -2 -4 -4 -6c-1 -2 -1 -5 -1 -7s0 -3 -2 -4c-1 0 -2 -1 -2 -1c0 -2 4 -3 6 -4v-1c0 -3 2 -5 3 -8h1c0 2 -2 5 -2 7c1 -1 4 -1 5 -1c2 1 3 1 1 3
c-4 3 2 3 2 5c0 3 0 6 1 8c0 2 4 4 1 7h-1l2 1c3 3 5 6 7 9c1 3 5 7 2 10c0 1 -1 2 -2 2c1 0 1 0 1 1s2 2 2 4c1 2 2 4 1 6c0 2 -1 4 0 6c0 2 3 4 5 6c3 3 3 7 4 11c2 5 3 10 2 15c0 1 -5 1 -7 1c1 1 1 1 0 1c1 2 1 5 1 7c0 1 -3 4 -1 5l2 2c3 3 6 5 7 8c0 3 0 6 -3 9
c-1 0 -2 0 -4 1c-4 2 4 6 6 7c4 4 4 8 -2 12c-1 0 -2 1 -4 1l1 1l3 4c0 -2 1 -5 3 -6c1 -1 6 -1 7 0c2 2 3 4 4 7l3 9c2 5 4 10 2 15c-1 0 -1 1 -1 1v1h-1l-2 3c0 1 1 2 1 3c3 6 5 12 11 19zM110 236c1 1 1 2 0 3c-1 2 -1 4 -1 6c-1 1 -5 2 -5 1c-1 -1 -2 -3 -2 -4
c-1 -2 1 -5 -2 -6c-3 -3 -5 -5 2 -8c0 -1 4 -1 3 0c-3 2 -4 3 0 5c2 1 4 1 5 3zM65 85c1 2 0 5 -1 7c0 1 -4 2 -4 1c0 -2 1 -5 1 -7c1 0 4 -1 4 -1zM101 210h2v9c0 1 -1 1 -2 1c0 -3 -1 -6 0 -10zM99 332h2s0 1 -2 0z" />
    <glyph glyph-name="b" unicode="b" horiz-adv-x="378" 
d="M301 372c28 -41 42 -82 48 -131c10 -89 -6 -164 -78 -220c-69 -53 -144 -27 -222 -3c-1 0 -1 0 -1 1c-36 44 -16 71 -13 125c2 47 -2 94 -2 141c-1 104 4 208 4 312c-1 87 -28 191 72 218c80 22 190 5 230 -75c38 -76 35 -190 -8 -263c-11 -20 -49 -41 -52 -62
c-6 -33 3 -15 22 -43zM257 572c16 52 15 132 -25 173c-63 65 -97 -16 -100 -75c-4 -80 -5 -159 -5 -239c59 -17 118 98 130 141zM181 72c64 40 78 105 67 175c-4 26 -6 64 -29 79c-15 9 -75 6 -88 -9c-28 -32 -12 -126 -7 -166c0 -1 1 -1 1 -2c15 2 -29 -131 56 -77zM90 384
l-1 1c2 10 12 19 6 28c-1 1 -6 1 -7 0c-4 -4 -3 -9 -5 -13l-3 -6c0 5 0 9 1 13c1 7 0 14 5 21c4 5 4 10 2 15c-1 3 -2 7 -4 10c1 -1 2 -2 2 -3s5 -1 5 0c2 3 -1 6 -4 8c-4 3 -5 7 -5 10c2 0 4 1 6 1c2 2 0 3 -1 5s-4 5 -3 7c0 1 0 1 -1 1l3 10c1 0 2 0 3 1c3 3 2 6 3 9
c1 4 -1 7 -1 11c0 2 0 3 1 5c1 1 2 2 2 3c-1 2 -5 2 -7 4v1c0 3 -3 6 -4 10h-2c1 -3 4 -6 4 -9h-5c-2 -2 -2 -3 0 -5c4 -3 -1 -5 -1 -8c1 -4 1 -8 1 -11c0 -4 -3 -7 0 -10c0 -1 0 -1 1 -1c-1 0 -1 -1 -1 -1c-4 -5 -5 -10 -6 -15c0 -4 -3 -10 0 -14l3 -3h-1c1 -2 -1 -5 -2 -7
c0 -3 0 -6 1 -9s2 -5 2 -8s-3 -6 -4 -9c-3 -6 -2 -12 -3 -18c0 -6 -1 -14 1 -20c1 -1 4 -2 6 -2c0 0 0 -1 1 -1c0 -3 0 -6 1 -9c0 -2 4 -5 2 -7c-1 -2 -2 -3 -2 -4c-3 -4 -5 -8 -5 -12c0 -3 0 -8 4 -11c1 -1 3 -1 4 -1c4 -3 -3 -9 -5 -12c-3 -5 -3 -12 4 -16c2 -1 8 -2 9 0
c2 3 -1 7 -1 10c-1 3 0 5 0 8c1 3 2 8 -3 10c2 0 3 1 3 1c3 5 -1 10 -1 15c1 5 6 11 7 17c1 3 -3 6 -5 10zM90 240c1 4 2 8 2 12c-1 4 -4 7 -8 11v1c2 8 6 15 6 23c0 4 0 8 -1 12s0 8 -2 12h-3c-1 -3 -2 -5 -2 -8c-1 3 -1 6 -4 9c0 1 -6 1 -7 0c-2 -4 -2 -8 -2 -11l-3 -13
c-1 -8 -2 -15 1 -22c1 -2 3 -4 5 -6l-2 -4c-2 -9 -3 -18 -8 -27c-2 -2 -4 -6 -1 -8s9 -2 13 -1c0 0 0 -1 -1 -2c-1 -2 -2 -4 -2 -6c0 -5 3 -11 5 -15c0 -1 5 -1 5 0c2 4 3 9 2 14c0 2 1 5 1 7c1 2 -1 4 -3 6c6 5 7 11 9 16zM64 330c-1 -1 0 -3 1 -5l2 -8c0 -1 5 -1 5 0
c1 2 1 4 1 6c1 3 -1 6 1 9c3 5 5 7 -3 11c-1 0 -4 0 -3 -1c3 -2 4 -4 1 -7c-2 -1 -4 -3 -5 -5zM79 552c0 -3 1 -6 2 -9c1 -1 5 -1 5 0c0 3 -2 6 -3 9c0 1 -4 1 -4 0zM69 367c0 1 -2 1 -2 0c1 -4 1 -8 1 -13h2c0 5 0 9 -1 13zM82 194c0 0 1 1 0 1h-2c1 0 1 -1 2 -1z" />
    <glyph glyph-name="c" unicode="c" horiz-adv-x="422" 
d="M391 287c11 -54 -41 -138 -47 -194c-6 -59 -12 -64 -65 -88c-55 -24 -117 -46 -173 -7c-80 55 -45 206 -55 291c-16 125 -16 295 23 416c42 129 185 165 287 79c0 0 1 -1 2 -1c2 -63 58 -309 -40 -303c-81 5 -61 61 -58 113c2 37 8 154 -48 148c-88 -9 -51 -238 -56 -298
c-4 -64 -12 -116 -3 -180c7 -56 -11 -125 30 -170c89 -96 102 143 113 187c6 24 5 39 28 46c26 9 57 -17 62 -39zM109 250c1 5 2 11 -1 16c0 1 -4 1 -7 0v1c1 0 2 0 0 1c1 2 1 4 0 6c0 2 -4 5 -2 6c1 1 2 2 2 3c3 3 5 6 5 9c1 2 0 6 -4 8c0 1 -2 1 -4 1c-4 2 4 7 5 9
c4 4 4 9 -3 12c-1 1 -8 1 -9 0c-2 -3 1 -5 1 -7s0 -5 -1 -7c0 -2 -2 -5 3 -7c-1 0 -2 0 -3 -1c-2 -3 2 -7 1 -11s-6 -8 -7 -13c-1 -2 3 -5 5 -7v-1c-2 -7 -12 -14 -6 -21c1 -1 7 -1 8 0c3 3 2 6 4 10l4 4c-1 -3 -1 -7 -1 -10c-1 -5 -1 -10 -6 -15c-4 -4 -4 -8 -2 -12
c2 -2 3 -5 4 -7l1 -1c-2 1 -3 2 -3 3s-5 1 -5 0c-2 -2 1 -4 4 -6c4 -2 5 -5 5 -8c-2 0 -4 0 -5 -1c-3 -1 -1 -2 0 -3c2 -1 4 -4 3 -6h1l-3 -8h-2c-3 -3 -2 -5 -3 -7c-1 -3 0 -6 1 -8c0 -2 0 -3 -1 -4s-2 -2 -2 -3c1 -1 5 -2 7 -2v-1c0 -3 3 -5 5 -8c0 0 1 0 1 1l-4 6h5
c2 2 2 3 0 4c-4 2 1 4 1 6c-1 3 -2 6 -1 8c0 3 3 6 -1 8l1 1c3 4 4 8 5 11c1 4 4 8 0 12c-1 0 -1 1 -2 1v1c0 1 2 3 2 5s1 4 -1 6c-1 2 -1 4 -1 6c0 3 2 5 4 8c2 4 2 8 2 12zM121 385c2 1 4 4 1 6c-3 1 -9 1 -13 0c0 1 0 1 1 2l2 5c0 3 -3 8 -5 11c0 1 -5 1 -5 0
c-2 -3 -3 -7 -2 -11c0 -1 -1 -3 -2 -5c0 -2 2 -3 3 -5c-5 -3 -6 -8 -8 -11s-3 -6 -2 -9c0 -3 4 -6 7 -8v-1c-2 -6 -6 -12 -7 -17c0 -3 1 -6 1 -9c1 -3 0 -6 2 -9c0 -1 3 -1 3 0l3 5c0 -2 1 -4 3 -6c1 -1 6 -1 7 0c2 3 2 5 3 8c0 3 1 7 2 10c2 5 3 11 0 16l-4 5c0 1 0 2 1 3
c2 6 3 13 9 20zM117 309c1 1 0 2 -1 4l-2 6c0 1 -5 1 -5 0l-2 -5c0 -2 2 -4 0 -6c-3 -4 -5 -6 3 -9c0 0 3 0 3 1c-3 2 -4 3 -1 5c2 1 4 2 5 4zM102 143c0 2 -1 4 -2 6c-1 1 -5 1 -5 0c0 -2 2 -5 3 -7c1 0 4 0 4 1zM111 281h2c0 3 -1 7 -1 10h-2c0 -3 0 -7 1 -10z" />
    <glyph glyph-name="d" unicode="d" horiz-adv-x="400" 
d="M207 769c225 10 190 -228 159 -377c-19 -90 -35 -172 -82 -252c-22 -40 -49 -79 -74 -117c2 4 -52 -77 -60 -41c-112 -20 -99 50 -102 135c-4 98 -9 195 -10 293c-2 107 -2 213 2 320c1 35 -8 58 48 57c17 0 26 -10 41 -14c35 -9 43 -6 78 -4zM299 626
c11 67 -50 70 -95 63c-66 -10 -60 -23 -61 -87c-1 -110 6 -217 6 -325c0 -27 -13 -113 15 -116c18 -2 73 139 77 152c30 97 50 212 58 313zM103 461c-1 0 -1 0 -1 1c2 9 11 17 6 25c-1 1 -7 1 -8 0c-4 -4 -2 -8 -4 -12c-1 -2 -3 -3 -4 -4c1 3 1 7 1 11c1 6 1 12 5 18
c5 5 5 9 2 14l-3 8c0 -1 1 -2 1 -3s5 -1 6 0c1 3 -2 5 -5 8c-3 2 -4 5 -4 8c2 0 4 1 5 2c2 1 1 2 0 3c-2 2 -4 5 -3 7c0 0 0 1 -1 1l3 8c1 0 2 1 2 1c3 2 2 6 3 8c2 3 0 6 0 9c0 2 0 3 2 5c1 1 1 1 1 2c0 2 -4 3 -6 4v1c0 3 -3 6 -4 8c0 1 -2 1 -2 1l4 -8h-5
c-2 -1 -3 -3 0 -4c3 -3 -2 -5 -2 -7c1 -3 1 -7 1 -10c-1 -3 -4 -6 0 -9c0 -1 0 -1 -1 -1c-3 -4 -4 -9 -5 -13s-4 -10 -1 -13c1 -1 2 -2 3 -2c0 -1 -1 -1 -1 -1c1 -2 -1 -4 -1 -6c-1 -2 -1 -5 0 -8c1 -2 2 -4 2 -7s-3 -5 -4 -8c-3 -5 -2 -11 -2 -15c-1 -7 -2 -13 1 -19
c0 -1 5 -1 7 0v-1c-1 0 -1 0 0 -1v-8c0 -2 4 -5 2 -6v-1c0 -1 -1 -2 -2 -3c-2 -3 -4 -7 -4 -10c0 -4 0 -8 4 -10c1 -1 2 -1 4 -1c4 -2 -3 -8 -5 -11c-3 -5 -3 -10 4 -14c1 -1 8 -1 9 0c2 3 -1 6 -2 9c0 2 1 5 1 7c1 3 2 7 -3 9c1 0 3 1 3 1c2 4 -2 9 -1 13c1 5 6 10 7 15
c0 3 -4 6 -5 9zM103 333c1 4 2 7 2 11c-1 4 -4 6 -8 10v1c2 7 6 13 6 20c0 4 0 7 -1 11c-1 3 0 7 -2 10c0 1 -3 1 -3 0c-1 -2 -2 -4 -2 -6c-1 2 -2 5 -4 7c-1 1 -6 1 -7 0c-2 -3 -2 -7 -2 -10l-3 -12c-1 -6 -2 -12 1 -18c1 -2 3 -4 5 -6l-2 -4c-2 -8 -3 -15 -8 -23
c-2 -2 -4 -5 -1 -7c2 -2 9 -2 13 -1c-1 0 -1 -1 -1 -2c-1 -2 -2 -3 -2 -5c-1 -4 2 -9 4 -14c1 0 5 -1 5 0c2 4 4 9 3 13c0 2 1 4 1 6s-1 4 -3 6c6 4 7 10 9 13zM77 413c-1 -1 -1 -3 0 -4c2 -3 2 -5 3 -8h5c1 2 1 4 1 6c1 3 -2 5 0 8c3 4 5 6 -2 10c-1 0 -4 0 -3 -1
c2 -2 4 -4 1 -6c-2 -2 -4 -3 -5 -5zM94 609c-1 -3 1 -5 2 -8c0 -1 5 -1 4 0c0 2 -1 5 -2 8c0 0 -3 1 -4 0zM82 446c-1 1 -3 0 -3 0c1 -4 2 -8 2 -11c0 -1 2 -1 2 0c0 4 0 7 -1 11zM94 293c0 1 -1 1 -1 1h-1c1 0 1 -1 2 -1zM97 522c-1 0 -1 1 -1 1c0 -1 0 -1 1 -1z" />
    <glyph glyph-name="e" unicode="e" horiz-adv-x="319" 
d="M291 782c67 -103 -120 -21 -144 -79c-17 -42 -17 -241 15 -258c21 -11 134 27 129 -36c-4 -49 -84 -26 -112 -35c-81 -27 -33 -209 -37 -281c20 3 159 33 132 -38c-5 -13 -138 -49 -160 -51c-136 -14 -76 201 -74 277c5 141 -7 284 -5 424c0 51 -4 86 58 97
c66 13 136 6 198 -20zM93 326c0 7 1 14 -2 21c0 1 -4 1 -6 1c1 0 1 1 0 1c0 3 0 6 -1 10c0 2 -4 5 -2 7c1 1 2 3 2 4c3 4 5 7 5 12c0 3 0 8 -4 11c-1 1 -3 1 -4 1c-4 3 3 9 5 12c3 5 3 12 -4 16c-2 1 -8 1 -9 0c-2 -3 1 -7 1 -10c1 -3 0 -5 0 -8c-1 -3 -2 -8 3 -10
c-2 0 -3 -1 -3 -1c-3 -5 1 -10 1 -15c-1 -6 -6 -11 -7 -17c-1 -3 3 -7 5 -10l1 -1h-1c-1 -10 -11 -19 -5 -28c1 -2 6 -1 7 0c4 4 3 8 5 13l3 6c0 -5 0 -9 -1 -14c-1 -6 0 -13 -5 -20c-4 -5 -4 -10 -2 -16c2 -3 3 -6 4 -9l1 -1c-2 1 -3 2 -3 4c0 1 -5 1 -5 0c-2 -3 1 -6 5 -9
c3 -2 4 -6 4 -9c-2 -1 -4 -1 -5 -2c-2 -1 -1 -3 0 -4c2 -2 4 -5 3 -8h1c-1 -4 -2 -7 -2 -10c-2 0 -3 -1 -3 -1c-3 -3 -2 -7 -3 -10s1 -7 1 -10c0 -2 0 -3 -1 -5c-1 -1 -2 -2 -2 -3c1 -2 5 -3 7 -4v-1c0 -4 3 -7 5 -10h1l-4 9c1 -1 4 -1 5 0c2 2 2 3 0 5c-4 2 1 5 1 8
c-1 3 -2 7 -1 11c0 3 3 7 0 10h-1c0 1 1 1 1 2c3 4 4 10 5 15c1 4 4 10 0 14c0 1 -1 2 -2 3c0 2 2 4 2 7s0 6 -1 9c-1 2 -1 5 -1 8c-1 3 2 6 3 9c3 6 2 12 3 17zM102 505c2 3 4 6 1 9c-2 1 -9 1 -13 0c1 1 1 2 1 2c1 3 2 5 2 7c1 5 -2 10 -4 15c-1 1 -5 1 -5 0
c-2 -4 -4 -9 -3 -14c0 -2 -1 -5 -1 -7s1 -5 3 -6c-6 -5 -7 -12 -9 -16s-2 -8 -2 -12s4 -7 8 -11l-1 -1c-2 -8 -6 -15 -6 -23c0 -4 1 -8 1 -12c1 -4 0 -8 2 -12h3c1 3 2 5 2 8c1 -3 2 -6 4 -9c1 -1 6 -1 7 0c2 4 2 7 2 11l3 13c1 7 2 15 -1 22c0 2 -2 4 -4 6c0 1 1 3 1 4
c3 9 4 17 9 26zM99 404c1 2 0 4 -1 5l-2 9c0 1 -5 1 -5 0c-1 -2 -1 -4 -1 -7c-1 -3 1 -5 -1 -8c-3 -5 -5 -7 3 -11c1 -1 4 0 3 0c-3 3 -4 5 -1 7zM85 183c1 3 0 6 -2 9c0 1 -5 1 -5 0l4 -9c0 -1 3 -1 3 0zM94 367c0 0 2 0 2 1c-1 4 -1 8 -1 12c0 1 -2 1 -2 0
c0 -4 0 -8 1 -13zM85 540h-2l1 -1s1 0 1 1z" />
    <glyph glyph-name="f" unicode="f" horiz-adv-x="319" 
d="M226 433c29 2 101 0 75 -51c-20 -39 -113 -24 -140 -45c-30 -23 -16 -114 -15 -151c2 -33 27 -143 12 -177c1 0 0 -2 -4 -6c-48 0 -97 -15 -116 46c-12 40 5 103 5 147c-2 119 0 237 -5 356c-2 50 -2 106 -10 155c-7 47 -10 65 39 89c40 19 74 -2 119 1
c37 3 103 10 122 -35c20 -44 -25 -72 -64 -65c-23 3 -30 17 -57 17c-53 1 -49 -19 -46 -64c2 -41 8 -81 8 -123c0 -16 -10 -80 1 -92c19 -20 48 -3 76 -2zM96 475c0 5 0 11 -2 16h-7c1 0 1 1 0 1c0 2 0 5 -1 7c0 1 -4 4 -2 5l2 3c2 3 5 6 5 9s-1 7 -5 9h-4c-4 2 3 7 5 9
c3 5 2 9 -5 12c-1 1 -8 1 -9 -1s2 -4 2 -7v-6c-1 -2 -2 -6 3 -7c-2 0 -3 -1 -3 -1c-2 -4 2 -8 1 -11c0 -4 -5 -9 -6 -13c0 -3 3 -5 5 -7l1 -1c-2 -8 -11 -15 -5 -22c1 0 6 0 7 1c4 3 2 6 4 10l3 3v-9c-1 -5 0 -10 -5 -15c-4 -4 -4 -8 -1 -12c0 -2 1 -3 2 -4c0 0 -5 0 -6 -1
c-2 -2 2 -4 5 -6s4 -5 5 -7c-2 0 -5 -1 -6 -1c-2 -1 0 -2 1 -3c1 -2 4 -4 3 -6l1 -1l-3 -7c-1 0 -2 0 -2 -1c-3 -2 -2 -5 -3 -7s0 -5 1 -8c0 -1 0 -2 -2 -4c-1 0 -1 -1 -1 -2c1 -1 5 -2 7 -3v-1c0 -2 3 -4 5 -7h1c-1 3 -3 5 -4 7h5c2 1 2 3 0 4c-4 2 1 4 1 6c-1 3 -2 5 -1 8
c0 3 3 5 -1 8l1 1c3 3 4 7 5 11c0 3 3 8 0 11l-3 2h1c-1 2 1 3 1 5c1 3 1 5 0 7s-2 4 -2 6s2 5 3 7c3 4 2 9 3 13zM98 610c2 2 4 5 0 7c-2 1 -8 0 -12 -1v2c1 1 2 3 2 5c0 3 -3 7 -6 10c0 1 -4 1 -5 0c-1 -4 -2 -8 -1 -11c0 -2 -1 -4 -1 -5c0 -2 2 -3 3 -5
c-5 -4 -6 -9 -7 -12c-2 -3 -2 -6 -2 -9c1 -3 5 -5 9 -8v-1c-2 -5 -6 -11 -6 -17c0 -3 1 -6 2 -9s0 -6 2 -9c0 0 3 0 3 1c1 1 2 3 2 5c1 -2 2 -4 4 -6c1 -1 7 0 7 1c2 2 2 5 2 8l2 10c1 5 2 11 -1 16c-1 2 -3 3 -5 4c0 1 1 3 1 4c2 6 2 13 7 20zM100 534c1 1 0 3 -1 4
c-2 2 -1 4 -3 6c0 1 -4 0 -4 0c-1 -2 -2 -4 -2 -5c0 -3 2 -4 0 -7c-3 -4 -4 -5 3 -8c1 0 4 0 3 1c-3 1 -4 3 -1 5zM89 367c1 3 0 5 -2 7c0 1 -5 1 -5 0l4 -7h3zM96 506h2l-2 10h-1c0 -4 0 -7 1 -10zM76 635v-1h2s0 1 -2 1zM82 441c-1 1 -2 1 -1 3c0 -1 0 -2 1 -3zM83 440
c-1 0 -1 0 -1 1c1 0 1 0 1 -1z" />
    <glyph glyph-name="g" unicode="g" horiz-adv-x="503" 
d="M503 456c7 -43 -51 -19 -68 -35c-31 -30 -9 -141 -6 -180c5 -72 31 -133 44 -202c21 -109 -75 1 -104 13c-29 11 -36 -13 -62 -36c-32 -29 -55 -34 -99 -36c-59 -1 -92 6 -127 50c-40 49 -51 112 -57 175c-14 141 1 308 49 442c20 54 43 117 101 130c22 5 44 7 67 4
c15 -2 30 -4 44 -11c13 -5 25 -10 37 -17c-1 -6 -2 -13 -4 -20c19 -35 82 -134 15 -150c-84 -21 -58 165 -135 76c-43 -49 -44 -150 -48 -212c-5 -77 -8 -153 -7 -229c0 -45 13 -176 85 -151c63 22 44 132 100 156l-9 121c0 -1 -1 58 -4 61c-13 10 -27 -6 -39 -3
c-27 7 -42 -10 -62 23c-15 26 -12 33 9 50c46 36 145 29 198 20c23 -4 78 -6 82 -39zM108 500c1 1 2 1 2 3c0 1 -4 3 -6 5c0 0 0 1 1 1c0 3 -2 7 -3 10c0 1 -1 1 -1 1c0 -3 2 -7 2 -10c-1 1 -4 2 -5 1c-3 -1 -3 -2 -1 -4c3 -3 -3 -5 -3 -8s-1 -7 -2 -10s-5 -6 -2 -10
c0 -1 -1 -1 -1 -1c-4 -4 -7 -9 -9 -13s-6 -9 -4 -14l2 -2s-1 0 -1 -1c0 -2 -2 -3 -3 -5c-1 -3 -2 -6 -2 -9c1 -3 1 -6 0 -8c0 -3 -3 -6 -6 -8c-3 -5 -4 -11 -5 -16c-2 -7 -4 -14 -2 -21c1 -1 4 -2 6 -2c0 0 0 -1 1 -1v-8c0 -2 4 -6 2 -7v-1c0 -1 -1 -2 -2 -3
c-1 -2 -2 -4 -2 -6c-1 -2 -1 -4 -1 -6c0 -4 1 -8 6 -11h4c4 -2 -2 -9 -3 -12c-2 -6 -1 -12 7 -15c0 -1 2 -1 4 0c-1 0 -1 -1 -1 -1c0 -3 -1 -5 -1 -8c-1 3 -2 6 -5 8c-1 1 -7 -1 -7 -2c-1 -4 0 -7 0 -11v-23c1 -3 1 -6 3 -9c1 -2 3 -4 5 -5c-1 -2 -1 -3 -1 -4
c-2 -8 -4 -16 -10 -22c-1 -1 -3 -2 -3 -3c-1 -1 -1 -3 1 -4c2 -2 8 -3 12 -3c-1 -1 -1 -1 -1 -2l-4 -5c-2 -3 -1 -9 -1 -14c0 0 3 -3 4 -2l3 2l2 3c2 2 3 4 3 6l3 7c1 2 0 4 -1 7c6 3 8 9 11 14l2 6v6c0 5 -4 8 -8 11v1l3 12c0 2 1 4 1 6v4c0 1 -1 1 -1 2c0 4 -2 8 -3 11
c-1 4 -1 8 -4 12h-2c2 0 4 1 5 2c0 4 -3 6 -4 9s-1 6 -1 8c0 3 1 8 -4 9c1 0 2 1 2 2c2 4 -3 8 -2 13c0 2 1 5 2 8c1 1 2 2 2 3c1 2 1 3 1 4c1 1 0 2 0 3v1c-1 0 -1 0 -1 1c-1 1 -3 3 -3 4c-1 0 -1 1 -1 1c1 5 5 9 7 12c3 4 4 8 2 13c-1 1 -6 2 -7 1c-5 -3 -4 -8 -7 -11
c-1 -2 -2 -4 -4 -5l3 12c2 6 3 13 9 18c5 4 6 8 5 14c0 3 -1 6 -1 9c0 0 0 1 -1 1c2 -1 2 -2 2 -4c0 -1 4 -2 5 -1c3 2 0 6 -2 9c-3 4 -3 7 -2 11c2 -1 4 -1 5 -1c3 1 1 3 1 4c-1 3 -2 6 -1 9h-1c2 3 4 6 5 9h3c3 2 3 6 5 8c2 3 1 7 2 10c1 2 0 4 3 5zM57 323
c-1 -2 0 -4 1 -5c2 -2 2 -5 4 -8c1 0 5 0 5 1v7c0 3 -3 5 -1 8c2 5 3 8 -5 10c-1 1 -4 0 -3 -1c3 -1 5 -3 2 -6c-1 -2 -3 -4 -3 -6zM103 536c-2 -3 -1 -6 0 -10c0 0 4 -2 4 -1c1 3 0 7 -1 10c0 1 -3 1 -3 1zM54 360l2 -6l1 -7s2 0 2 1l-2 13c-1 0 -3 0 -3 -1zM72 197l-1 1
h-1c1 0 1 -1 2 -1z" />
    <glyph glyph-name="h" unicode="h" horiz-adv-x="415" 
d="M373 387c0 -64 5 -128 5 -193c0 -37 8 -77 5 -113c-2 -29 -12 -52 -8 -83c-105 -86 -87 153 -87 208c0 31 15 178 -10 195c-16 11 -72 -18 -85 -24c-35 -17 -35 -9 -41 -53c-10 -68 -11 -143 2 -210c6 -32 24 -65 -22 -79c-16 -5 -51 7 -65 17c-38 28 -27 107 -29 154
c-3 70 2 141 3 211c1 60 -1 120 -3 179c-1 30 0 61 -1 91c-2 22 -16 53 -12 73c8 40 68 58 100 35c42 -29 18 -132 22 -178c3 -30 -4 -162 25 -168c12 -3 84 27 95 36c27 23 21 54 21 88c2 67 7 135 3 203c-2 31 -25 32 15 55c24 14 56 9 69 -14c23 -38 3 -162 3 -206
c0 -74 -5 -149 -5 -224zM99 496c-1 0 -1 1 -1 1v1c2 9 11 18 5 27c0 1 -6 1 -7 0c-4 -4 -3 -9 -5 -13c0 -2 -2 -4 -3 -6c0 5 0 9 1 13c1 7 0 14 5 20c4 6 4 11 2 16c-2 3 -3 6 -4 9c0 0 -1 1 -1 2c2 -2 3 -3 3 -5c0 -1 5 -1 5 0c2 3 -1 6 -5 9c-3 2 -4 6 -4 9c2 0 4 1 5 2
c2 1 1 2 0 4c-2 2 -4 5 -3 7c0 1 -1 1 -1 1c0 3 2 7 2 10c2 0 3 0 3 1c3 2 2 6 3 9s0 7 -1 10c0 2 0 3 2 5c1 1 1 2 1 3c0 2 -4 3 -7 4c0 0 1 1 0 1c0 4 -3 7 -4 10h-1c0 -3 3 -6 3 -9c-1 1 -4 1 -4 0c-3 -2 -3 -3 -1 -5c4 -2 -1 -5 -1 -8c1 -3 2 -7 1 -11c0 -3 -3 -7 1 -10
l-1 -1c-3 -5 -4 -10 -5 -15c-1 -4 -4 -10 0 -14c0 -1 1 -2 2 -3c0 -2 -2 -4 -2 -7c-1 -3 -1 -6 1 -9c1 -2 1 -5 1 -7c1 -4 -2 -7 -3 -10c-3 -5 -2 -11 -3 -17c0 -6 -1 -14 2 -20c0 -1 5 -1 7 -1c-1 0 -1 -1 0 -1v-9c1 -2 4 -6 2 -8c0 -1 -1 -2 -2 -3c-2 -4 -4 -8 -4 -12
s0 -9 4 -11c1 -1 2 -1 4 -1c4 -3 -3 -9 -4 -12c-4 -5 -3 -12 3 -16c2 -1 9 -1 10 0c1 4 -2 7 -2 10v8c1 3 2 8 -3 10c2 0 3 0 3 1c3 5 -1 10 -1 14c1 6 6 12 7 17c0 4 -4 7 -5 10zM100 354c1 4 2 8 2 12c-1 4 -5 7 -8 11v1c2 7 6 15 6 22c0 4 -1 8 -2 12c0 4 1 8 -1 12
c-1 1 -3 1 -3 0c-2 -2 -2 -5 -3 -7c0 3 -1 5 -3 8c-1 1 -7 1 -8 0l-2 -11c0 -4 -1 -9 -2 -13c-1 -7 -2 -14 1 -21c1 -2 2 -4 4 -6c0 -2 0 -3 -1 -4c-2 -9 -3 -18 -8 -26c-2 -3 -4 -6 -1 -9c3 -2 9 -1 13 0c0 -1 0 -2 -1 -2c-1 -2 -2 -5 -2 -7c0 -4 3 -10 5 -15c0 0 5 -1 5 0
c2 5 3 10 2 15c0 2 1 4 1 7c1 2 -1 4 -3 6c6 4 7 11 9 15zM73 443c-1 -2 0 -3 1 -5c2 -3 1 -5 2 -8c1 -1 5 -1 5 0l2 6c0 3 -2 6 0 9c3 5 5 7 -3 11c-1 0 -4 0 -3 -1c3 -2 4 -4 1 -7c-2 -2 -4 -3 -5 -5zM86 662c0 -3 1 -6 2 -9c1 -1 5 -1 5 0c0 3 -2 6 -3 9c0 1 -3 1 -3 0
h-1zM78 480h-3c1 -5 2 -9 2 -13h2c0 4 0 8 -1 13zM92 309c1 0 1 1 0 1h-2c1 0 1 -1 2 -1z" />
    <glyph glyph-name="i" unicode="i" horiz-adv-x="206" 
d="M154 589c-4 -76 -5 -152 -3 -228c2 -124 9 -254 -6 -371c-1 -10 -39 2 -39 -3c-85 5 -60 90 -57 153c3 88 -3 174 1 261c4 85 0 171 3 257c3 92 -29 174 92 161c-5 -1 -11 -2 -16 -4c56 -50 28 -158 25 -226zM125 660c1 1 2 2 2 3s-4 2 -7 3v1c0 2 -2 5 -4 7h-1
c0 -2 3 -4 3 -7c-1 1 -4 1 -4 0c-3 -1 -3 -2 -1 -3c4 -2 -1 -4 -1 -6c1 -3 1 -6 0 -9c0 -2 -3 -5 0 -7c0 0 1 0 1 -1h-1c-4 -4 -5 -8 -6 -11s-4 -8 -1 -11c1 -1 2 -1 2 -2c0 -2 -2 -4 -2 -5c-1 -3 -1 -5 0 -7s1 -4 1 -6c0 -3 -2 -5 -4 -7c-3 -4 -3 -9 -3 -13
c-1 -5 -2 -10 0 -15c0 -1 4 -2 6 -2h1c-1 -3 -1 -5 0 -7c0 -2 3 -4 1 -6c0 -1 -1 -2 -2 -3c-2 -3 -5 -5 -5 -8s0 -7 4 -9c0 -1 2 -1 3 -1c4 -2 -3 -7 -5 -9c-3 -4 -3 -8 3 -12c2 -1 8 -1 9 0c2 2 -1 5 -1 7s0 4 1 6c1 3 2 6 -2 8c1 0 2 0 3 1c2 3 -2 7 -1 11s7 8 8 12
c1 2 -3 5 -5 8v1c2 7 12 13 7 21c-1 1 -7 0 -8 0c-4 -3 -2 -7 -5 -10l-3 -4c0 3 0 7 1 10c1 5 1 10 7 15c4 4 4 7 2 12c-1 1 -2 2 -2 3c1 0 5 0 6 1c2 2 -1 5 -4 7c-4 2 -4 5 -5 7c2 0 5 1 6 1c2 1 0 2 0 3c-2 2 -4 4 -3 6c0 0 0 1 -1 1l3 7c1 0 2 0 3 1c3 2 2 4 3 6
c1 3 0 6 0 8s-1 3 1 4zM111 452c2 3 3 6 3 9c-1 3 -4 6 -8 9c3 6 7 12 7 17c0 3 0 6 -1 9c0 3 1 6 -1 9c0 1 -3 1 -3 0l-3 -5c0 2 -1 4 -3 7h-7c-2 -3 -2 -6 -3 -8l-3 -10c-1 -6 -2 -11 0 -16c1 -2 3 -4 5 -5l-2 -3c-2 -7 -3 -13 -9 -20c-2 -2 -4 -5 -1 -7c3 -1 9 -1 13 0
c0 -1 -1 -1 -1 -2c-1 -1 -2 -3 -2 -4c-1 -4 2 -8 4 -12c1 0 5 -1 6 0c1 4 3 7 2 11c0 2 1 4 1 5c1 2 -1 3 -3 5c6 3 7 8 9 11zM89 521c-1 -1 -1 -3 0 -4c2 -2 1 -4 2 -6c1 -1 5 -1 5 -1c1 2 2 4 2 5c0 3 -2 5 0 7c4 3 6 5 -2 8h-3c3 -2 4 -4 1 -6zM113 686c-1 -2 1 -4 2 -7
h5l-3 7c-1 1 -4 1 -4 0zM96 548c-1 1 -3 1 -3 0c1 -3 1 -6 1 -9h2v9zM114 613c2 -1 3 -3 2 -4c-1 1 -1 2 -1 3c0 0 -1 0 -1 1zM102 418c1 0 1 1 1 1h-3c1 0 1 -1 2 -1z" />
    <glyph glyph-name="j" unicode="j" horiz-adv-x="400" 
d="M296 794c67 9 67 -51 63 -95c-6 -77 -2 -153 -2 -230c0 -75 -13 -150 -16 -226c-2 -63 4 -130 -6 -193c-18 -121 -170 -85 -235 -26c-88 79 -44 186 -89 282v4c-3 51 76 75 111 50c28 -20 21 -20 18 -45c-12 -12 -19 -26 -22 -43c1 -14 2 -27 4 -41
c-1 -38 0 -114 21 -148c12 -19 48 -32 69 -21c22 12 12 31 16 53c22 110 31 235 30 348c-1 71 -2 141 2 213c4 46 -21 111 36 118zM326 460v1c2 7 11 14 5 21c-1 1 -6 0 -7 0c-4 -4 -3 -7 -5 -10c0 -2 -2 -3 -3 -5c0 4 0 7 1 10c1 5 0 11 5 16c4 4 4 8 2 12c-2 2 -3 4 -4 6
c-1 1 -1 1 -1 2c1 -1 3 -3 3 -4c-1 -1 4 0 5 0c2 3 -2 5 -5 7s-4 4 -5 7c2 0 5 1 6 1c2 1 0 2 -1 3c-1 2 -4 4 -3 6l-1 1c1 2 2 5 2 7c2 0 3 1 3 1c3 2 2 5 2 7c1 3 0 5 0 8c0 2 -1 2 1 4c1 1 1 2 1 2c0 2 -4 2 -7 3v1c0 2 -3 5 -5 7h-1c1 -2 3 -4 4 -7c-1 1 -4 0 -5 0
c-2 -2 -2 -3 0 -4c4 -1 -1 -4 0 -6c0 -3 1 -5 1 -8s-3 -6 0 -8h1l-1 -1c-3 -4 -4 -8 -5 -11c0 -4 -3 -8 0 -11l3 -2h-1c1 -2 -1 -4 -1 -5c-1 -3 -1 -5 1 -7c1 -2 1 -4 1 -6c0 -3 -2 -5 -3 -7c-3 -5 -2 -9 -3 -13c0 -5 -1 -11 2 -16c0 -1 4 0 7 0c-1 -1 -2 -1 0 -1v-7
c0 -2 4 -4 2 -6c-1 -1 -1 -2 -2 -2c-2 -3 -5 -6 -5 -9s0 -7 5 -9c0 0 2 -1 3 -1c5 -2 -3 -7 -4 -9c-4 -4 -4 -8 3 -12c2 0 9 -1 9 1c2 2 -1 5 -1 7s0 4 1 6c0 2 2 6 -3 8c1 0 2 0 3 1c2 3 -2 7 -1 10c0 5 5 9 6 13c1 3 -3 5 -5 8zM325 352c2 3 2 6 2 9s-4 5 -8 8l1 1
c2 5 6 11 6 17c0 3 -1 6 -1 9c-1 3 0 6 -2 9h-3c-1 -2 -2 -4 -2 -5c0 2 -1 4 -3 6c-1 0 -7 0 -8 -1c-2 -2 -2 -5 -2 -8l-3 -10c-1 -5 -2 -10 1 -16c0 -1 2 -3 4 -4c0 -1 -1 -2 -1 -3c-3 -7 -4 -13 -9 -20c-2 -2 -4 -5 -1 -6c2 -2 8 -3 12 -2c-1 -2 -2 -4 -2 -5
c-1 -4 2 -8 4 -12h5c2 4 4 8 3 11c0 2 1 4 1 6c0 1 -1 3 -3 4c6 4 7 8 9 12zM300 419c-1 -1 0 -2 1 -3c2 -2 1 -5 2 -7h5c1 2 1 4 2 5c0 3 -2 4 0 7c3 3 5 5 -3 8c0 0 -4 0 -3 -1c3 -1 4 -3 1 -5c-2 -1 -4 -2 -5 -4zM311 586c-1 -3 1 -5 2 -7c1 -1 5 0 5 0c0 3 -2 5 -3 7
c-1 1 -4 0 -4 0zM305 447h-2l2 -10h1c0 4 0 7 -1 10z" />
    <glyph glyph-name="k" unicode="k" horiz-adv-x="477" 
d="M419 70c11 -15 18 -37 35 -47c-1 -1 -1 -2 -2 -2c-65 -91 -126 28 -154 78c-13 22 -132 218 -141 215c-23 -7 -13 -101 -14 -116c-2 -50 31 -126 19 -171c-12 -41 -71 -48 -102 -16c-26 27 -13 91 -14 128c-3 113 7 227 5 341c-1 92 -25 213 -3 301c11 41 28 43 70 30
c56 -16 49 -36 43 -87c-6 -46 -1 -92 -4 -138c-3 -51 -21 -105 -1 -156c51 27 79 122 107 169c20 33 44 63 64 95c14 23 13 54 26 73c26 40 118 48 119 -10c0 -44 -82 -133 -105 -170c-28 -43 -57 -82 -82 -127c-41 -74 -44 -78 -11 -153c26 -60 65 -115 94 -172
c15 -29 34 -42 51 -65zM97 429c1 8 1 16 -1 24c0 1 -5 2 -7 1c1 1 1 2 0 2v11c0 2 -4 6 -1 8l-1 1l3 3c2 5 5 9 5 14c0 4 0 10 -4 13c-1 1 -2 2 -4 2c-4 3 4 10 6 13c3 6 3 14 -3 19c-2 1 -8 2 -9 0c-2 -3 1 -7 1 -11c0 -3 -1 -6 -1 -10c-1 -3 -3 -8 2 -11c-1 0 -3 -1 -3 -2
c-2 -5 1 -11 0 -16c-1 -7 -6 -13 -7 -20c-1 -4 3 -8 5 -11v-2c-2 -11 -12 -22 -6 -33c1 -1 6 -1 7 0c4 5 3 10 5 15l3 7c0 -5 0 -10 -1 -15c-1 -8 -1 -16 -5 -24c-4 -6 -5 -12 -2 -18c0 -3 1 -5 2 -7c-1 1 -5 1 -5 0c-2 -4 1 -8 4 -11c4 -3 5 -7 5 -11c-2 0 -4 -1 -5 -2
c-2 -1 0 -3 0 -4c2 -3 5 -7 4 -10h1c-1 -4 -2 -8 -2 -12c-2 0 -3 -1 -3 -1c-3 -3 -1 -8 -2 -11c-1 -4 0 -8 1 -12c0 -3 1 -4 -1 -7c-1 -1 -1 -2 -1 -3c1 -2 5 -3 7 -4v-2c1 -4 4 -7 6 -11h1c-1 4 -4 7 -5 10c2 0 4 0 5 1c2 2 2 4 0 5c-4 3 1 7 0 10c-1 4 -2 9 -2 13
c1 4 3 8 0 12h-1l1 1c3 6 4 12 4 18c1 5 4 12 0 17c-1 1 -1 2 -2 2v1c0 3 2 5 2 8s0 7 -1 10s-2 6 -2 9c0 4 3 8 4 11c3 7 2 14 3 20zM114 635c2 3 4 7 1 10c-2 2 -9 2 -12 1v3l3 7c0 6 -2 12 -4 18c-1 1 -5 1 -5 0c-3 -5 -4 -11 -3 -16c0 -3 -1 -6 -2 -9c0 -2 1 -4 3 -7
c-6 -5 -8 -12 -10 -17c-1 -5 -2 -9 -2 -14s4 -8 7 -13v-1c-3 -9 -7 -17 -8 -26c0 -5 0 -10 1 -14c0 -5 -1 -9 1 -14c0 -1 3 -1 3 0l3 8c0 -3 1 -7 3 -10c0 -1 6 -1 7 0c2 4 2 8 3 12l3 15c2 8 3 17 1 25c-1 3 -3 5 -5 7c1 2 1 4 2 5c3 10 4 20 10 30zM106 519c1 2 1 4 0 6
c-2 3 -1 6 -2 10c-1 1 -5 1 -5 0c-1 -3 -2 -5 -2 -8c-1 -3 1 -6 -1 -10c-3 -5 -5 -8 2 -12c1 -1 4 -1 3 0c-2 3 -3 5 0 8c2 2 4 4 5 6zM95 263c0 3 -1 7 -3 10c0 1 -5 1 -5 -1l5 -10s3 0 3 1zM99 476h3l-2 15c0 1 -1 1 -1 0c0 -5 -1 -10 0 -15zM81 382c0 -1 1 -3 2 -4v-2
c-1 2 -2 4 -2 6zM96 677c-1 0 -1 0 0 -1h2c-1 0 -1 1 -2 1z" />
    <glyph glyph-name="l" unicode="l" horiz-adv-x="389" 
d="M355 34c37 -49 -18 -51 -54 -52c-56 0 -110 -18 -164 -17c-117 3 -79 92 -79 177c0 108 -3 217 -4 325c0 97 13 209 -19 302c0 1 1 2 1 3c18 36 86 32 108 3c22 -30 9 -88 11 -122c7 -91 10 -184 12 -275c3 -87 0 -173 7 -261c4 -50 -5 -54 45 -58c34 -2 112 7 136 -25z
M128 278v1c1 7 11 14 5 20c-1 1 -7 0 -8 -1c-3 -3 -2 -6 -4 -9l-3 -4c0 3 0 6 1 9c0 5 0 10 4 15c4 4 4 7 2 11c-2 2 -3 4 -4 6l-1 1c1 0 3 -1 3 -3c-1 0 4 0 5 1c1 2 -2 4 -5 6c-4 1 -5 4 -5 6c2 0 4 1 5 2c2 1 1 2 0 2c-2 2 -4 4 -4 6h-1c1 2 2 5 2 7c2 1 2 1 3 1
c3 3 1 5 2 7c1 3 -1 6 -1 8c-1 2 -1 3 0 5c1 1 1 2 1 2c-1 2 -5 2 -7 2v1c-1 3 -4 4 -7 6h-1c1 -2 4 -4 6 -6c-2 0 -4 0 -5 -1c-2 -2 -2 -3 0 -4c5 -1 0 -4 1 -6s2 -5 2 -7c-1 -3 -3 -6 0 -8h1l-1 -1c-3 -4 -4 -7 -4 -11c-1 -3 -3 -8 0 -10l3 -2h-1c1 -1 -1 -3 -1 -5
c-1 -2 -1 -4 1 -6c1 -2 2 -4 2 -6s-3 -4 -4 -6c-2 -5 -2 -9 -2 -13s-1 -9 2 -14c0 -1 3 -1 6 -1c0 -2 1 -5 1 -7c0 -1 4 -3 2 -5l-2 -3c-2 -2 -4 -5 -5 -8c0 -3 1 -6 5 -8c0 0 2 -1 4 -1c4 -1 -4 -6 -5 -8c-3 -4 -3 -8 3 -11c2 -1 9 -1 10 0c1 2 -2 5 -2 7s0 4 1 6
c0 2 2 5 -3 7c1 0 2 0 3 1c2 3 -2 6 -1 10c0 4 5 8 6 12c1 2 -3 5 -5 7zM127 176c1 3 2 6 2 9s-4 5 -8 7l1 1c2 6 6 11 6 16c0 3 0 6 -1 9c0 3 0 6 -1 8c-1 1 -3 1 -4 0l-2 -5c0 2 -1 4 -3 6c-1 1 -7 1 -8 0l-2 -8l-3 -9c-1 -5 -2 -10 1 -15c0 -2 2 -3 4 -4
c0 -1 -1 -2 -1 -3c-3 -6 -4 -12 -10 -18c-1 -2 -4 -5 -1 -6c3 -2 9 -2 13 -1c0 -1 0 -1 -1 -2s-2 -2 -2 -4c-1 -3 2 -7 4 -11h5c2 3 4 7 3 10c0 2 1 4 2 5c0 2 -2 3 -3 5c6 3 7 7 9 10zM103 240c-1 -2 -1 -3 0 -4c2 -2 1 -4 2 -6h5c1 2 2 3 2 5s-2 4 0 6c3 3 5 5 -3 8
c0 0 -3 0 -3 -1c3 -1 4 -3 1 -5c-2 -1 -4 -2 -4 -3zM104 397c0 -2 0 -2 1 -3l3 -3c1 0 5 1 5 2l-3 3l-3 2c-1 0 -3 -1 -3 -1zM107 266c0 0 -2 0 -2 -1l2 -8c0 -1 1 -1 1 0c0 3 0 6 -1 9z" />
    <glyph glyph-name="m" unicode="m" horiz-adv-x="587" 
d="M520 778c37 -16 27 -44 26 -76c-3 -93 -3 -186 -6 -279c-4 -97 -15 -201 -8 -297c3 -42 31 -192 -69 -121c-41 30 -20 148 -19 198c1 48 4 96 5 144c1 42 16 112 5 155c4 -18 -12 -4 -4 3c-39 -24 -59 -110 -73 -150c-8 -22 -22 -44 -28 -66c-6 -19 -2 -55 -15 -71
c-35 -44 -101 -2 -118 44c-3 9 -3 48 -4 55c-5 36 -13 73 -20 109c-2 10 -11 74 -19 80c-26 18 -14 -13 -18 -27c-14 -51 -1 -116 -5 -170c-5 -69 -9 -138 -12 -207c-2 -42 19 -114 -38 -121c-116 -14 -59 247 -56 312c6 121 32 281 -1 400c-14 50 -40 72 32 83
c51 8 93 -22 108 -73c4 -13 -5 -32 -2 -50c4 -31 28 -67 39 -96c24 -61 24 -154 62 -205c30 22 39 64 52 98c14 39 33 72 51 109c15 35 33 75 41 113c6 28 -2 56 12 80c16 26 53 38 82 26zM116 274c1 1 1 2 0 3c0 2 0 3 -1 4s-7 1 -8 0c-2 -2 -2 -4 -3 -6c0 -2 -1 -4 -2 -6
s-2 -4 -4 -6l2 13c0 2 1 3 1 5v2c0 1 1 2 1 3c0 2 1 3 1 5l3 5c2 3 3 5 3 8s0 5 -2 8l-4 8c-1 1 -1 1 -1 2c2 -1 3 -3 3 -4s5 -1 5 0c2 3 -2 6 -5 8c-4 3 -5 6 -6 9c2 0 5 1 6 2c2 1 0 3 -1 4c-2 2 -4 5 -4 7h-1c1 4 2 7 2 10c1 0 2 1 3 1c2 3 1 6 2 9s-1 6 -1 9
c0 2 0 3 1 5c1 1 2 2 2 3c-1 1 -5 2 -7 3v1c0 3 -2 6 -4 9h-1c0 -3 3 -5 3 -8h-5c-2 -1 -2 -3 0 -4c2 -2 2 -3 1 -4s-2 -3 -2 -4c1 -3 2 -7 1 -10c0 -3 -2 -7 1 -10h1l-1 -1c-3 -5 -4 -10 -4 -15c-1 -4 -3 -10 1 -14l3 -2h-1c1 -3 -1 -5 -1 -7c0 -3 0 -6 1 -9
c1 -2 2 -5 2 -7c0 -3 -2 -6 -3 -9c-2 -3 -2 -6 -3 -8v-9c-1 -6 -3 -12 -1 -19c0 -1 5 -2 7 -1v-1c-1 0 -1 -1 0 -1c-1 -3 -1 -6 -1 -9c0 -2 3 -5 1 -7l-2 -3c-3 -4 -6 -7 -6 -11v-6c1 -2 2 -4 4 -6h4c4 -3 -3 -9 -5 -12c-3 -5 -2 -11 4 -15c2 -1 9 -1 10 1c1 3 -2 6 -2 9
c-1 2 0 5 0 8c1 2 2 7 -3 9c1 0 3 0 3 1c1 2 1 4 0 6v4l-1 1c0 1 0 1 1 2c1 5 6 10 8 15c1 3 -2 7 -4 10v1c1 5 5 9 7 14c1 2 2 4 2 7zM107 117c2 3 2 7 2 11c-1 4 -5 7 -9 10l1 1c1 8 5 15 5 22l-2 12c-1 4 0 7 -2 11c-1 1 -3 1 -3 0l-3 -7c0 3 -1 5 -3 8c-1 1 -7 0 -8 -1
c-1 -3 -1 -7 -1 -10c-1 -4 -2 -9 -2 -13c-1 -7 -2 -14 1 -21c1 -2 3 -3 5 -5c0 -2 0 -3 -1 -4c-1 -9 -2 -17 -7 -26c-1 -3 -4 -6 0 -8c2 -2 9 -1 13 0c-1 -1 -1 -1 -1 -2l-2 -6c0 -5 4 -10 6 -14c0 -1 5 -1 5 0c2 4 3 9 2 14c-1 2 0 4 0 7c0 1 -2 3 -3 5c5 5 6 11 7 16z
M78 202c-1 -2 0 -3 1 -5l2 -8c1 -1 5 -1 5 0c1 2 1 5 1 7c1 3 -2 5 0 8c4 5 5 7 -2 11c-1 0 -4 0 -3 -1c2 -2 4 -4 1 -7c-2 -2 -4 -3 -5 -5zM96 413c-1 -2 -1 -6 0 -9c1 0 5 -1 5 0v2c0 1 0 1 -1 2c0 2 -1 3 -1 5c0 0 -3 1 -3 0zM84 239h-2v-13h2c0 4 1 9 0 13z" />
    <glyph glyph-name="n" unicode="n" horiz-adv-x="488" 
d="M427 168c0 -38 33 -112 13 -145c-21 -35 -83 -40 -109 -11c-24 26 -44 94 -55 129c-45 137 -112 293 -131 442c6 -92 9 -186 8 -279c-1 -62 10 -120 14 -181c2 -20 6 -52 -1 -69c-2 -4 -48 -57 -52 -59c-66 -38 -75 60 -75 99c0 18 12 36 13 55c1 26 -8 54 -10 81
c-6 116 11 238 12 355c1 49 -28 268 79 230c50 -18 53 -91 62 -131c15 -66 29 -133 50 -198c12 -38 30 -73 41 -110c13 -44 14 -116 54 -142c12 102 12 205 13 309c1 44 4 88 3 133c0 26 -19 103 -8 125c17 33 64 16 80 -7c19 -27 5 -96 4 -131c-2 -102 -1 -203 -4 -305
c-3 -63 -1 -126 -1 -190zM107 313c1 3 1 8 -3 11c-1 1 -2 1 -4 1c-4 3 4 9 5 11c2 3 3 6 2 8c0 3 -2 6 -5 8c-2 1 -9 1 -10 -1c-1 -3 2 -6 2 -9c0 -2 0 -5 -1 -8c0 -2 -2 -6 3 -9c-2 0 -3 0 -3 -1c-3 -4 1 -9 0 -13c-2 -5 -8 -10 -9 -15c-1 -3 2 -7 4 -11v-1l-3 -7l-1 -1v-1
l-1 -2l-2 -3l-2 -8c0 -2 1 -5 2 -7c1 -1 7 0 8 1c2 2 2 4 3 6c0 2 0 4 1 7l4 5c-1 -4 -1 -9 -1 -13c-1 -6 -1 -13 -5 -20c-4 -5 -4 -10 -1 -15c1 -3 2 -6 4 -9l1 -1c-2 1 -3 3 -3 4s-5 1 -5 0c-2 -3 1 -6 5 -8c3 -3 4 -6 5 -9l-6 -2c-2 -1 0 -3 1 -4c2 -2 4 -5 4 -7
c-1 -1 0 -1 1 -1l-3 -9c-1 -1 -2 -1 -2 -2c-3 -2 -2 -6 -2 -9c-1 -3 0 -6 1 -10c0 -2 1 -3 -1 -5c-1 -1 -2 -2 -1 -3c0 -1 4 -2 6 -3c0 0 0 -1 1 -1c0 -3 3 -6 5 -9h1l-4 8c1 0 4 0 4 1c3 1 3 3 0 4c-4 2 2 5 1 8s-2 7 -2 10c0 4 3 7 -1 10v1l1 1c3 4 3 10 4 14s3 11 0 14
c-1 1 -2 2 -3 2c0 1 1 1 1 1c-1 2 1 4 1 6c0 3 0 6 -1 9s-2 5 -2 8s2 6 3 9c3 5 2 11 2 16c1 4 1 7 1 10v5c0 1 -1 3 -1 5c0 1 -5 1 -7 1c1 0 1 1 0 1c1 3 1 6 1 9c0 2 -4 6 -1 7v1c0 1 1 2 2 3c3 3 6 7 6 11zM88 421c-1 -4 -2 -8 -1 -12c0 -4 4 -7 8 -10v-1
c-1 -8 -4 -15 -4 -22c0 -4 1 -8 2 -12c1 -3 0 -7 2 -11h3l3 8c0 -3 1 -6 3 -8c1 -1 7 -1 8 0c1 4 1 7 1 11l2 13c0 7 1 14 -3 20c-1 2 -2 4 -5 6c1 1 1 2 1 4c2 8 3 16 8 24c2 2 4 6 1 8c-3 1 -9 1 -13 1c0 0 1 1 1 2c1 1 2 3 2 5c1 2 1 5 0 7c-1 3 -2 5 -2 8
c-1 0 -5 1 -5 0c-2 -2 -3 -4 -4 -6c0 -2 -1 -5 -1 -7c1 -2 -1 -5 -1 -7c-1 -2 1 -4 3 -6c-6 -4 -7 -11 -9 -15zM119 335c1 1 0 3 -1 5l-2 8c-1 1 -5 1 -5 0l-2 -6c0 -3 2 -6 0 -9c-3 -4 -5 -6 2 -11c1 0 4 0 3 1c-3 2 -3 4 0 7c1 0 2 1 3 2c0 1 1 2 2 3zM105 123
c1 2 -1 5 -2 8c-1 1 -5 1 -5 0l4 -9s3 0 3 1zM110 299c0 -1 3 -1 3 -1c-1 5 0 9 0 13h-2c0 -4 -1 -8 -1 -12zM99 465c0 0 -1 -1 0 -1h1c1 -1 1 -1 1 0c-1 0 -1 0 -2 1z" />
    <glyph glyph-name="o" unicode="o" 
d="M369 622c2 -80 2 -163 -1 -242c-2 -71 -25 -444 -169 -361c-13 8 -17 22 -29 29c-14 8 -31 4 -44 12c-39 22 -59 69 -70 110c-21 78 -1 177 -29 251c24 11 18 84 20 103c4 52 9 100 26 149c11 34 23 77 50 103c35 36 84 27 131 25c49 -3 57 -10 79 -53
c20 -39 36 -82 36 -126zM258 373c3 68 -8 134 -8 201c0 59 -2 97 -22 154c-101 -44 -83 -177 -89 -271c-3 -52 -4 -101 1 -153c5 -47 44 -129 37 -167c46 -27 52 17 61 59c12 56 17 119 20 177zM332 370c1 7 2 14 0 21c-1 1 -5 2 -7 1c1 1 1 1 0 2v9c0 2 -4 5 -1 7v1
c0 1 1 2 2 3c2 4 5 8 5 12c0 3 0 8 -4 12c-1 0 -2 0 -4 1c-4 2 3 9 5 11c3 6 3 12 -3 17c-2 1 -9 1 -9 -1c-2 -3 1 -6 1 -9s0 -6 -1 -9c0 -2 -2 -7 3 -9c-2 -1 -3 -1 -3 -2c-3 -4 1 -9 0 -14c0 -6 -6 -11 -7 -17c-1 -3 3 -7 4 -10c1 0 1 -1 1 -1c-2 -10 -13 -18 -7 -28
c0 -1 6 -1 7 0c4 4 3 8 5 12l4 6l-2 -13c-1 -7 -1 -14 -7 -20c-4 -5 -5 -10 -3 -15c0 -3 1 -5 1 -7c-1 1 -4 2 -5 1c-2 -3 1 -6 4 -9s4 -7 3 -10c-2 0 -4 0 -5 -1c-2 -1 -1 -3 0 -4c1 -3 3 -6 2 -8c0 -1 0 -1 1 -1c-2 -3 -3 -6 -4 -9c-2 0 -3 0 -3 -1c-3 -2 -3 -5 -4 -8
c-2 -3 -2 -7 -2 -10c0 -2 0 -3 -2 -5c-1 -1 -2 -1 -2 -2c0 -2 4 -3 5 -5v-1c0 -2 0 -4 1 -5c0 -2 1 -4 1 -5s2 -1 2 -1c0 3 -2 6 -2 9c1 0 4 -1 5 -1c2 1 3 3 1 5c-3 3 3 4 3 7c0 4 0 8 1 11s4 7 1 10v1s1 0 1 1c4 4 6 9 7 14c2 4 5 10 2 14c0 1 -1 2 -2 3h1c-1 2 2 4 2 7
c1 3 1 6 0 9c0 3 -1 5 -1 8c1 3 3 6 5 9c3 5 3 12 4 17zM343 551c1 3 4 7 0 9c-2 2 -9 1 -13 0c1 0 1 1 1 2c1 2 2 4 2 7c0 4 -4 10 -6 15c-1 0 -5 0 -5 -1c-2 -5 -3 -10 -2 -14c1 -3 0 -5 0 -8c0 -2 2 -4 3 -6c-5 -5 -6 -11 -8 -16c-1 -4 -2 -8 -1 -11c0 -5 4 -8 8 -11v-1
c-3 -8 -6 -16 -6 -23c0 -4 0 -8 1 -12s0 -8 2 -12c0 -1 2 -1 3 0c0 1 1 3 2 5c0 -3 1 -5 3 -7c1 -1 7 0 8 1c2 3 2 7 2 10l3 14c1 7 1 15 -1 22c-1 2 -3 4 -5 6c0 1 1 3 1 4c2 9 3 18 8 27zM341 449c1 1 1 3 0 5c-2 3 -1 5 -2 8c-1 1 -5 1 -5 0l-2 -6c0 -3 2 -6 0 -9
c-3 -5 -5 -7 2 -11h3c-3 3 -4 5 -1 8c2 1 4 3 5 5zM300 231c2 2 2 6 2 9c0 1 -5 2 -5 1v-9c0 -1 3 -2 3 -1zM335 411h3l-2 13c0 1 -1 1 -1 0c0 -4 -1 -8 0 -13zM315 325c-2 2 -3 4 -2 5c0 -1 0 -2 1 -3c0 0 1 -1 1 -2zM323 585h-2l1 -1zM313 330h-1h1z" />
    <glyph glyph-name="q" unicode="q" horiz-adv-x="430" 
d="M328 166c0 -55 52 -101 61 -153c10 -55 -41 -44 -73 -13c-54 54 -28 40 -104 30c-34 -5 -94 3 -122 27c-57 48 -53 167 -57 236c-7 100 5 215 25 313c16 82 44 193 147 193c48 68 122 25 159 -34c54 -89 25 -222 14 -319c-10 -90 -50 -191 -50 -280zM292 471
c7 61 17 121 12 183c-4 52 -8 71 -65 56c-20 -6 -29 -3 -44 -21c-35 -43 -34 -140 -38 -193c-7 -102 -17 -217 6 -319c10 -44 43 -114 65 -33c11 38 -36 64 -31 89c6 24 45 38 64 27c38 39 26 159 31 211zM90 214c0 -1 1 -3 2 -4s2 -3 4 -4h1c-1 3 -4 5 -5 8c1 -1 4 0 4 1
c2 1 3 3 0 4c-4 2 1 5 0 7s-1 4 -2 5v5c0 3 2 7 -1 9l-1 1s1 0 1 1c3 4 3 9 4 14c1 3 3 9 0 13c-1 0 -2 1 -3 2h1c-1 2 1 4 1 6c1 3 0 6 -1 8c-1 3 -2 5 -2 7c0 3 3 6 4 9c3 5 2 10 3 15c1 6 1 13 -1 19c0 1 -5 1 -7 0v1c1 0 1 1 0 1v8c0 2 -4 5 -1 7c0 1 1 2 2 3
c2 4 5 7 5 10c0 4 0 8 -4 11c0 0 -2 1 -3 1c-4 3 3 8 5 10c4 5 4 10 -2 15c-2 1 -8 2 -9 0c-2 -2 1 -5 0 -8c0 -3 0 -5 -1 -8c-1 -2 -2 -7 3 -9c-2 0 -3 0 -4 -1c-2 -4 1 -9 1 -13c-1 -5 -7 -10 -8 -15c-1 -3 3 -6 5 -9v-2c-1 -4 -4 -8 -6 -12s-3 -9 0 -13c1 -1 6 -1 7 0
c4 4 3 8 5 12l3 5c0 -4 0 -8 -1 -12c0 -3 0 -6 -1 -9s-2 -6 -4 -9c-4 -5 -4 -10 -2 -15c2 -2 3 -5 4 -8l1 -1c-2 1 -3 2 -3 4c0 1 -5 1 -5 0c-2 -3 2 -6 5 -8s4 -6 5 -9c-2 0 -4 0 -6 -1s0 -3 1 -4c2 -2 4 -5 4 -7h1c-1 -3 -2 -7 -2 -10c-1 0 -2 0 -3 -1c-2 -3 -1 -6 -2 -9
c0 -3 1 -6 2 -9c0 -2 1 -3 -1 -5c-1 -1 -1 -2 -1 -3c1 -2 5 -2 7 -3zM120 479c2 2 5 5 2 8c-2 2 -9 2 -13 2c1 0 1 1 1 1l3 6c1 4 -2 9 -3 14c-1 1 -5 1 -5 0c-3 -4 -4 -8 -4 -12c0 -2 -1 -4 -2 -7c0 -1 1 -3 3 -5c-6 -4 -8 -10 -10 -13c-2 -4 -3 -7 -3 -11
c-1 -3 3 -7 6 -10v-1c-3 -7 -7 -13 -8 -20c-1 -4 0 -7 0 -11c0 -3 -1 -7 1 -11h3l3 6c0 -2 1 -5 2 -7s7 -2 8 -1c2 3 2 6 3 10c1 3 2 7 4 11c1 6 3 13 1 19c-1 2 -2 4 -4 6c0 1 1 3 1 4c3 7 5 15 11 22zM109 390c1 2 1 3 0 5l-2 7c0 1 -4 1 -4 1c-2 -2 -2 -4 -2 -6
c-1 -3 1 -5 -1 -8c-4 -4 -6 -6 2 -10c0 0 4 0 3 1c-3 2 -4 4 -1 6zM102 192c0 3 -2 6 -4 8c0 1 -5 0 -4 -1c0 -3 3 -5 4 -8c1 0 4 1 4 1zM102 358c0 -1 3 -1 3 0c-1 3 -1 7 -1 11h-2v-11zM106 511c-1 0 -1 1 -2 1l1 -1h1z" />
    <glyph glyph-name="r" unicode="r" horiz-adv-x="389" 
d="M312 100c19 -41 107 -139 43 -156s-96 73 -121 117c-19 33 -61 182 -101 181c-3 -48 -10 -102 6 -149c11 -35 40 -81 0 -108c-105 -71 -99 187 -100 226c-2 97 10 195 11 292c0 62 3 124 3 185c-1 53 -15 83 23 124c32 -6 56 -12 86 -6c37 9 58 21 98 0
c63 -33 73 -111 76 -175c5 -79 -7 -157 -44 -229c-27 -52 -95 -71 -67 -131c26 -58 60 -113 87 -171zM142 376c70 35 163 346 60 351c-92 4 -60 -297 -60 -351zM98 208h-1v1c3 5 12 10 7 15c-1 1 -7 0 -8 0c-4 -3 -2 -5 -5 -7l-3 -4c0 3 0 5 1 8s1 7 6 11c4 3 4 5 2 8
c-2 2 -2 4 -4 5c0 0 0 1 -1 1c2 -1 3 -2 3 -2c0 -1 5 -1 5 0c2 1 -1 3 -4 4c-3 2 -4 4 -5 6h6c2 1 0 2 0 3c-2 1 -4 2 -3 4h-1c0 2 2 4 2 6h3c3 2 2 4 3 5c1 2 0 4 0 6c0 1 -1 2 1 3c1 0 2 1 1 1c0 1 -4 2 -6 2v1c0 2 -3 4 -5 5h-1l4 -4c-2 0 -4 0 -5 -1c-2 -1 -3 -1 0 -2
c3 -2 -2 -3 -1 -5c0 -2 1 -4 0 -6c0 -1 -3 -3 1 -5l-1 -1c-3 -3 -4 -5 -5 -8c-1 -2 -4 -6 -1 -8c1 0 2 -1 3 -1c-1 0 -1 0 -1 -1c1 -1 -1 -2 -2 -3c0 -2 0 -3 1 -5s1 -3 1 -4c0 -2 -2 -4 -4 -6c-2 -3 -2 -6 -2 -9c-1 -4 -2 -7 0 -11c1 -1 5 -1 7 0v-1c0 -2 0 -4 1 -5
c0 -1 3 -3 1 -4c0 -1 -1 -2 -2 -2l-5 -7c0 -2 0 -4 5 -6h3c5 -2 -3 -5 -5 -7c-3 -3 -3 -6 4 -9c1 0 8 0 9 1c2 1 -1 3 -1 5c-1 1 0 3 0 4c1 2 2 5 -2 6h3c2 3 -2 6 -1 8c1 3 6 6 7 10c0 1 -3 3 -5 5zM96 130c1 2 2 4 2 7c-1 2 -4 3 -8 5v1c3 4 6 8 7 12c0 3 -1 5 -2 7
c0 2 1 4 -1 6c0 1 -3 1 -3 0l-3 -4c0 2 -1 3 -3 5h-7c-2 -2 -2 -4 -3 -6c0 -3 -1 -5 -2 -8c-2 -3 -2 -7 0 -11l5 -3l-2 -3c-2 -5 -3 -9 -9 -14c-1 -2 -3 -4 0 -5c2 -1 9 -1 12 0v-1c-1 -1 -2 -2 -2 -4c-1 -2 2 -5 4 -8h4c1 -1 1 -1 2 -1l-1 1c2 3 4 6 3 8c0 1 1 3 1 4
s-2 2 -3 3c6 3 7 7 9 9zM71 179c-1 -1 0 -2 1 -3l2 -5h5c1 2 1 3 1 4c1 2 -1 3 1 5c3 2 5 4 -3 6c0 0 -4 0 -3 -1c3 -1 4 -2 1 -4c-2 -1 -4 -1 -5 -2zM89 299c-1 -2 0 -3 2 -5h5l-4 5c0 1 -3 0 -3 0zM77 199h-3c1 -3 2 -5 2 -7h1c0 2 1 4 0 7z" />
    <glyph glyph-name="s" unicode="s" 
d="M393 730c10 -58 22 -325 -102 -205c40 44 52 156 -9 193c-98 60 -81 -124 -81 -168c1 -150 142 -273 148 -422c7 -168 -258 -208 -303 -46c-7 22 7 50 0 70c-3 9 -21 15 -22 23c-8 42 43 66 87 59c54 -9 31 -30 25 -73c-5 -36 -4 -77 32 -100c163 26 -81 357 -91 433
c-9 67 2 201 51 252c69 70 202 45 265 -16zM207 395c0 4 -5 5 -9 5c-4 1 -7 3 -9 6c2 1 4 3 4 4c1 2 -1 3 -2 3c-3 1 -6 2 -7 5h-1l-3 9c1 1 1 2 2 2c0 4 -2 6 -3 9c-1 4 -4 6 -5 8s-3 2 -2 5c1 1 1 2 0 3s-5 0 -7 0c-1 0 -1 0 -1 1l-4 3c-1 0 -3 1 -4 2c0 0 -1 0 -1 -1
l7 -5c-1 0 -4 -1 -4 -2c-1 -3 -1 -4 2 -4c4 0 1 -5 3 -7c2 -3 5 -5 6 -8s1 -8 6 -8v-2c0 -5 2 -10 3 -15c2 -4 3 -10 8 -12h3v-1c1 -2 1 -4 1 -6c1 -3 3 -6 5 -8s4 -3 5 -6c2 -3 1 -6 1 -10c0 -6 2 -10 4 -16s5 -12 10 -17c0 -1 4 1 6 3v-1c0 -1 0 -1 1 -1l4 -8
c1 -2 5 -3 4 -6v-4c-1 -4 -1 -8 0 -12c1 -3 3 -7 8 -8c1 -1 3 0 4 0c5 -1 1 -9 0 -12c-1 -6 1 -12 9 -13c1 -1 2 -1 4 0c-1 0 -1 -1 -1 -1v-7c-1 2 -3 4 -5 6c-1 1 -7 -2 -7 -3c-1 -4 1 -7 1 -10l2 -13c0 -3 1 -6 2 -10c1 -3 2 -6 4 -9l6 -4v-17c0 -4 -1 -8 -3 -12
c-1 -3 -3 -7 1 -8c2 -1 8 0 12 1v-2c-1 -2 -1 -4 -1 -6s1 -4 2 -7c1 -2 2 -4 4 -6c0 -1 4 -1 5 0c1 5 2 10 1 14c-1 2 0 5 0 7s-2 4 -4 5c5 6 5 12 5 17c1 4 1 8 0 12c-2 4 -6 5 -11 8v1c0 2 0 4 1 6v6c0 4 0 8 -1 11c-1 4 -3 7 -5 11c-2 3 -3 7 -6 10h-2c2 0 4 2 4 3
c1 4 -3 6 -4 8c-2 3 -2 6 -3 8c0 3 -1 8 -6 8c1 1 2 1 2 2c1 5 -5 8 -6 13s1 12 0 17c-1 4 -6 5 -9 7c0 0 0 1 -1 1c-1 5 0 10 0 15s-1 10 -6 12c-1 1 -6 -2 -7 -3c-1 -5 2 -9 1 -13v-7l-5 12c-2 6 -5 12 -3 20c1 3 0 6 0 8c-1 1 -1 1 -1 2c-1 1 -1 1 -1 2l-3 3
c-2 1 -4 2 -5 4c0 -1 5 2 5 3zM236 268c1 0 5 1 5 2c0 2 0 4 -1 6c-1 3 -4 5 -3 8c2 6 2 8 -6 9c-1 0 -4 -1 -3 -2c4 -1 6 -2 4 -6c-1 -2 -3 -4 -3 -6s1 -3 2 -4c3 -2 3 -4 5 -7zM152 465c1 0 5 1 4 2c0 1 -1 1 -1 2c-1 0 -1 1 -2 1l-3 4c-1 0 -3 -1 -3 -2s1 -3 2 -4
c0 0 1 -1 1 -2c1 0 1 0 2 -1zM224 302c1 0 2 0 2 1c-2 3 -3 7 -6 10c0 1 -2 0 -2 -1c3 -3 5 -7 6 -10zM197 395c2 0 4 -1 5 -3c-1 0 -2 1 -3 2c-1 0 -1 1 -2 1zM278 160c-1 0 -1 1 -2 1c0 -1 1 -1 2 -1z" />
    <glyph glyph-name="t" unicode="t" 
d="M416 813c47 -68 -35 -68 -77 -69c-52 -2 -76 5 -81 -48c-6 -59 -1 -122 0 -181c1 -118 10 -235 13 -353c1 -44 29 -134 -14 -155c-31 -15 -81 8 -93 40c-14 35 6 108 4 147c-2 49 -1 98 -1 148c-1 64 1 127 -1 191c-1 52 10 119 -3 169c2 -13 -10 8 -3 6
c-45 24 -121 -30 -166 10c-21 18 -22 61 -7 81c25 36 82 -7 122 -3c25 3 48 11 70 20c43 18 51 9 95 12c46 3 105 39 142 -15zM223 279c0 4 3 11 -1 15l-2 2c0 2 1 5 2 7c0 3 0 6 -2 9c-1 2 -2 5 -2 8s2 6 4 9c2 6 1 12 1 17c1 7 1 14 -2 20c-1 2 -5 2 -7 1c1 1 1 1 0 1
c0 3 0 6 -1 9c0 2 -4 6 -2 8c0 1 1 2 2 3c2 5 4 8 4 12s-1 9 -5 12h-4c-4 3 3 9 4 12c3 6 3 12 -4 16c-2 1 -9 1 -9 -1c-2 -3 1 -6 2 -9c0 -3 0 -6 -1 -9c0 -2 -1 -7 4 -9c-2 0 -3 -1 -3 -1c-2 -5 2 -10 2 -15c-1 -5 -6 -11 -6 -17c-1 -3 3 -6 5 -9c0 -1 1 -1 1 -1v-1
c-2 -9 -11 -19 -4 -28c0 -1 6 0 7 1c3 4 2 8 4 13l3 6v-13c-1 -7 0 -14 -5 -21c-3 -5 -3 -10 -1 -15l3 -6c-1 1 -5 0 -6 -1c-1 -3 2 -5 5 -8c4 -2 5 -6 5 -9c-2 0 -4 -1 -5 -2c-2 -1 0 -3 1 -4c1 -2 4 -5 3 -7c0 -1 1 -1 1 -1c0 -3 -1 -7 -2 -10c-1 0 -2 -1 -3 -1
c-2 -3 -1 -6 -2 -9c-1 -4 1 -7 1 -11c0 -2 1 -3 -1 -5c-1 -1 -1 -2 -1 -3c0 -2 4 -2 7 -3v-2c0 -3 3 -6 5 -9h1l-4 9c1 -1 4 0 5 0c2 2 2 3 0 5c-4 2 1 5 0 8s-2 7 -1 11c0 3 3 7 -1 10h-1c1 0 1 1 1 1c3 5 4 10 5 15zM224 523c2 2 4 6 1 8s-9 1 -13 0c0 1 0 2 1 2
c0 3 1 5 2 7c0 5 -3 10 -5 15h-6c-1 -5 -2 -10 -2 -15c1 -2 0 -4 0 -7c-1 -2 1 -4 3 -6c-6 -4 -7 -11 -8 -15c-2 -4 -2 -8 -2 -12s4 -7 8 -11v-1c-2 -8 -5 -15 -5 -23c0 -4 1 -8 1 -11c1 -4 1 -8 3 -12c0 -1 2 -1 3 0l2 7c0 -3 1 -6 3 -8c1 -1 7 -1 8 1l2 10c0 5 1 9 2 13
c1 7 1 15 -2 21c-1 3 -3 5 -5 6c1 2 1 3 1 5c2 8 3 17 8 26zM226 423c0 2 0 4 -1 5c-2 3 -2 6 -3 9c0 0 -5 0 -5 -1c-1 -2 -1 -4 -1 -6c0 -3 2 -6 0 -9c-3 -4 -5 -7 3 -10c1 -1 4 0 3 0c-3 2 -4 5 -1 7zM222 204c1 3 -1 6 -2 9c-1 1 -5 1 -5 0c1 -3 2 -6 4 -9c0 -1 3 0 3 0z
M222 387c0 -1 3 0 3 0l-3 13s-1 0 -1 -1c0 -4 0 -8 1 -12zM210 305c0 -1 1 -2 2 -3v-2c-1 2 -2 3 -2 5zM203 557v-1h2s-1 1 -2 1z" />
    <glyph glyph-name="u" unicode="u" horiz-adv-x="415" 
d="M365 728c-5 -62 11 -125 9 -186c-2 -71 -5 -140 -3 -212c2 -63 1 -116 -9 -178c-9 -63 15 -121 -64 -139c-29 -7 -62 -6 -92 -11c-24 -3 -52 -13 -76 -3c-69 28 -80 90 -88 154c-17 136 -9 276 -7 414c0 33 7 68 4 100c-2 26 -14 49 -17 74c-3 28 -11 39 24 57
c20 11 53 15 75 12s36 -10 50 -27c27 -32 12 -43 6 -80c-13 -70 -10 -148 -13 -219c-3 -65 -41 -433 65 -417c102 15 35 215 48 275c-1 -2 0 6 0 3c10 113 5 229 5 343c1 29 -8 99 19 120c63 49 68 -48 64 -80zM74 471c0 8 1 16 -1 24c-1 1 -5 2 -7 1c1 1 1 2 0 2v11
c0 2 -4 6 -2 8v1c1 1 2 2 2 3c3 5 5 9 6 14c0 4 0 10 -4 13c-1 1 -2 2 -4 2c-4 3 4 10 5 13c4 6 4 14 -2 19c-2 1 -9 2 -10 0c-1 -3 2 -7 2 -11c0 -3 -1 -6 -2 -10c0 -3 -2 -8 3 -11c-2 0 -3 -1 -3 -2c-3 -5 1 -11 0 -16c-1 -7 -6 -13 -7 -20c-1 -4 3 -8 4 -11
c0 -1 1 -1 1 -2c-2 -11 -12 -22 -6 -33c0 -1 6 -1 7 0c4 5 3 10 5 15l3 7c0 -5 0 -10 -1 -15c-1 -8 -1 -16 -6 -24c-4 -6 -4 -12 -1 -18c0 -3 1 -5 2 -7c-1 1 -5 1 -6 0c-1 -4 2 -8 5 -11c4 -3 5 -7 5 -11c-2 0 -4 -1 -5 -2c-2 -1 -1 -3 0 -4c2 -3 4 -7 4 -10
c0 -4 -1 -8 -2 -12c-1 0 -2 -1 -2 -1c-3 -3 -2 -8 -2 -11c-1 -4 0 -8 1 -12c0 -3 1 -4 -1 -7c-1 -1 -1 -2 -1 -3c0 -2 5 -3 7 -4v-2c0 -4 4 -7 5 -11h2c-1 4 -4 7 -5 10c1 0 4 0 5 1c2 2 2 4 0 5c-4 3 1 7 0 10c-1 4 -2 9 -2 13s3 8 -1 12c0 0 0 1 1 1c3 6 3 12 4 18
c1 5 3 12 0 17c-1 1 -2 2 -3 2c1 0 1 1 1 1c-1 3 1 5 2 8c0 3 0 7 -1 10s-2 6 -2 9c0 4 2 8 4 11c2 7 2 14 3 20zM91 677c2 3 4 7 1 10c-2 2 -9 2 -13 1c0 1 1 2 1 3c1 2 2 5 2 7c1 6 -2 12 -4 18c0 1 -4 1 -5 0c-2 -5 -3 -11 -3 -16c1 -3 -1 -6 -1 -9c0 -2 1 -4 3 -7
c-6 -5 -8 -12 -10 -17s-3 -9 -2 -14c0 -5 3 -8 7 -13v-1c-3 -9 -7 -17 -8 -26c0 -5 0 -10 1 -14c0 -5 -1 -9 1 -14c0 -1 2 -1 3 0l3 8c0 -3 0 -7 2 -10c1 -1 7 -1 8 0c2 4 2 8 3 12l3 15c1 8 3 17 0 25c0 3 -2 5 -4 7c1 2 1 4 2 5c2 10 4 20 10 30zM348 678c0 1 -1 2 0 3
c1 0 1 1 1 1c0 1 -2 1 -3 2l-3 4h-1l3 -4c-1 1 -3 0 -3 0c-1 -1 -1 -1 0 -2c2 -1 0 -2 0 -4c0 -1 1 -3 0 -4c0 -2 -1 -3 1 -5h-1c-1 -2 -2 -4 -2 -6c-1 -2 -2 -5 -1 -6c0 -1 1 -1 1 -2s-1 -1 -1 -2v-4c0 -1 1 -3 1 -4s-2 -2 -3 -3c-1 -3 -1 -5 -1 -7c-1 -3 -2 -6 -1 -9
c1 -1 3 -1 4 -1c0 -2 -1 -3 0 -4c0 -1 1 -3 0 -3c0 -1 -1 -1 -1 -2c-1 -1 -3 -3 -3 -5c0 -1 0 -3 2 -5h2c2 -1 -2 -4 -3 -5c-2 -2 -2 -5 1 -7c0 0 1 -1 2 -1c-1 -1 -2 -2 -2 -3c0 2 0 3 -1 4s-4 1 -4 0l-2 -4c0 -2 -1 -4 -1 -6c-1 -3 -2 -6 0 -9c0 -1 1 -2 2 -2
c-1 -1 -1 -2 -1 -2c-1 -4 -2 -8 -5 -11c0 -1 -2 -3 0 -4c1 -1 4 -1 6 0v-1c0 -1 -1 -2 -1 -3c0 -2 2 -4 3 -6c0 -1 2 0 2 0c1 2 2 4 1 6c0 1 1 2 1 3s-1 2 -2 3c3 1 3 4 4 6s2 3 2 5c-1 2 -2 3 -4 4v1l4 9c0 2 0 4 -1 5c0 2 1 4 0 5h-1c1 0 2 0 3 1s-1 3 -1 4s1 2 1 4
c0 1 1 3 -1 4h1c2 2 0 4 0 6c1 3 4 5 5 7c0 1 -2 3 -2 4c-1 0 -1 1 -1 1c2 4 7 7 4 12h-4c-2 -2 -1 -4 -2 -6c-1 0 -1 -1 -2 -2c0 2 0 4 1 6c0 2 1 5 3 8c2 2 3 4 2 7l-2 3v1s1 -1 1 -2h2c1 1 0 3 -2 4c-1 1 -2 3 -2 4c1 0 2 0 3 1c1 0 0 1 0 1c-1 1 -2 3 -2 4s1 3 1 4
c1 0 2 0 2 1c1 1 1 2 1 4c1 1 0 3 0 4zM83 561c1 2 0 4 -1 6l-2 10c0 1 -4 1 -5 0c-1 -3 -1 -5 -1 -8c-1 -3 1 -6 -1 -10c-3 -5 -5 -8 2 -12c1 -1 4 -1 3 0c-3 3 -4 5 0 8c2 2 4 4 5 6zM72 305c0 3 -1 7 -3 10c-1 1 -5 1 -5 -1c1 -3 3 -6 4 -10c1 0 4 0 4 1zM329 602v-2
c1 -1 1 -2 1 -3s2 -1 3 -1c0 1 0 2 1 3c0 1 -1 2 0 4c2 1 3 2 -1 4c0 1 -2 1 -1 0s2 -2 0 -3c-1 0 -2 -1 -3 -2zM76 518h2c0 5 -1 10 -1 15c0 1 -1 1 -1 0c-1 -5 -1 -10 0 -15zM340 695c0 -2 1 -3 2 -4h2c0 2 -1 3 -2 4h-2zM333 618h-1v-6h1c0 2 1 4 0 6zM58 424
c0 -1 1 -3 2 -4v-2c-1 2 -2 4 -2 6zM73 719c-1 0 -1 0 -1 -1h2s0 1 -1 1z" />
    <glyph glyph-name="v" unicode="v" horiz-adv-x="433" 
d="M438 785c33 -39 -9 -91 -24 -125c-41 -90 -60 -191 -84 -286c-23 -93 -58 -191 -67 -287c-3 -34 15 -87 -10 -113c-40 -43 -96 9 -123 35c19 25 -1 81 -5 109c-6 44 -10 88 -14 132c-9 80 -21 159 -39 238c-9 42 -19 84 -32 125c-9 27 -9 46 -15 73c-3 17 -40 62 -36 76
c6 22 69 37 85 37c109 0 94 -207 105 -289c7 -51 17 -103 20 -155c3 -41 -8 -127 14 -163c36 11 51 250 58 283c17 77 36 157 60 233c14 42 55 142 107 77zM88 651c-1 -4 0 -7 0 -11c1 -4 1 -9 4 -13c1 0 5 1 7 2v-1c0 -2 1 -4 2 -6c0 -1 4 -3 2 -4c0 0 0 -1 1 -1
c-1 0 -2 -1 -2 -2c-2 -3 -4 -6 -3 -9c0 -2 1 -5 5 -6h4c4 -1 -2 -6 -3 -8c-3 -4 -2 -8 5 -10c1 0 8 1 9 2c1 2 -2 4 -3 6v5c0 2 1 5 -3 6c1 0 2 1 2 1c2 4 -3 6 -3 10c0 3 5 8 5 12c0 2 -4 3 -6 5h-1v1c1 6 9 15 2 19c-1 1 -7 -1 -7 -2c-3 -3 -2 -6 -3 -9c-1 -2 -2 -3 -2 -5
c-1 3 -1 6 -1 9c-1 4 -2 9 2 14c3 5 2 8 -1 11l-5 4l-1 1c2 0 3 -1 3 -2s5 1 6 1c1 3 -3 4 -6 5c-4 0 -6 2 -6 4l5 3c2 1 0 2 -1 2c-2 1 -5 2 -5 4c0 1 0 1 -1 0c0 3 1 5 1 7c1 1 2 1 2 2c3 2 1 4 1 6c1 3 -1 5 -2 7c-1 1 -1 2 0 4c1 1 1 1 1 2c-1 1 -5 0 -7 0c0 0 0 1 -1 1
c0 2 -4 3 -6 4c0 1 -1 0 -1 0c1 -2 4 -2 5 -4c-1 0 -4 -1 -4 -2c-2 -2 -2 -3 1 -3c4 0 -1 -4 0 -5c2 -2 3 -4 3 -7c0 -2 -2 -5 2 -6h1l-1 -1c-2 -4 -2 -8 -2 -11s-2 -7 2 -9c1 0 2 -1 3 -1h-1c1 -1 0 -3 0 -5s0 -4 2 -5l3 -5c0 -2 -2 -4 -3 -7zM124 537c1 3 2 5 1 8
c0 2 -4 4 -8 6c1 6 5 11 4 16c0 3 -1 5 -2 7c-1 3 -1 6 -3 8c0 0 -3 0 -3 -1c-1 -1 -1 -3 -2 -5c0 2 -1 4 -4 5c-1 1 -6 -1 -7 -1c-1 -3 -1 -5 -1 -8l-2 -8c0 -5 0 -10 3 -14l5 -3c-1 -1 -1 -2 -1 -3c-2 -6 -2 -11 -7 -17c-2 -2 -4 -5 0 -6c2 -1 9 0 12 1v-1
c-1 -1 -2 -3 -2 -4c0 -3 3 -7 6 -9c0 -1 4 0 5 0c1 3 2 7 1 10c0 1 1 3 1 4c0 2 -2 3 -3 4c5 3 6 8 7 11zM92 587c2 -1 2 -3 4 -5c0 0 4 0 4 1c1 2 1 3 1 4c0 2 -2 4 0 6c2 3 4 5 -4 6c-1 0 -4 0 -3 -1c3 -1 4 -2 2 -4l-5 -4c0 -1 0 -2 1 -3zM75 726c1 0 5 1 5 2
c-1 2 -4 3 -5 4s-4 -1 -3 -1h-1c0 -2 2 -4 4 -5zM92 614h-2l3 -8h2c-1 3 -1 6 -3 8z" />
    <glyph glyph-name="w" unicode="w" horiz-adv-x="628" 
d="M642 787c22 -19 -6 -65 -12 -90c-23 -99 -27 -203 -40 -304c-11 -88 -31 -175 -35 -263c-1 -29 9 -47 -6 -69c-8 -14 -44 -28 -60 -30c-77 -7 -95 104 -109 157c-19 73 -14 183 -53 248c1 -4 -6 -7 -4 -4c-48 -56 -61 -171 -77 -239c-12 -54 -8 -193 -98 -174
c-106 23 -81 310 -91 389c-11 88 -33 175 -48 261c-6 32 -19 101 5 117c30 19 51 -7 67 -28c44 -55 47 -161 53 -230c5 -46 16 -90 21 -136c4 -40 -4 -107 19 -141c38 4 72 221 84 260c16 54 30 187 110 182c75 -5 68 -135 75 -191c6 -55 -5 -235 47 -266
c71 151 45 341 81 501c8 36 -25 26 21 47c10 5 39 12 50 3zM415 220c0 -2 3 -4 5 -6h2c-1 2 -4 4 -5 6c1 0 4 1 4 1c2 2 3 3 0 4c-4 1 1 4 0 6s-2 5 -2 8c0 2 2 6 -2 7l1 1c2 4 3 9 3 12c0 4 2 9 -2 11c0 1 -1 1 -2 1v1c-1 2 1 3 1 5c0 3 0 5 -2 7c-1 2 -2 3 -2 5
c-1 3 1 5 2 8c2 5 1 9 1 13c-1 5 -1 11 -4 15c-1 1 -5 0 -7 -1v1c1 0 1 1 0 1l-2 6c0 2 -5 3 -3 5v1c0 1 1 2 1 2c2 4 4 7 4 10c-1 3 -2 6 -6 8h-4c-5 1 2 7 3 10c2 4 1 9 -6 11c-1 0 -2 0 -4 -1c1 0 1 1 1 1c1 3 1 4 1 6c1 -2 2 -4 5 -5c1 -1 6 1 7 2c1 2 0 5 0 8s1 7 1 10
c0 6 0 11 -4 16l-5 3v4c1 7 1 13 5 21c1 2 2 6 -1 7c-3 0 -9 -1 -12 -3v2c0 2 1 3 1 5c0 4 -4 7 -7 10c-1 0 -5 0 -5 -1c-1 -4 -2 -8 0 -11v-6c0 -1 2 -2 4 -4c-5 -4 -5 -9 -6 -13c-1 -3 -1 -6 0 -9s5 -4 9 -6v-1c-1 -6 -3 -13 -2 -18c0 -3 1 -6 2 -9c2 -3 1 -6 4 -8v-1
c-1 0 -3 -1 -3 -2c-1 -2 3 -4 3 -6c1 -2 1 -4 1 -7c-1 -2 -1 -6 4 -6c-2 -1 -3 -1 -3 -2c-2 -4 3 -7 3 -10c0 -4 -4 -10 -4 -14c-1 -3 4 -4 6 -6c0 0 0 -1 1 -1c-1 -8 -9 -16 -2 -22c0 -1 6 1 7 2c3 3 1 6 3 10c0 2 1 3 2 5c0 -3 1 -7 1 -10c0 -5 1 -10 -3 -16
c-3 -5 -3 -8 1 -12l4 -6c1 0 1 -1 1 -1c-1 1 -3 2 -3 3s-5 0 -5 -1c-1 -3 2 -4 6 -6c3 -1 5 -4 5 -6c-2 -1 -4 -1 -5 -2c-2 -1 0 -2 1 -3c2 -1 4 -3 4 -5c0 -1 0 -1 1 -1c0 -2 -1 -5 -2 -7c-1 -1 -2 -1 -2 -1c-2 -3 -1 -5 -2 -8c0 -3 1 -5 2 -7c0 -2 1 -3 -1 -5
c0 -1 -1 -1 0 -2c0 -1 4 -1 6 -2c0 0 1 0 1 -1zM407 378c0 1 -4 0 -4 -1c-1 -1 -1 -3 -1 -5s3 -3 1 -6c-2 -4 -4 -6 4 -8c1 0 4 1 3 1c-3 2 -4 3 -2 5s4 4 4 5c1 2 0 3 -1 4c-2 1 -2 4 -4 5zM426 203c0 2 -2 4 -3 6c-1 1 -5 0 -5 -1l4 -6c1 -1 4 0 4 1zM415 341
c-2 3 -3 6 -4 9c0 1 -1 0 -1 0c0 -3 1 -6 2 -9c0 -1 3 0 3 0zM374 465h3c-1 0 -1 1 -3 0zM325 435c0 0 0 1 1 1z" />
    <glyph glyph-name="x" unicode="x" horiz-adv-x="466" 
d="M384 128c13 -39 41 -69 54 -103c26 -69 -63 -86 -105 -45c-36 35 -79 277 -131 265c-27 -7 -55 -156 -61 -184c-15 -61 -42 -99 -112 -70c-20 43 -18 67 3 110c23 48 36 96 58 143c21 43 74 98 80 143c7 53 -36 130 -53 181c-19 58 -55 99 -82 150c-26 48 9 77 64 68
c62 -11 76 -56 98 -106c10 -22 40 -119 64 -109c26 11 112 300 178 192c24 -39 -33 -115 -49 -149c-26 -54 -58 -108 -79 -164c-42 -114 36 -216 73 -322zM191 519c2 -2 5 -2 8 -3l1 1l-7 2c2 1 4 3 4 3c2 2 1 3 -1 3c-4 0 -1 4 -2 5c-2 2 -4 4 -5 6c-1 3 1 6 -3 6h-1l1 1
c1 5 0 8 0 12c-1 3 0 8 -4 9h-3c-1 2 1 4 0 5c0 2 -1 4 -3 5c-1 2 -3 3 -3 5c-1 2 0 4 1 7c1 4 -1 8 -2 11c-1 5 -2 9 -6 13c-1 0 -5 -2 -7 -3c1 1 1 2 0 1l-3 6c0 1 -5 1 -3 3v3c2 4 3 7 2 10c-1 2 -3 5 -7 5c-1 0 -2 -1 -4 -1c-4 -1 0 7 1 9c2 5 0 8 -8 8
c-1 0 -7 -3 -8 -5c0 -2 3 -3 4 -4c1 -2 2 -4 2 -6s0 -5 5 -4l-2 -2c-1 -4 4 -5 5 -8c0 -4 -3 -10 -2 -13c0 -3 4 -3 7 -4l1 -1c0 -6 -7 -16 1 -19c1 -1 6 2 7 3c2 4 0 6 1 9c0 2 1 4 1 5l3 -8c1 -4 3 -9 0 -15c-2 -5 -1 -8 3 -10c1 -2 2 -3 3 -3l-5 -2c-1 -3 3 -4 7 -4
c3 0 5 -2 6 -4l-4 -3c-2 -2 0 -2 1 -2c3 -1 5 -2 5 -4h2v-7l-2 -2c-1 -3 1 -5 1 -7c0 -3 3 -4 4 -6s2 -2 1 -4c-1 -1 -1 -2 0 -3s5 1 7 2v-1zM122 662c1 -3 3 -5 4 -7l5 -6c1 0 3 1 3 2v5c1 -2 3 -3 5 -3c2 -1 7 2 7 3c1 3 -1 5 -1 8c-1 3 -2 6 -2 9c-1 5 -3 9 -8 12
c-1 1 -3 1 -5 1c-1 2 -1 3 -1 4c-1 6 -3 11 -1 19c0 3 1 6 -3 6c-3 -1 -8 -4 -11 -7v2c0 1 0 3 -1 4c0 2 -2 3 -4 4c-1 1 -3 1 -5 2c-1 0 -4 -2 -4 -3c0 -3 1 -7 3 -9c1 -1 1 -3 2 -5c0 -1 2 -1 4 -1c-3 -6 -2 -10 -2 -14c0 -3 1 -5 3 -7c1 -2 5 -2 10 -2v-1
c1 -6 0 -12 2 -16zM147 653c-1 -2 0 -4 0 -5c1 -2 3 -3 2 -5c-1 -5 -2 -7 6 -6c1 0 3 2 2 2c-3 0 -4 1 -2 4l3 5c0 1 -1 2 -2 3c-3 1 -3 3 -5 4c-1 0 -4 -2 -4 -2zM208 509c0 2 -3 3 -5 4c-1 0 -4 -3 -4 -3c2 -2 5 -2 7 -3c0 -1 3 2 2 2zM160 631c0 1 -1 0 -1 0
c1 -3 2 -6 4 -8l2 1l-3 4s0 1 -1 1zM172 564c-2 0 -4 1 -4 2c0 -1 1 -1 2 -1s1 -1 2 -1zM98 718h2v1z" />
    <glyph glyph-name="y" unicode="y" 
d="M433 742c2 -43 -75 -127 -92 -169c-24 -59 -42 -111 -55 -172c-12 -52 -32 -70 -27 -128c9 -96 7 -191 7 -288c-49 -10 -109 -13 -112 50c0 15 15 44 18 60c8 39 3 58 -3 97c-17 107 4 202 -51 297c-19 33 -36 66 -53 102c-16 34 -82 103 -80 138c3 59 95 -4 111 -28
c29 -40 40 -144 80 -169c40 -24 59 61 75 98c13 28 32 58 41 88c6 16 4 41 18 54c33 31 120 13 123 -30zM230 81c1 2 4 6 0 8c0 1 -1 1 -2 2c0 1 2 3 2 4c0 2 0 4 -1 6c-1 1 -2 3 -2 4c-1 2 2 4 3 6c2 4 1 8 2 11c0 4 0 9 -3 12c0 1 -4 0 -7 0c1 0 1 1 0 1v5c-1 1 -5 3 -3 5
l2 2c2 3 4 5 4 8c0 2 0 5 -5 6h-4c-4 2 3 6 5 8c3 4 2 7 -4 9c-2 1 -9 1 -10 -1s2 -3 2 -5c1 -2 0 -4 0 -5c-1 -2 -2 -5 3 -6c-1 0 -2 -1 -3 -1c-2 -3 2 -6 2 -9s-5 -7 -6 -11c0 -2 4 -4 6 -5v-1c-1 -6 -10 -13 -4 -18c1 -1 7 0 7 1c4 3 2 6 4 8l3 4v-8c0 -4 0 -8 -4 -12
s-4 -7 -1 -10l4 -5s0 -1 1 -1c-2 1 -3 1 -3 2s-5 1 -5 0c-2 -2 1 -3 5 -5c3 -1 4 -3 4 -5c-2 0 -4 -1 -5 -1c-2 -1 0 -2 1 -3s4 -3 3 -4c0 0 0 -1 1 -1l-3 -6h-2c-3 -2 -2 -4 -3 -6s1 -4 1 -6c0 -1 0 -2 -1 -3s-2 -1 -2 -2c1 -1 5 -1 7 -2v-1c0 -2 3 -3 4 -5h2l-4 5h5
c2 1 2 2 0 3c-4 1 1 3 1 5c-1 2 -2 4 -1 6c0 2 3 5 -1 6v1h1c3 3 4 7 4 10zM236 228c2 1 4 3 1 5c-2 1 -9 1 -13 1c1 0 1 1 1 1l3 4c0 3 -2 6 -4 9c-1 0 -3 1 -4 1c-1 1 -1 1 -2 1l1 -1c-2 -3 -4 -6 -4 -9c1 -1 -1 -3 -1 -4s1 -3 3 -4c-6 -2 -7 -7 -9 -9c-2 -3 -3 -5 -3 -8
c1 -2 4 -4 8 -6v-1c-2 -5 -6 -10 -6 -14c0 -3 1 -5 1 -8c1 -2 0 -5 2 -7h3l3 5c0 -2 1 -3 3 -5c1 0 7 0 7 1c2 2 2 4 2 7l3 8c1 4 2 8 -1 12l-5 4c1 0 1 1 2 2c2 5 3 11 9 15zM234 169c1 2 0 3 -1 3c-1 2 -1 4 -2 5s-5 0 -5 0l-2 -4c0 -2 3 -3 1 -6c-3 -3 -5 -4 3 -6
c0 0 4 1 3 1c-3 1 -4 2 -2 4zM227 35c0 2 -1 4 -2 6h-5c0 -2 2 -4 3 -6h4zM231 147h2c-1 3 -2 5 -2 8c0 0 -2 0 -2 -1c0 -2 0 -5 2 -7z" />
    <glyph glyph-name="p" unicode="p" horiz-adv-x="404" 
d="M314 742c154 -123 64 -341 -56 -455c-13 -14 -30 -26 -49 -32c-12 -3 -42 5 -50 -2c-25 -20 -13 -91 -11 -120c3 -56 42 -150 -40 -150c-28 -8 -61 51 -65 69c-5 22 8 63 10 86c10 116 5 234 1 350c-2 63 -34 232 20 275c25 20 89 12 122 16c51 5 79 -6 118 -37zM156 342
c50 -7 124 147 137 185c16 49 9 150 -42 180c-26 15 -49 7 -73 -11c-38 -27 -33 -46 -31 -95c3 -86 5 -173 9 -259zM371 546c2 1 2 1 2 2c0 2 -4 3 -6 4v1c0 3 -2 5 -4 8h-1c1 -2 3 -5 3 -7c-1 1 -4 1 -5 1c-2 -1 -2 -2 0 -4c3 -2 -2 -3 -2 -5c0 -3 0 -6 -1 -8s-5 -4 -2 -7
l-1 -1c-4 -2 -6 -5 -8 -7c-2 -3 -6 -5 -4 -9c0 -1 1 -2 1 -3s-3 -2 -4 -3c-1 -2 -2 -4 -2 -6c1 -2 1 -4 0 -5c-1 -2 -4 -3 -6 -5c-4 -2 -5 -6 -7 -9c-3 -4 -5 -8 -5 -13c0 -1 3 -3 5 -3c0 0 0 -1 1 -1c-1 -2 -2 -4 -2 -6c-1 -1 2 -5 -1 -5c-1 -1 -2 -1 -3 -1
c-3 -2 -6 -3 -8 -5c-1 -3 -2 -5 1 -9c0 -1 2 -2 3 -2c3 -4 -6 -4 -8 -5c-4 -2 -6 -5 -2 -11c1 -2 7 -5 8 -4c3 1 1 4 2 6l3 5c2 1 5 3 1 7c1 -1 2 -1 3 -1c3 2 2 7 4 10s8 4 11 7c1 2 -1 5 -2 8v1c4 5 16 7 13 15c0 1 -6 3 -7 3c-4 -1 -4 -4 -7 -6c-2 -1 -4 -2 -5 -2l4 7
c3 4 5 8 11 10c5 2 7 5 6 10c-1 2 -1 4 -1 6c0 -1 1 -2 1 -2c-1 -1 4 -2 5 -2c2 1 0 4 -2 7c-3 3 -3 6 -2 8c2 -1 4 -1 5 -1c3 0 1 1 1 2c-1 3 -2 5 -1 7h-1c2 2 4 4 5 6h3c3 1 3 4 5 6c1 2 1 5 1 7c1 2 0 3 2 4zM307 410c1 2 3 4 3 8c0 0 -2 1 -3 1l-5 -3c1 2 1 4 0 6
c0 2 -5 4 -6 4c-3 -1 -4 -3 -6 -5l-6 -6c-4 -4 -7 -7 -7 -12c0 -2 1 -4 2 -6c-1 0 -2 -1 -3 -2c-3 -1 -5 -3 -8 -5c-2 -1 -5 -3 -9 -3c-2 0 -6 -1 -4 -4c1 -2 5 -6 9 -8v-1c-2 0 -3 -1 -5 -1c-2 -2 -2 -7 -2 -11c0 -1 3 -3 4 -3c3 1 6 3 8 6c0 1 2 2 3 3c2 1 1 3 1 5
c6 -1 10 2 13 3s5 3 6 6c2 2 0 6 -2 10c3 2 6 3 8 5c2 1 5 3 6 5c2 3 2 5 3 8zM303 445c2 -3 2 -4 -1 -5h-6c-2 -1 -2 -2 -1 -3c0 -3 -1 -4 -1 -6c0 -1 4 -3 4 -3l4 3c1 2 0 5 3 5c4 2 6 2 1 8c-1 0 -4 2 -3 1zM360 573c-1 -2 1 -4 2 -7c1 0 5 0 5 1c0 0 0 1 -1 1v1l-1 1
c0 1 -1 2 -2 3h-3zM309 460c0 -3 -1 -6 -2 -8c0 -1 1 -1 1 -1c2 3 3 5 3 8zM260 357h1c-1 1 -1 1 -1 2h-1c0 -1 0 -1 1 -2zM348 506c0 -1 0 -2 1 -2c0 1 -1 1 -1 2z" />
    <glyph glyph-name="zero" unicode="0" horiz-adv-x="470" 
d="M341 772c88 -37 99 -140 96 -225c-1 -41 -2 -81 -1 -122c0 -26 -6 -44 -10 -67c-15 -81 -10 -171 -37 -250c-32 -90 -113 -151 -213 -132c-107 19 -123 129 -138 221c0 48 -12 96 -11 145c1 42 6 82 10 123c7 81 7 203 76 258c61 48 155 80 228 49zM291 205
c19 131 3 269 29 399c-9 46 4 86 -53 86c-65 0 -75 -72 -84 -122c-22 -118 -16 -255 -3 -375c3 -32 4 -139 50 -137c37 2 58 125 61 149zM101 188v-1c0 -4 4 -7 5 -11h2c-1 4 -4 6 -5 10c1 -1 4 0 5 0c2 3 2 4 -1 6c-4 2 1 6 0 9c-1 4 -2 8 -2 12s3 8 -1 11v2c3 5 4 11 4 17
c1 4 3 12 -1 16l-3 2c1 0 1 1 1 1c-1 2 1 5 1 7c0 4 0 7 -1 10l-3 9c0 4 2 7 4 11c2 6 1 13 1 19c0 7 0 15 -3 22c0 2 -4 2 -7 1c1 1 2 1 0 2v10c-1 2 -5 6 -3 8l2 4c2 5 5 9 5 13s0 10 -4 13c-1 1 -2 1 -4 1c-4 4 4 10 6 13c3 6 4 13 -3 18c-1 2 -8 2 -9 1
c-2 -4 1 -8 1 -11s-1 -6 -1 -9c-1 -3 -3 -9 2 -12c-1 0 -3 0 -3 -1c-3 -5 1 -11 1 -16c-1 -2 -1 -4 -2 -5v-1l-2 -4c-1 -3 -3 -6 -3 -10s4 -7 5 -11c1 0 1 0 1 -1v-1c-1 -10 -10 -21 -4 -31c1 -1 7 0 8 1c3 5 2 9 3 14l3 7c0 -5 1 -10 0 -15c0 -7 1 -15 -4 -22
c-3 -7 -3 -12 0 -18l4 -10c1 0 1 -1 1 -2c-1 2 -3 3 -3 5c0 1 -5 1 -5 0c-2 -4 2 -7 5 -9c4 -3 5 -7 6 -11c-2 0 -5 -1 -6 -2c-2 -1 0 -3 1 -4c2 -3 4 -6 4 -9h1l-2 -12c-1 0 -2 0 -2 -1c-3 -3 -2 -7 -2 -10c-1 -4 1 -8 1 -12c0 -2 1 -4 0 -6c-1 -1 -2 -2 -1 -3
c0 -2 4 -3 7 -4zM123 512c2 2 5 6 2 9c-2 2 -8 3 -12 3c0 0 0 1 1 2l3 6c2 5 0 12 -1 17c0 1 -4 2 -5 1c-3 -4 -5 -9 -6 -14c0 -3 -1 -6 -2 -8s0 -5 1 -7c-6 -4 -8 -12 -10 -16c-3 -4 -4 -9 -4 -13c0 -5 4 -9 7 -13v-2c-3 -8 -8 -16 -8 -25v-13c1 -4 0 -8 1 -13
c0 -1 3 -1 3 0c2 2 2 5 3 8c0 -4 1 -7 3 -10c1 -1 7 -1 7 0c2 4 2 8 3 12l4 14c1 8 2 16 0 24c0 2 -2 4 -4 7c1 1 2 3 2 4c3 10 5 19 12 27zM103 411c-1 -3 2 -6 -1 -10s-5 -7 2 -12c1 0 4 0 3 1c-2 2 -3 5 0 8c2 1 4 3 5 5s1 3 0 5c-2 3 -1 7 -2 10c0 1 -5 1 -5 0
c-1 -2 -2 -5 -2 -7zM112 158h1c0 4 -2 7 -4 10c-1 1 -5 1 -5 0c1 -4 3 -7 5 -10c0 -1 4 0 3 0zM108 363v3l-1 4v7h-2v-7c0 -2 0 -5 1 -7c0 -1 2 -1 2 0zM111 553l1 -1h1c-1 0 -1 1 -2 1z" />
    <glyph glyph-name="one" unicode="1" horiz-adv-x="283" 
d="M204 759c37 -10 36 -7 34 -45c-2 -23 -9 -48 -11 -72c-4 -43 -6 -87 -10 -130c-8 -92 -11 -186 -12 -279c-1 -72 8 -156 -12 -222c-85 -23 -115 5 -112 91l8 258c2 66 7 145 15 216c4 34 23 83 -4 102c-3 2 -48 -5 -59 -1c-12 5 -32 15 -34 30c-6 56 158 63 197 52z
M165 359v1c2 9 11 17 5 25c0 1 -6 1 -7 0c-4 -4 -2 -8 -5 -12c0 -2 -2 -3 -3 -5c1 4 0 8 1 12c1 6 1 12 5 18c4 5 5 9 2 14l-4 8v1c1 -1 2 -2 2 -4c0 -1 5 -1 6 0c1 3 -2 5 -5 8c-3 2 -4 5 -4 8c2 0 4 1 5 2c2 1 0 2 0 3c-2 2 -4 5 -3 7l-1 1l3 8c1 0 2 1 2 1c3 2 2 6 3 8
c1 3 0 6 0 9c0 2 0 3 2 5c1 1 1 1 1 2c0 2 -4 3 -6 4v1c0 3 -3 6 -4 8c-1 1 -2 1 -2 1l4 -8h-5c-2 -1 -3 -3 -1 -4c4 -3 -1 -5 -1 -7c1 -3 1 -7 1 -10c-1 -3 -4 -6 0 -9c0 -1 0 -1 -1 -1c-3 -4 -4 -9 -5 -13s-4 -10 -1 -13c1 -1 2 -2 3 -2l-1 -1c1 -2 -1 -4 -2 -6
c0 -2 0 -5 1 -8c1 -2 2 -4 2 -7s-3 -5 -4 -8c-3 -5 -2 -11 -3 -15c0 -7 -1 -13 2 -19c0 -1 5 -1 7 0v-1c-1 0 -1 0 0 -1v-8c0 -2 4 -5 2 -6v-1c0 -1 -1 -2 -2 -3l-5 -10c0 -4 1 -8 5 -10c1 -1 2 -1 4 -1c4 -2 -3 -8 -5 -11c-3 -5 -3 -10 4 -14c1 -1 8 -1 9 0c1 3 -1 6 -2 9
c0 2 0 5 1 7c1 3 2 7 -3 9c1 0 3 1 3 1c2 4 -2 9 -1 13c0 5 6 10 6 15c1 3 -3 6 -5 9zM166 231c1 4 2 7 2 11c-1 4 -4 6 -8 10v1c2 7 6 13 6 20c0 4 -1 7 -1 11c-1 3 0 7 -2 10c0 1 -3 1 -3 0c-1 -2 -2 -4 -2 -6c-1 2 -2 5 -4 7c-1 1 -7 1 -7 0c-2 -3 -2 -7 -2 -10l-3 -12
c-1 -6 -2 -12 1 -18c1 -2 3 -4 5 -6l-2 -4c-2 -8 -3 -15 -8 -23c-2 -2 -4 -5 -1 -7c2 -2 9 -2 13 -1c-1 0 -1 -1 -1 -2c-1 -2 -2 -3 -2 -5c-1 -4 2 -9 4 -14c0 0 5 -1 5 0c2 4 4 9 3 13c0 2 1 4 1 6s-1 4 -3 6c6 4 7 10 9 13zM140 311c-1 -1 -1 -3 0 -4c2 -3 2 -5 3 -8h5
c1 2 1 4 1 6c1 3 -2 5 0 8c3 4 5 6 -2 10c-1 0 -4 0 -4 -1c3 -2 5 -4 2 -6c-2 -2 -4 -3 -5 -5zM157 507c-1 -3 0 -5 2 -8c0 -1 4 -1 4 0c0 2 -1 5 -2 8c0 0 -4 1 -4 0zM144 344c0 1 -2 0 -2 0l2 -11c0 -1 1 -1 1 0c0 4 1 7 -1 11zM157 191c0 1 -1 1 -1 1h-1c1 0 1 -1 2 -1z
" />
    <glyph glyph-name="two" unicode="2" horiz-adv-x="415" 
d="M304 116c31 3 121 -11 80 -57c-32 -37 -110 -35 -153 -46c-53 -13 -80 -28 -132 -9c-56 20 -71 45 -55 100c29 102 73 210 111 306c17 44 28 91 49 134c27 54 59 96 54 159c-40 0 -139 -26 -167 15c-38 56 51 54 84 54c40 1 124 18 158 -6c54 -38 45 -120 26 -172
c-37 -100 -92 -194 -125 -296c-11 -33 -19 -67 -30 -100c-6 -20 -34 -72 -29 -92c14 -53 97 6 129 10zM190 376c-2 0 -3 -1 -3 -2s4 -3 5 -5v-1c-1 -3 0 -7 1 -10c0 0 1 -1 1 0c1 2 -1 6 -1 8c2 -1 4 -1 5 -1c3 0 3 1 2 3c-3 4 3 4 3 7c1 3 1 7 3 9c1 3 5 5 3 9c0 0 0 1 1 1
c4 3 7 7 9 10c2 4 7 8 5 12c0 1 -1 2 -2 3h1c0 2 3 3 4 5c1 3 2 5 2 8s0 5 1 7c1 3 4 5 7 7c4 4 5 9 7 13c3 6 6 11 5 18c0 1 -4 2 -6 3c1 0 2 0 1 1c1 3 2 5 2 8c1 1 -2 6 1 6v1l3 2c3 2 7 5 8 8s3 7 0 11c-1 1 -2 2 -4 2c-3 4 6 7 9 8c4 4 6 9 1 15c-1 2 -7 4 -8 3
c-3 -2 -1 -6 -2 -9l-3 -6c-2 -2 -5 -6 -1 -9h-3c-3 -3 -1 -9 -4 -13c-2 -4 -9 -7 -11 -11c-2 -3 1 -7 1 -10c0 -1 1 -1 1 -1l-1 -1c-4 -7 -16 -11 -14 -21c1 -1 6 -3 7 -3c5 3 5 7 9 10l4 3c-1 -3 -2 -7 -4 -10c-3 -6 -5 -12 -12 -15c-5 -3 -7 -7 -6 -13v-6c-1 1 -5 3 -5 2
c-3 -2 -1 -5 1 -9c2 -3 2 -6 1 -9c-2 0 -4 1 -5 1c-2 -1 -1 -3 -1 -4c1 -2 2 -6 0 -8h1c-2 -3 -4 -5 -5 -8c-2 1 -3 1 -3 1c-4 -2 -4 -5 -6 -7c-2 -3 -2 -6 -3 -9c0 -2 0 -3 -2 -4zM262 556c-1 -3 -3 -6 -3 -10c0 -1 3 -2 3 -1c1 1 3 2 4 4c0 -3 0 -5 1 -7c1 -1 6 -3 7 -3
c3 3 4 6 6 8l6 10c4 6 7 11 7 18c0 2 -1 4 -2 7c1 1 2 2 2 3c5 6 9 13 17 17c3 2 6 3 4 7c-2 2 -7 5 -11 5c0 1 1 1 1 2c2 1 3 2 4 4c3 3 2 9 2 14c0 1 -4 3 -4 2c-4 -3 -7 -6 -8 -10l-4 -5c-1 -2 0 -4 1 -7c-7 -1 -11 -6 -14 -9c-3 -2 -5 -5 -6 -9c-1 -3 1 -7 4 -12l-1 -1
c-5 -5 -11 -10 -13 -16c-2 -4 -3 -7 -3 -11zM276 526c-1 3 0 5 0 8c0 0 -4 2 -4 1c-2 -1 -3 -3 -4 -4c-1 -3 0 -6 -3 -8c-4 -2 -7 -4 -1 -9c1 -1 4 -2 3 -1c-2 3 -2 5 1 6s5 1 7 3c1 1 1 2 1 4zM188 354c-1 -3 0 -6 0 -9c0 -1 3 -2 3 -1c1 2 1 5 1 8c0 1 -4 2 -4 2zM260 492
l3 11s-1 1 -2 1l-3 -11c0 -1 2 -1 2 -1zM306 638c-1 1 -1 0 -1 0c1 0 1 -1 2 -1c0 0 0 1 -1 1zM218 426c-1 0 -1 1 -1 2v-1zM217 428c-1 0 -1 1 0 2v-2z" />
    <glyph glyph-name="three" unicode="3" horiz-adv-x="393" 
d="M178 797c115 22 223 -39 182 -166c-31 -93 -87 -180 -137 -260c60 -30 103 -46 123 -115c24 -83 -8 -126 -52 -188c-15 -21 -31 -48 -40 -63c-13 -23 -13 -34 -49 -40c-57 -10 -100 21 -136 59c-5 48 -63 102 -58 150c4 34 24 63 67 39c31 -18 16 -23 20 -56
c19 -156 159 -3 144 87c-12 72 -72 55 -125 83c-22 12 -33 9 -43 38c-16 46 8 30 36 57c64 63 122 202 140 287c-72 54 -105 -197 -201 -113c-37 32 -13 62 8 99c34 62 46 87 121 102zM318 658c1 0 2 1 2 2l-6 3v1c0 2 -3 4 -4 6h-1c0 -2 3 -3 3 -5h-5c-2 -1 -3 -1 -1 -3
c4 -2 -2 -2 -2 -4c1 -2 1 -5 0 -7s-4 -3 -1 -6l-1 -1c-4 -2 -6 -4 -7 -7c-2 -2 -6 -5 -3 -8l2 -2h-1c0 -2 -2 -2 -3 -3c-1 -2 -1 -4 -1 -6c1 -1 1 -3 0 -5c0 -1 -3 -2 -5 -4c-2 -1 -3 -2 -4 -4l-2 -4c-2 -3 -4 -7 -4 -11c1 -1 4 -3 7 -3c-1 0 -2 -1 -1 -1l-2 -5
c0 -1 3 -5 0 -5c-1 -1 -2 -1 -2 -1c-4 -1 -7 -2 -8 -4s-2 -5 1 -8c0 -1 2 -2 3 -2c3 -4 -5 -4 -8 -4c-4 -2 -6 -5 -1 -10c1 -2 7 -5 8 -4c3 1 1 4 2 5c0 2 2 3 3 4c1 2 4 4 0 7c1 -1 2 -1 3 -1c3 2 1 6 3 8c2 3 8 4 11 7c1 2 -1 5 -2 7c0 1 -1 1 -1 1c2 3 6 4 9 6s5 4 4 8
c-1 1 -7 3 -8 2c-4 -1 -4 -3 -7 -5l-4 -2c1 2 2 5 4 7l3 5c1 2 3 3 6 4c5 2 6 5 5 9l-2 6v1c1 -1 2 -2 1 -3c0 -1 5 -2 5 -2c3 2 0 4 -2 7c-3 2 -3 4 -3 7c2 -1 4 -1 6 -1s0 2 0 2c-1 2 -3 4 -2 6h-1l4 5h3c3 2 3 4 4 5s1 2 1 4v3c0 1 0 2 2 3zM266 536c0 2 2 4 2 7
c0 0 -2 1 -3 1l-4 -2c1 1 1 3 0 5c-1 1 -6 4 -7 4c-3 -1 -4 -3 -5 -4l-6 -6c-4 -3 -6 -6 -6 -10c0 -2 1 -4 2 -6c-1 0 -2 -1 -3 -1c-4 -3 -8 -7 -16 -8c-2 0 -5 0 -3 -3s7 -6 10 -8h-1l-4 -2c-2 -2 -1 -6 -1 -10l4 -3c3 1 6 3 7 6l3 3c1 0 1 2 0 4c6 -1 9 2 12 3s5 3 6 5
s-1 6 -3 9l1 1c4 2 10 4 12 8zM253 563c-1 0 -1 -1 -1 -2c1 -3 0 -4 0 -6l4 -2c2 1 3 2 3 3c2 1 0 3 3 4c4 1 6 1 1 7c-1 0 -4 1 -3 1c2 -3 2 -4 -1 -4c-2 0 -5 0 -6 -1zM308 680c-1 -2 0 -4 1 -6c1 0 5 -1 5 0c0 2 -2 4 -2 6h-4zM265 581c0 -3 -1 -5 -2 -7c0 -1 2 -1 2 -1
c1 2 2 4 2 7zM225 489c0 0 0 1 -1 1c0 0 0 -1 1 -1z" />
    <glyph glyph-name="four" unicode="4" horiz-adv-x="459" 
d="M393 146c3 -36 12 -73 14 -106c3 -75 -108 -74 -147 -28c-14 16 9 98 12 128c4 53 3 107 -3 161c-52 -19 -105 -61 -160 -66c-107 -9 -91 66 -72 136c3 9 4 26 8 42c11 37 16 76 22 115c12 74 27 154 15 229c31 18 82 40 110 1c18 -26 1 -83 1 -113
c0 -85 1 -215 -39 -289c27 -5 81 10 103 26c9 8 16 1 24 11c10 12 6 55 7 73c5 71 12 150 4 221c-5 34 -30 59 7 78c27 14 91 -3 104 -22c37 -50 7 -169 4 -225c-4 -80 -12 -160 -16 -240c-2 -44 -1 -88 2 -132zM345 256c1 6 1 12 -1 18c0 1 -5 1 -7 0v1c1 0 1 1 0 1v8
c-1 2 -4 5 -2 7c0 1 1 2 2 3c2 3 4 7 4 11c0 3 0 7 -4 10h-4c-4 3 3 9 5 11c3 5 3 10 -4 14c-1 1 -8 1 -9 0c-1 -3 2 -6 2 -9c0 -2 -1 -5 -1 -7c-1 -2 -2 -7 3 -9c-1 0 -3 0 -3 -1c-2 -4 2 -9 1 -13c-1 -5 -6 -10 -7 -15c0 -3 3 -6 5 -9h1v-1c-2 -8 -12 -17 -6 -25
c1 -1 7 -1 8 0c4 4 2 8 4 12l3 5v-12c-1 -5 -1 -12 -5 -18c-4 -5 -4 -9 -2 -14c2 -2 3 -5 4 -8c0 0 0 -1 1 -1c-2 1 -3 2 -3 4c0 1 -5 1 -5 0c-2 -3 1 -5 4 -8c4 -2 5 -5 5 -8c-2 -1 -4 -1 -5 -2c-2 -1 -1 -2 0 -3c2 -2 4 -5 3 -7l1 -1c-1 -3 -2 -6 -2 -8c-2 -1 -3 -1 -3 -1
c-3 -3 -2 -6 -3 -9s0 -6 1 -9c0 -2 0 -3 -2 -4c-1 -1 -1 -2 -1 -3c0 -2 4 -2 7 -3v-1c0 -3 3 -6 4 -9h2c-1 3 -4 5 -4 8c1 -1 4 -1 5 0c2 1 2 3 0 4c-4 2 1 5 1 7c-1 3 -2 7 -1 10c0 3 3 6 0 9h-1c0 1 1 1 1 1c3 5 4 9 5 14c1 3 4 9 0 13c-1 0 -1 1 -2 2c0 2 2 4 2 6
c0 3 0 5 -1 8c-1 2 -2 5 -2 7c0 3 3 6 4 9c3 4 2 10 2 15zM355 413c2 2 5 5 2 7s-9 2 -13 2c0 0 0 1 1 1c1 2 2 4 2 6c1 4 -2 9 -3 13c-1 1 -5 2 -5 1c-3 -4 -4 -8 -4 -12c0 -3 -1 -5 -1 -7c-1 -2 1 -4 2 -5c-6 -4 -7 -10 -9 -14c-2 -3 -3 -7 -2 -10c0 -4 4 -7 7 -10v-1
c-3 -7 -6 -14 -7 -21c0 -3 1 -7 1 -10c1 -4 0 -7 2 -11h3l3 7c0 -3 1 -6 3 -8c1 -1 7 -1 7 0c2 3 2 7 3 10c0 4 1 8 2 11c2 7 2 13 0 19c-1 2 -2 4 -4 6c0 1 0 2 1 4c2 7 4 15 9 22zM351 325c1 1 1 3 0 4c-2 3 -2 5 -3 8h-5c-1 -2 -1 -4 -1 -6c-1 -3 2 -5 0 -8
c-3 -4 -5 -6 2 -9c1 -1 4 0 3 0c-3 2 -4 4 -1 6c2 2 4 3 5 5zM338 129c0 2 -1 5 -2 8c-1 1 -5 1 -5 0c0 -3 2 -6 3 -8c0 -1 3 -1 3 0h1zM346 292h3c-1 4 -2 8 -2 12c0 0 -2 0 -2 -1c0 -3 0 -7 1 -11zM338 445l1 -1h1c-1 0 -1 1 -2 1z" />
    <glyph glyph-name="six" unicode="6" horiz-adv-x="426" 
d="M234 461c178 53 152 -201 123 -298c-14 -45 -45 -132 -91 -148c-54 -19 -115 -5 -169 3c-119 210 -20 459 93 650c14 24 41 73 67 87c31 17 92 8 104 -24c18 -47 -42 -72 -64 -107c-31 -49 -52 -107 -63 -163zM200 88c36 50 106 219 65 285c1 -6 -15 0 -7 4
c-87 -22 -125 -238 -58 -289zM156 476c1 -2 7 -5 9 -4c2 2 1 6 2 9c1 2 2 4 4 6c1 2 4 6 1 9h3c4 3 2 9 5 12c3 4 9 7 13 11c1 2 -1 7 -1 10v1c6 7 18 10 17 20c-1 2 -6 4 -7 3c-5 -1 -6 -5 -9 -8l-6 -3l6 10c4 5 7 11 14 14c5 2 8 6 8 12v10c1 -2 1 -3 1 -5
c-1 -1 3 -3 4 -2c3 1 2 5 0 9s-1 7 0 10c2 -1 4 -2 5 -2c3 0 2 2 2 4c-1 2 -1 6 0 7s0 1 0 1l6 7c1 -1 2 -1 3 -1c4 1 4 4 6 6c3 3 3 6 5 9c0 2 0 3 3 4c1 0 2 0 2 1c1 2 -3 4 -4 6c0 1 0 1 1 1c1 3 0 7 0 10c0 1 -2 1 -2 1c0 -3 1 -6 0 -9c-1 1 -3 2 -4 2c-3 0 -4 -1 -2 -3
c2 -4 -4 -4 -5 -7l-3 -9c-2 -2 -6 -4 -5 -8h1c-1 -1 -1 -1 -2 -1c-5 -2 -8 -6 -11 -9c-2 -3 -7 -7 -6 -12c0 -1 1 -2 1 -3h-1c0 -2 -3 -3 -4 -4c-2 -3 -3 -5 -3 -8c0 -2 -1 -5 -2 -7c-1 -3 -5 -4 -7 -6c-5 -3 -7 -8 -10 -12c-3 -5 -6 -11 -7 -17c0 -2 4 -4 6 -4
c-1 0 -2 -1 -1 -1l-3 -8c-1 -2 1 -6 -1 -7l-4 -2c-3 -2 -7 -4 -9 -7c-1 -3 -3 -7 0 -12c0 0 1 -1 3 -2c3 -4 -6 -6 -9 -8c-5 -2 -7 -8 -3 -14zM158 461c1 4 3 7 3 11c0 0 -2 1 -3 1l-5 -5c1 2 1 5 1 8c-1 1 -6 4 -7 3c-3 -2 -5 -5 -6 -8c-3 -3 -5 -7 -7 -10s-4 -6 -5 -9
c-2 -3 -2 -6 -2 -9s0 -5 2 -7l-3 -3l-7 -11c-2 -3 -5 -6 -9 -9c-3 -2 -6 -5 -3 -8c1 -2 8 -4 12 -4l-2 -2c-1 -1 -3 -3 -3 -5c-2 -4 0 -10 1 -14c0 -1 4 -2 5 -2c2 4 5 8 5 12c0 2 2 4 3 6s0 4 -1 6c6 2 9 8 12 11c3 2 5 5 6 9c1 3 -2 7 -4 12l1 1c4 5 10 10 13 16
c2 3 2 7 3 10zM146 493c1 -3 -1 -5 -1 -8c0 -1 4 -3 4 -2c2 1 3 3 4 5c2 2 1 5 4 7c4 2 7 3 2 10c-1 0 -4 1 -3 1c1 -4 2 -6 -2 -7c-3 0 -5 -1 -7 -2c-1 -1 -1 -2 -1 -4zM252 668c-2 -2 -2 -5 -2 -8c0 -1 4 -3 5 -2v8c0 1 -2 2 -3 2zM164 526c0 -4 -2 -7 -3 -11l1 -1
c2 4 4 7 5 11c0 1 -2 2 -3 1zM120 376c0 0 1 0 0 1h-1s-1 1 -1 0c1 0 1 0 2 -1z" />
    <glyph glyph-name="seven" unicode="7" horiz-adv-x="349" 
d="M350 717c13 -35 -8 -34 -24 -60c-20 -34 -31 -75 -45 -112c-39 -104 -57 -208 -79 -315c-8 -38 -27 -76 -31 -115c-3 -32 19 -78 -1 -101c-18 -21 -73 -15 -95 -5c-44 20 -47 47 -40 85c34 197 104 385 154 577c-45 0 -100 -7 -137 26c-38 35 -34 61 16 68
c49 6 92 -21 141 -16c24 2 69 15 89 10c16 -4 47 -26 52 -42zM208 372c1 0 2 1 2 2c1 1 -3 3 -5 5l1 1c0 3 -1 6 -2 10h-1c0 -3 1 -6 1 -8c-1 0 -4 1 -5 1c-2 -1 -3 -2 -1 -4c3 -3 -3 -3 -3 -6c-1 -3 -1 -7 -3 -10c-1 -2 -5 -5 -2 -8v-1h-1c-5 -3 -7 -8 -9 -11
c-2 -4 -6 -8 -4 -13l2 -2c-1 0 -1 0 -1 -1c0 -2 -3 -3 -4 -5s-2 -5 -1 -8c0 -2 0 -5 -1 -7c-1 -3 -4 -5 -6 -7c-4 -4 -5 -9 -7 -14s-4 -11 -4 -17c1 -2 5 -3 7 -3c-1 0 -2 -1 -1 -1c0 -3 -1 -6 -2 -8c0 -2 3 -6 0 -7h1l-3 -3c-4 -3 -7 -5 -8 -9c-1 -3 -2 -7 2 -11
c0 0 1 -1 3 -1c3 -4 -5 -7 -8 -9c-4 -4 -5 -9 0 -15c1 -1 8 -3 9 -2c2 2 0 6 1 9c0 2 1 4 3 6c1 3 3 6 -1 10c1 -1 3 -1 3 0c4 3 1 9 3 13s8 7 11 12c1 3 -2 7 -3 10v1c4 8 16 13 13 22c-1 2 -7 3 -8 2c-4 -2 -4 -6 -7 -9l-5 -4c2 3 3 7 4 11c3 5 4 11 11 15c5 4 6 8 5 13
c0 3 0 6 -1 9v2c1 -2 2 -4 1 -5c0 -1 4 -2 5 -2c3 2 0 6 -2 9s-2 7 -2 10c2 -1 4 -1 6 -1s1 2 0 4c0 2 -2 5 0 7l-1 1l5 7h3c3 2 3 5 5 7c2 3 2 6 3 9c0 2 0 3 2 4zM149 188c0 4 2 7 1 11c0 0 -2 1 -3 1l-4 -5c1 2 0 4 -1 7c0 1 -6 3 -7 2c-3 -3 -3 -6 -5 -9l-5 -10
c-3 -6 -6 -12 -5 -19c0 -2 1 -4 3 -6l-3 -3c-4 -7 -7 -14 -15 -20c-2 -2 -5 -4 -3 -7c2 -2 8 -4 12 -4c0 -1 0 -1 -1 -2s-3 -3 -3 -4c-2 -4 -1 -10 0 -14c0 -1 4 -3 5 -2c3 3 5 7 6 11c0 2 2 4 3 6s0 4 -1 6c6 2 9 8 12 11c2 3 4 6 5 9c1 4 -2 8 -5 12l1 1c4 6 9 11 11 18
c1 3 2 6 2 10zM133 222c-1 -2 -1 -3 -1 -5c1 -3 0 -5 1 -8c0 0 4 -2 4 -1c2 2 2 3 3 5c1 3 0 6 3 8c4 3 6 4 0 10c-1 0 -4 1 -3 0c2 -3 2 -5 -1 -6zM206 404c-2 -2 -1 -5 -1 -8c0 -1 4 -3 5 -2c0 3 -1 6 -1 9c0 1 -3 2 -3 1zM145 252l-2 -11s2 -1 2 0c1 3 2 7 2 11
c0 0 -2 1 -2 0zM115 102l-1 1h-1c1 0 1 -1 2 -1z" />
    <glyph glyph-name="eight" unicode="8" horiz-adv-x="470" 
d="M433 731c36 -113 -81 -195 -124 -285c-18 -39 -7 -45 15 -87c23 -47 59 -101 73 -150c15 -54 -6 -95 -17 -146c-7 -35 2 -74 -35 -97c-31 -19 -85 -12 -121 -15c-58 -8 -94 3 -141 41c-14 49 -46 91 -47 143c-2 49 22 121 46 163c19 34 64 76 74 113c9 38 -33 86 -44 125
c-29 105 3 187 88 248c71 51 203 44 233 -53zM268 62c26 39 37 102 23 146c-9 22 -26 53 -44 70c-24 21 -14 22 -35 9c-44 -28 -43 -133 -47 -180c1 -2 4 -17 2 -9c18 -58 56 -105 101 -36zM228 526c33 18 149 205 63 214c-32 4 -62 -51 -71 -76c-19 -49 -4 -89 8 -138z
M295 510c-2 4 3 3 4 5c2 2 3 5 5 6c2 2 6 2 5 7h1c5 1 8 3 12 5c2 2 7 4 6 9v2c1 2 4 2 5 3c1 2 3 3 4 6c0 2 1 4 2 6c2 2 5 2 7 4c5 1 7 6 10 8c4 5 7 8 7 14c1 2 -2 4 -4 5c1 0 1 0 -1 1c2 1 3 3 5 5c-1 2 -2 6 1 7c1 0 2 0 3 1c3 2 6 2 8 5c1 3 3 6 0 10c0 1 -1 1 -3 2
c-1 2 1 3 2 5c2 0 5 0 7 2c5 1 6 7 1 12c-1 1 -7 4 -8 3c-2 -2 -1 -4 -1 -7c-1 -2 -3 -4 -3 -5c-2 -1 -5 -4 -1 -7c-1 0 -3 0 -3 -1c-4 -1 -2 -6 -5 -10c-3 -2 -9 -3 -12 -6c-2 -3 0 -7 0 -10c-5 -5 -17 -5 -16 -14c0 -1 5 -4 7 -4c4 0 5 4 8 5c1 0 3 0 5 1
c-3 -2 -3 -5 -5 -7c-3 -3 -7 -8 -14 -9c-6 -1 -7 -4 -8 -8c0 -3 -1 -6 -1 -8v-2c-1 2 -2 4 -1 4c1 1 -2 4 -3 4c-3 -1 -3 -5 -1 -8c1 -3 1 -6 -1 -9l-5 4c-2 0 -1 -3 -1 -4c-1 -2 0 -5 -2 -6v-1l-6 -4c-1 1 -3 2 -3 2c-4 0 -4 -3 -6 -4c-3 -1 -4 -4 -5 -6c-1 -1 -1 -2 -4 -2
c-1 0 -2 0 -2 -1c-1 -1 2 -4 3 -6l-1 -1c-2 -2 -1 -5 -2 -8l2 -1c0 2 0 5 1 7l4 -3c2 -1 3 0 3 2zM378 652c1 -3 -2 -5 0 -9h2l4 2c0 -2 0 -4 1 -6c1 -1 6 -3 7 -2c3 2 4 5 5 7c2 4 4 6 7 9c2 6 5 11 3 18c0 2 -2 4 -4 5c1 2 2 3 2 4c1 1 1 2 1 3l1 2c1 2 1 4 2 5l2 7l3 6
c1 2 2 8 -1 9c-3 2 -9 -1 -13 -3c0 1 0 1 1 2v7c0 1 -1 1 -2 3l-4 4c-1 1 -1 1 -2 1s-3 1 -4 1l-3 -3c0 -2 0 -4 1 -6c0 -1 1 -1 1 -2s0 -1 1 -2s1 -2 1 -3v-3c0 -1 3 -2 4 -4c-3 -2 -3 -4 -5 -6c-1 -2 -2 -4 -2 -6c-1 -1 -2 -2 -2 -3c-1 -1 0 -3 0 -4c-1 -3 3 -6 6 -8
l-1 -2l-5 -7l-2 -4l-3 -3c0 -3 -1 -5 -2 -9zM394 624c-1 3 0 6 0 7s-4 3 -5 3l-3 -5c-1 -2 0 -4 -3 -5c-4 -2 -7 -3 -1 -9c0 0 3 -2 2 -1c-1 3 -1 5 2 5l6 2c2 0 2 2 2 3zM280 494c2 1 2 3 3 6c0 1 -4 4 -3 3c-2 -2 -2 -4 -3 -7c0 0 2 -3 3 -2zM377 597c0 3 2 6 2 9
c1 0 -1 1 -1 1c-1 -3 -3 -6 -3 -10c-1 0 1 -1 2 0zM165 105l2 -7c-1 3 -1 6 -2 7zM384 725v-1l1 1h-1z" />
    <glyph glyph-name="nine" unicode="9" horiz-adv-x="418" 
d="M352 755c68 -185 0 -409 -11 -601c-4 -60 10 -180 -78 -183c-18 -1 -79 26 -82 43c-4 16 30 76 34 93c6 21 40 114 19 133c-20 18 -79 0 -110 17c-86 50 -91 138 -92 228c-1 86 14 203 84 262c63 54 173 57 235 10c0 -1 1 -1 1 -2zM179 346c95 74 123 241 74 349
c0 -4 -12 1 -10 2c-56 -3 -82 -99 -86 -142c-8 -74 2 -137 22 -209zM317 336c1 3 1 6 -3 9c0 0 -2 1 -3 1c-4 2 4 6 6 8c3 3 4 7 -2 11c-2 1 -8 2 -9 1c-2 -2 0 -4 0 -7c0 -2 -1 -4 -1 -5c-1 -2 -3 -5 2 -7c-2 0 -3 -1 -3 -1c-3 -3 0 -7 -1 -10c-2 -4 -7 -7 -9 -11
c-1 -2 2 -5 4 -7v-1c-3 -7 -14 -11 -9 -19c0 -1 6 -1 7 -1c5 3 4 6 6 8l4 4c0 -3 -1 -6 -2 -9c-2 -5 -3 -10 -8 -13s-6 -6 -4 -11c0 -1 0 -3 1 -4c-1 1 -5 2 -6 1c-2 -2 1 -4 4 -7c2 -2 3 -5 3 -7h-6c-2 0 -1 -2 0 -3c1 -2 3 -4 1 -6c0 0 1 0 1 -1l-4 -6h-3
c-3 -1 -3 -3 -4 -5c-2 -2 -1 -5 -1 -7c-1 -2 0 -3 -3 -3c-1 -1 -1 -1 -1 -2s3 -3 5 -4v-1c-1 -2 2 -5 2 -8h2c0 2 -2 5 -2 7c1 -1 4 -1 4 -1c3 0 4 1 2 3c-4 2 2 3 2 5c0 3 0 5 1 8c1 2 5 4 2 7c4 3 6 6 8 9c1 3 5 7 3 10l-3 2c1 0 1 1 1 1c0 1 2 2 3 4s1 4 1 6
c-1 2 -1 4 -1 6c1 2 3 4 5 6c4 3 4 8 5 11c2 5 3 10 2 15c-1 1 -5 2 -7 1v1c1 0 1 0 0 1c1 2 1 4 1 6c0 1 -3 4 -1 5v1c1 0 2 1 2 2c3 2 6 4 6 7zM342 426c0 2 0 3 -1 4c-3 1 -9 1 -13 0v2l3 5c0 1 -1 3 -2 5l-4 5c0 1 -4 0 -5 0c-1 -4 -2 -7 -2 -11c1 -1 0 -3 -1 -5
c0 -1 2 -2 3 -4c-5 -3 -7 -7 -9 -10c-1 -3 -2 -6 -2 -9c0 -2 4 -5 7 -8c-3 -6 -7 -10 -8 -16v-8c0 -3 -1 -6 1 -9h3l3 5c0 -2 1 -4 2 -6c1 -1 7 -2 8 -1c2 2 2 5 3 7l4 10c1 4 3 10 1 15l-5 5l2 3c3 6 4 12 10 18c1 1 2 2 2 3zM330 351c1 1 1 2 0 4c-2 2 -1 4 -2 6
c0 1 -4 1 -5 0l-2 -4c0 -2 2 -4 -1 -6c-3 -3 -6 -4 2 -8c0 0 3 -1 3 0c-3 2 -4 4 -1 5zM281 202c2 1 1 4 0 6c0 1 -4 2 -4 2c0 -2 1 -5 1 -7c0 -1 3 -2 3 -1zM321 326c0 -1 2 -1 2 -1v10h-2c0 -3 -1 -6 0 -9zM293 272c0 -1 0 -1 1 -2v-2c-1 2 -2 3 -1 4z" />
    <glyph glyph-name="five" unicode="5" horiz-adv-x="418" 
d="M415 722c60 -81 -95 -44 -117 -39c-59 11 -118 0 -126 -60c-4 -29 -25 -184 -6 -201c12 -11 64 -3 80 -6c28 -4 59 -13 82 -30c44 -31 58 -95 55 -146c-7 -162 -155 -206 -289 -238c-36 24 -90 63 -25 89c27 10 62 -1 93 17c19 11 40 27 53 45c25 34 75 150 27 187
c-33 25 -107 -33 -149 -27c-29 4 -41 12 -60 34c-25 29 -20 18 -10 51c6 19 26 27 33 53c8 30 7 70 10 102c2 37 5 76 1 113c-1 15 -13 20 -11 36c8 90 95 49 161 52c45 3 166 11 198 -32zM265 146c-3 0 -3 -2 -5 -2c-2 -1 -2 -3 -4 -5c0 0 0 -1 -2 -1s-2 1 -3 0
c0 -1 3 -4 4 -6h-1c-1 -2 0 -5 -1 -7c0 -1 1 -1 1 -1c1 1 0 4 1 6l4 -4c2 -1 3 0 2 2c-2 4 3 1 4 3l3 5c2 1 6 1 4 4v1h1c4 0 7 2 10 3c2 2 7 3 5 7c0 1 -1 2 -1 3l4 2c2 1 3 3 3 5s0 3 1 5l6 3c4 1 5 5 7 8c2 1 3 3 4 5s1 4 1 6c0 1 -4 3 -6 4c1 2 2 4 2 6c1 1 -2 4 0 4
l3 2c3 1 6 2 7 5c1 2 2 4 -1 7c-1 1 -2 2 -4 2c-3 3 5 4 7 5c4 2 5 6 0 11c-1 0 -3 1 -5 1c1 0 2 0 2 1l4 3c-1 -2 0 -4 1 -6c1 0 7 -2 7 -1c3 1 3 3 4 5c2 3 4 5 5 8l3 6c0 3 0 5 -1 7l-4 5c1 1 1 2 2 2c3 6 4 11 10 17c2 2 4 4 1 6c-2 1 -9 1 -13 0l1 1c1 2 2 3 2 5
c0 1 -1 3 -2 5c0 1 -1 1 -2 2c0 1 -1 1 -2 2c0 0 -4 0 -5 -1c0 -1 -1 -3 -1 -5c-1 -1 -1 -2 0 -4c0 -1 -1 -3 -1 -4s1 -2 3 -4c-6 -2 -7 -6 -9 -8c-2 -3 -3 -5 -3 -7s4 -4 7 -7v-1c-4 -4 -8 -7 -9 -12c-1 -2 -1 -4 -1 -7c0 -2 -1 -4 0 -7c0 0 0 -1 1 -1c-2 1 -4 1 -4 1
c-2 -2 0 -4 0 -6l-3 -4c-1 -2 -3 -4 1 -7c-1 1 -2 1 -3 1c-3 -2 0 -6 -2 -8c-2 -3 -8 -4 -10 -7c-2 -1 1 -5 2 -7v-1c-2 -2 -6 -3 -9 -5c-3 -1 -5 -3 -3 -7c0 -1 5 -3 6 -3c5 1 5 3 8 5c1 0 3 1 4 2c-1 -3 -2 -5 -4 -7c-2 -3 -4 -7 -10 -8s-7 -3 -7 -7c1 -2 0 -4 1 -6v-1
c-1 1 -2 3 -1 3c0 1 -4 3 -5 3c-2 0 0 -3 2 -6c1 -3 1 -6 0 -7c-2 1 -4 2 -5 2c-2 1 -1 -1 -1 -2c1 -2 1 -5 0 -5v-1l-5 -3zM334 219c1 0 1 1 0 3s0 3 -1 5c0 1 -4 2 -4 2c-2 -1 -2 -2 -3 -4c-1 -1 1 -3 -2 -5c-4 -1 -6 -2 0 -7c1 0 4 -1 3 0c-2 2 -3 4 1 4c2 0 4 1 6 2z
M248 116c2 1 3 3 3 5c0 1 -3 4 -3 4l-2 -6zM323 198c0 3 1 5 1 8c0 0 -1 1 -1 0l-3 -7z" />
    <glyph glyph-name="period" unicode="." horiz-adv-x="294" 
d="M153 130c60 -10 116 -69 87 -131c-20 -42 -62 -47 -102 -35c-61 18 -76 62 -95 117v1c8 32 85 52 110 48zM128 78c0 0 -1 0 1 1c1 0 2 1 1 1h-6l-1 1c0 1 -2 1 -3 1h-1v1c-2 2 -4 3 -5 5l2 -2c0 1 -1 2 -1 2v6c0 1 1 1 0 2v-1c-1 2 -4 3 -5 1h-3c-1 -1 0 -2 1 -4
c-3 1 -5 2 -7 1c-1 0 -3 0 -4 -1h-1c-1 0 -1 0 -1 -1h-1c0 -1 -1 -1 -1 -2s3 -4 6 -6h-1c-3 -2 -7 -3 -8 -6c-1 -1 -1 -3 -1 -4c1 -2 -1 -3 0 -5h-2c-2 -1 1 -2 1 -4c0 -1 -1 -2 -1 -3c-1 0 -3 -2 2 -3c-1 0 -2 0 -3 -1c-1 0 -1 -1 0 -2v-1c1 0 1 0 1 -1v-2
c0 -1 -1 -3 -2 -5c-2 -2 -2 -4 -2 -6c0 -1 2 -2 3 -3c1 0 2 -1 3 -1s2 0 3 -1h1l6 -6l4 -3c1 0 2 -1 3 -1h1v-1h6c1 0 3 0 4 1c2 1 4 2 4 4c0 1 -3 6 -4 6c-2 1 -3 1 -5 1h-4c-1 1 -1 1 -2 1v1h-1c0 1 -1 1 -1 2c2 -1 5 0 7 0h2l1 1h1s1 1 1 0h1v1c1 1 2 2 3 2l2 2s1 0 2 1
c5 3 5 6 2 8l-3 3c-1 0 -1 0 -1 1c2 -1 3 -1 3 -2c0 0 4 0 5 1c2 1 -2 2 -5 2c-3 1 -4 2 -5 3c2 0 5 1 6 1c2 1 0 1 -1 2c-1 0 -4 1 -3 2h-1c1 1 2 2 2 3c2 0 2 1 3 1c3 1 2 2 2 3c1 1 0 2 0 3zM106 49h-1c0 -1 -3 -4 -4 -6l-3 3s-1 0 -2 1c-1 0 -1 0 -1 1l2 2c2 2 4 3 4 4
s0 3 -4 4h-4c-4 1 4 3 6 4c3 1 3 3 -3 5c-1 0 -2 0 -4 1h1l3 2c0 -1 1 -2 3 -3c0 -1 6 -1 7 -1c2 1 2 2 3 2l3 3c2 2 4 3 2 5l-3 3l1 1c1 0 2 0 2 1h1l1 -1c-1 -1 -1 -1 1 -1h1c2 -1 -3 -2 -2 -2c1 -1 1 -2 1 -4c0 -1 -3 -2 1 -3h-1c-3 -2 -4 -4 -5 -6c0 0 -1 -1 -1 -2
c-1 1 -1 1 -1 2c-1 0 -5 1 -5 1c-1 -1 -2 -1 -2 -2c-1 -1 1 -2 -1 -3c-3 -1 -5 -2 3 -3h3c-3 1 -4 2 -1 2c2 1 3 1 4 1h2s1 0 2 -1h-1c0 -1 -1 -2 -1 -2c-1 -1 -1 -2 0 -3l2 -2c0 -2 -3 -3 -4 -3h-2v-1c0 1 -1 2 0 2h-2c0 -1 0 -1 -1 -1v1h-1zM105 54c0 0 0 -1 1 -2l3 1
c-1 0 -2 1 -2 2zM92 68h-3h1h2z" />
    <glyph glyph-name="z" unicode="z" horiz-adv-x="422" 
d="M350 95c53 -32 46 -40 2 -77c-11 8 -76 5 -89 3c-40 -6 -77 -34 -116 -44c-32 -8 -62 -9 -86 17c-21 24 -16 36 -18 65c-1 16 -11 22 -9 41c1 13 13 30 17 42c13 44 23 89 36 133c29 91 66 177 95 269c12 39 26 75 41 113c23 56 19 45 -40 53c-24 3 -169 13 -153 60
c17 48 154 0 188 1s61 17 91 22c37 6 70 -17 105 -23c8 -47 -55 -80 -74 -119c-23 -50 -39 -104 -59 -155c-39 -99 -70 -202 -104 -304c-6 -17 -38 -89 -28 -108c17 -30 79 -3 103 6c47 17 51 32 98 5zM161 334c-1 -1 -2 -1 -2 -2c0 -2 3 -4 5 -6v-1c-1 -3 1 -7 1 -10
c0 0 1 -1 1 0c1 3 -1 6 -1 9c1 -1 4 -2 5 -2c3 1 3 2 2 4c-3 4 3 4 3 7c0 4 1 7 2 10c2 3 6 5 3 9v1s1 0 1 1c5 3 7 7 10 11c2 3 6 8 4 13c0 1 -1 2 -1 3l4 5c1 3 2 5 2 8s0 6 1 8c1 3 4 5 6 7c4 4 6 10 8 14c2 6 5 12 5 19c0 1 -5 3 -7 3c1 0 2 1 1 1l2 9c0 1 -2 5 0 7
c1 1 2 2 3 2c4 3 7 6 8 10c1 3 2 7 -1 11c0 1 -2 1 -3 2c-3 4 5 7 8 9c4 4 6 10 1 16c-1 1 -8 3 -9 2c-2 -3 0 -6 -1 -9l-3 -7c-2 -3 -4 -7 0 -10h-3c-4 -3 -2 -9 -3 -13c-3 -5 -9 -8 -12 -13c-1 -3 1 -7 2 -10v-2c-4 -8 -16 -13 -13 -23c0 -1 6 -3 7 -2c5 3 5 7 8 10l5 4
c-2 -4 -3 -8 -5 -11c-3 -6 -5 -12 -11 -17c-6 -3 -7 -7 -6 -13v-6c0 1 -5 2 -5 2c-3 -2 -1 -6 1 -9c3 -4 2 -7 2 -10h-6c-2 0 -1 -2 -1 -4c1 -2 2 -6 1 -7v-1c-1 -3 -3 -6 -5 -8h-3c-3 -2 -3 -5 -5 -7c-2 -3 -2 -7 -3 -10c-1 -2 0 -3 -3 -4zM228 526c0 -3 -2 -7 -2 -11
c1 0 3 -1 3 -1l4 5c0 -3 0 -5 2 -7c0 -2 6 -3 7 -2c2 2 3 6 5 9l6 11c3 6 6 12 5 19c0 2 -1 4 -3 7l3 3c4 8 7 15 15 21c2 2 5 5 3 8c-2 2 -8 4 -12 4c0 1 0 1 1 2s3 3 3 5c2 4 1 10 0 15c-1 1 -5 2 -5 1c-3 -4 -6 -8 -6 -12c0 -2 -2 -4 -3 -6s0 -4 1 -7
c-6 -2 -9 -8 -12 -11l-5 -10c-1 -4 2 -8 5 -12l-1 -1c-4 -6 -10 -12 -12 -19zM243 491c1 1 2 3 1 4c-1 4 0 6 0 9c0 1 -4 2 -5 1l-3 -5c-1 -3 0 -6 -3 -8c-4 -3 -6 -5 0 -10c1 -1 4 -2 3 -1c-2 3 -2 5 1 7zM164 300c1 2 1 5 0 8c0 1 -4 3 -4 2c-1 -3 0 -6 0 -9
c0 -1 3 -2 3 -1h1zM230 459c0 4 1 8 2 12h-1c-2 -4 -3 -7 -3 -11c0 -1 2 -2 2 -1zM188 389c-1 1 -1 2 0 3v-3zM262 617c1 0 1 -1 2 -1c0 1 0 1 -2 1z" />
    <glyph glyph-name="quotedbl" unicode="&#x22;" horiz-adv-x="334" 
d="M83 530c62 -2 61 116 73 159c15 50 28 103 -47 116c-69 13 -45 -41 -47 -85c-4 -55 -71 -172 21 -190zM210 736c39 12 22 106 88 64c52 -33 15 -120 4 -164c-12 -45 -62 -168 -109 -68c-19 42 47 141 17 168z" />
    <glyph glyph-name="quotesingle" unicode="'" horiz-adv-x="191" 
d="M15 740c18 60 47 73 106 43c69 -36 38 -95 23 -155c-10 -41 -59 -141 -106 -58c-34 62 68 129 -23 170z" />
    <glyph glyph-name="comma" unicode="," horiz-adv-x="253" 
d="M212 109c-16 -10 -20 -74 -25 -94c-7 -24 -1 -76 -15 -96c-20 -28 -52 -13 -63 15c-12 29 13 59 0 81c-4 6 -27 4 -35 10c-14 9 -29 30 -34 45c-10 32 9 99 38 118c47 31 129 -26 134 -79z" />
    <glyph glyph-name="A" unicode="A" horiz-adv-x="359" 
d="M343 16v-3c-26 -20 -60 -33 -83 -16c-9 6 -18 45 -18 69c1 29 -5 55 -12 82c-24 -13 -48 -18 -72 -30c-39 -19 -21 8 -29 -37c-5 -31 3 -62 -14 -85c-24 -32 -59 -22 -79 3c-26 31 -20 76 -18 114c7 115 43 229 67 342c18 89 36 178 63 264c12 37 18 61 60 72
c35 9 74 1 85 -36c2 -7 -14 -56 -15 -64c-1 -23 3 -47 5 -70c3 -50 1 -101 4 -151c4 -72 -1 -106 9 -177c6 -41 18 -110 20 -152c3 -43 25 -85 27 -125zM149 222c91 0 79 48 76 125c-2 70 8 157 -17 223c-22 -15 -27 -129 -33 -157c-12 -63 -22 -127 -26 -191zM122 308
c1 2 4 5 0 7c-2 1 -9 1 -12 0v1c1 2 2 4 2 5c0 2 -1 4 -2 6s-3 4 -5 5c0 1 -4 0 -4 -1c-2 -4 -2 -7 -1 -10c0 -2 -1 -4 -1 -5c0 -2 2 -3 3 -4c-6 -4 -7 -8 -9 -11c-2 -2 -3 -5 -3 -8s4 -5 7 -8v-1c-3 -5 -7 -10 -8 -15c-1 -3 0 -6 0 -8c0 -3 -1 -6 0 -9c0 0 0 -1 1 -1h-4
c-2 -2 1 -5 1 -7l-2 -6c-1 -1 -3 -5 2 -7h-3c-3 -3 0 -7 -1 -10c-1 -4 -7 -7 -9 -11c-1 -2 3 -5 4 -7c0 -1 0 -1 1 -1l-1 -1c-3 -6 -14 -11 -9 -18c1 -1 7 -2 8 -1c4 2 3 5 6 8l4 4l-3 -9c-2 -5 -2 -10 -8 -13c-5 -3 -6 -7 -4 -11l3 -7v-1c-1 1 -2 3 -2 4c0 0 -4 1 -5 1
c-2 -2 0 -5 3 -7c3 -3 4 -5 3 -8c-2 1 -4 1 -5 0c-2 0 -1 -2 0 -2c1 -2 3 -5 1 -6c0 -1 1 -1 1 -1c-1 -2 -2 -4 -4 -6h-3c-3 -2 -2 -4 -4 -6c-1 -2 -1 -5 -1 -7s0 -3 -2 -4c-1 0 -2 -1 -2 -1c0 -2 4 -3 6 -4v-1c0 -3 2 -5 3 -8h1c0 2 -2 5 -2 7c1 -1 4 -1 5 -1c2 1 3 1 1 3
c-4 3 2 3 2 5c0 3 0 6 1 8c0 2 4 4 1 7h-1l2 1c3 3 5 6 7 9c1 3 5 7 2 10c0 1 -1 2 -2 2c1 0 1 0 1 1s2 2 2 4c1 2 2 4 1 6c0 2 -1 4 0 6c0 2 3 4 5 6c3 3 3 7 4 11c2 5 3 10 2 15c0 1 -5 1 -7 1c1 1 1 1 0 1c1 2 1 5 1 7c0 1 -3 4 -1 5l2 2c3 3 6 5 7 8c0 3 0 6 -3 9
c-1 0 -2 0 -4 1c-4 2 4 6 6 7c4 4 4 8 -2 12c-1 0 -2 1 -4 1l1 1l3 4c0 -2 1 -5 3 -6c1 -1 6 -1 7 0c2 2 3 4 4 7l3 9c2 5 4 10 2 15c-1 0 -1 1 -1 1v1h-1l-2 3c0 1 1 2 1 3c3 6 5 12 11 19zM110 236c1 1 1 2 0 3c-1 2 -1 4 -1 6c-1 1 -5 2 -5 1c-1 -1 -2 -3 -2 -4
c-1 -2 1 -5 -2 -6c-3 -3 -5 -5 2 -8c0 -1 4 -1 3 0c-3 2 -4 3 0 5c2 1 4 1 5 3zM65 85c1 2 0 5 -1 7c0 1 -4 2 -4 1c0 -2 1 -5 1 -7c1 0 4 -1 4 -1zM101 210h2v9c0 1 -1 1 -2 1c0 -3 -1 -6 0 -10zM99 332h2s0 1 -2 0z" />
    <glyph glyph-name="B" unicode="B" horiz-adv-x="378" 
d="M301 372c28 -41 42 -82 48 -131c10 -89 -6 -164 -78 -220c-69 -53 -144 -27 -222 -3c-1 0 -1 0 -1 1c-36 44 -16 71 -13 125c2 47 -2 94 -2 141c-1 104 4 208 4 312c-1 87 -28 191 72 218c80 22 190 5 230 -75c38 -76 35 -190 -8 -263c-11 -20 -49 -41 -52 -62
c-6 -33 3 -15 22 -43zM257 572c16 52 15 132 -25 173c-63 65 -97 -16 -100 -75c-4 -80 -5 -159 -5 -239c59 -17 118 98 130 141zM181 72c64 40 78 105 67 175c-4 26 -6 64 -29 79c-15 9 -75 6 -88 -9c-28 -32 -12 -126 -7 -166c0 -1 1 -1 1 -2c15 2 -29 -131 56 -77zM90 384
l-1 1c2 10 12 19 6 28c-1 1 -6 1 -7 0c-4 -4 -3 -9 -5 -13l-3 -6c0 5 0 9 1 13c1 7 0 14 5 21c4 5 4 10 2 15c-1 3 -2 7 -4 10c1 -1 2 -2 2 -3s5 -1 5 0c2 3 -1 6 -4 8c-4 3 -5 7 -5 10c2 0 4 1 6 1c2 2 0 3 -1 5s-4 5 -3 7c0 1 0 1 -1 1l3 10c1 0 2 0 3 1c3 3 2 6 3 9
c1 4 -1 7 -1 11c0 2 0 3 1 5c1 1 2 2 2 3c-1 2 -5 2 -7 4v1c0 3 -3 6 -4 10h-2c1 -3 4 -6 4 -9h-5c-2 -2 -2 -3 0 -5c4 -3 -1 -5 -1 -8c1 -4 1 -8 1 -11c0 -4 -3 -7 0 -10c0 -1 0 -1 1 -1c-1 0 -1 -1 -1 -1c-4 -5 -5 -10 -6 -15c0 -4 -3 -10 0 -14l3 -3h-1c1 -2 -1 -5 -2 -7
c0 -3 0 -6 1 -9s2 -5 2 -8s-3 -6 -4 -9c-3 -6 -2 -12 -3 -18c0 -6 -1 -14 1 -20c1 -1 4 -2 6 -2c0 0 0 -1 1 -1c0 -3 0 -6 1 -9c0 -2 4 -5 2 -7c-1 -2 -2 -3 -2 -4c-3 -4 -5 -8 -5 -12c0 -3 0 -8 4 -11c1 -1 3 -1 4 -1c4 -3 -3 -9 -5 -12c-3 -5 -3 -12 4 -16c2 -1 8 -2 9 0
c2 3 -1 7 -1 10c-1 3 0 5 0 8c1 3 2 8 -3 10c2 0 3 1 3 1c3 5 -1 10 -1 15c1 5 6 11 7 17c1 3 -3 6 -5 10zM90 240c1 4 2 8 2 12c-1 4 -4 7 -8 11v1c2 8 6 15 6 23c0 4 0 8 -1 12s0 8 -2 12h-3c-1 -3 -2 -5 -2 -8c-1 3 -1 6 -4 9c0 1 -6 1 -7 0c-2 -4 -2 -8 -2 -11l-3 -13
c-1 -8 -2 -15 1 -22c1 -2 3 -4 5 -6l-2 -4c-2 -9 -3 -18 -8 -27c-2 -2 -4 -6 -1 -8s9 -2 13 -1c0 0 0 -1 -1 -2c-1 -2 -2 -4 -2 -6c0 -5 3 -11 5 -15c0 -1 5 -1 5 0c2 4 3 9 2 14c0 2 1 5 1 7c1 2 -1 4 -3 6c6 5 7 11 9 16zM64 330c-1 -1 0 -3 1 -5l2 -8c0 -1 5 -1 5 0
c1 2 1 4 1 6c1 3 -1 6 1 9c3 5 5 7 -3 11c-1 0 -4 0 -3 -1c3 -2 4 -4 1 -7c-2 -1 -4 -3 -5 -5zM79 552c0 -3 1 -6 2 -9c1 -1 5 -1 5 0c0 3 -2 6 -3 9c0 1 -4 1 -4 0zM69 367c0 1 -2 1 -2 0c1 -4 1 -8 1 -13h2c0 5 0 9 -1 13zM82 194c0 0 1 1 0 1h-2c1 0 1 -1 2 -1z" />
    <glyph glyph-name="C" unicode="C" horiz-adv-x="422" 
d="M391 287c11 -54 -41 -138 -47 -194c-6 -59 -12 -64 -65 -88c-55 -24 -117 -46 -173 -7c-80 55 -45 206 -55 291c-16 125 -16 295 23 416c42 129 185 165 287 79c0 0 1 -1 2 -1c2 -63 58 -309 -40 -303c-81 5 -61 61 -58 113c2 37 8 154 -48 148c-88 -9 -51 -238 -56 -298
c-4 -64 -12 -116 -3 -180c7 -56 -11 -125 30 -170c89 -96 102 143 113 187c6 24 5 39 28 46c26 9 57 -17 62 -39zM109 250c1 5 2 11 -1 16c0 1 -4 1 -7 0v1c1 0 2 0 0 1c1 2 1 4 0 6c0 2 -4 5 -2 6c1 1 2 2 2 3c3 3 5 6 5 9c1 2 0 6 -4 8c0 1 -2 1 -4 1c-4 2 4 7 5 9
c4 4 4 9 -3 12c-1 1 -8 1 -9 0c-2 -3 1 -5 1 -7s0 -5 -1 -7c0 -2 -2 -5 3 -7c-1 0 -2 0 -3 -1c-2 -3 2 -7 1 -11s-6 -8 -7 -13c-1 -2 3 -5 5 -7v-1c-2 -7 -12 -14 -6 -21c1 -1 7 -1 8 0c3 3 2 6 4 10l4 4c-1 -3 -1 -7 -1 -10c-1 -5 -1 -10 -6 -15c-4 -4 -4 -8 -2 -12
c2 -2 3 -5 4 -7l1 -1c-2 1 -3 2 -3 3s-5 1 -5 0c-2 -2 1 -4 4 -6c4 -2 5 -5 5 -8c-2 0 -4 0 -5 -1c-3 -1 -1 -2 0 -3c2 -1 4 -4 3 -6h1l-3 -8h-2c-3 -3 -2 -5 -3 -7c-1 -3 0 -6 1 -8c0 -2 0 -3 -1 -4s-2 -2 -2 -3c1 -1 5 -2 7 -2v-1c0 -3 3 -5 5 -8c0 0 1 0 1 1l-4 6h5
c2 2 2 3 0 4c-4 2 1 4 1 6c-1 3 -2 6 -1 8c0 3 3 6 -1 8l1 1c3 4 4 8 5 11c1 4 4 8 0 12c-1 0 -1 1 -2 1v1c0 1 2 3 2 5s1 4 -1 6c-1 2 -1 4 -1 6c0 3 2 5 4 8c2 4 2 8 2 12zM121 385c2 1 4 4 1 6c-3 1 -9 1 -13 0c0 1 0 1 1 2l2 5c0 3 -3 8 -5 11c0 1 -5 1 -5 0
c-2 -3 -3 -7 -2 -11c0 -1 -1 -3 -2 -5c0 -2 2 -3 3 -5c-5 -3 -6 -8 -8 -11s-3 -6 -2 -9c0 -3 4 -6 7 -8v-1c-2 -6 -6 -12 -7 -17c0 -3 1 -6 1 -9c1 -3 0 -6 2 -9c0 -1 3 -1 3 0l3 5c0 -2 1 -4 3 -6c1 -1 6 -1 7 0c2 3 2 5 3 8c0 3 1 7 2 10c2 5 3 11 0 16l-4 5c0 1 0 2 1 3
c2 6 3 13 9 20zM117 309c1 1 0 2 -1 4l-2 6c0 1 -5 1 -5 0l-2 -5c0 -2 2 -4 0 -6c-3 -4 -5 -6 3 -9c0 0 3 0 3 1c-3 2 -4 3 -1 5c2 1 4 2 5 4zM102 143c0 2 -1 4 -2 6c-1 1 -5 1 -5 0c0 -2 2 -5 3 -7c1 0 4 0 4 1zM111 281h2c0 3 -1 7 -1 10h-2c0 -3 0 -7 1 -10z" />
    <glyph glyph-name="D" unicode="D" horiz-adv-x="400" 
d="M207 769c225 10 190 -228 159 -377c-19 -90 -35 -172 -82 -252c-22 -40 -49 -79 -74 -117c2 4 -52 -77 -60 -41c-112 -20 -99 50 -102 135c-4 98 -9 195 -10 293c-2 107 -2 213 2 320c1 35 -8 58 48 57c17 0 26 -10 41 -14c35 -9 43 -6 78 -4zM299 626
c11 67 -50 70 -95 63c-66 -10 -60 -23 -61 -87c-1 -110 6 -217 6 -325c0 -27 -13 -113 15 -116c18 -2 73 139 77 152c30 97 50 212 58 313zM103 461c-1 0 -1 0 -1 1c2 9 11 17 6 25c-1 1 -7 1 -8 0c-4 -4 -2 -8 -4 -12c-1 -2 -3 -3 -4 -4c1 3 1 7 1 11c1 6 1 12 5 18
c5 5 5 9 2 14l-3 8c0 -1 1 -2 1 -3s5 -1 6 0c1 3 -2 5 -5 8c-3 2 -4 5 -4 8c2 0 4 1 5 2c2 1 1 2 0 3c-2 2 -4 5 -3 7c0 0 0 1 -1 1l3 8c1 0 2 1 2 1c3 2 2 6 3 8c2 3 0 6 0 9c0 2 0 3 2 5c1 1 1 1 1 2c0 2 -4 3 -6 4v1c0 3 -3 6 -4 8c0 1 -2 1 -2 1l4 -8h-5
c-2 -1 -3 -3 0 -4c3 -3 -2 -5 -2 -7c1 -3 1 -7 1 -10c-1 -3 -4 -6 0 -9c0 -1 0 -1 -1 -1c-3 -4 -4 -9 -5 -13s-4 -10 -1 -13c1 -1 2 -2 3 -2c0 -1 -1 -1 -1 -1c1 -2 -1 -4 -1 -6c-1 -2 -1 -5 0 -8c1 -2 2 -4 2 -7s-3 -5 -4 -8c-3 -5 -2 -11 -2 -15c-1 -7 -2 -13 1 -19
c0 -1 5 -1 7 0v-1c-1 0 -1 0 0 -1v-8c0 -2 4 -5 2 -6v-1c0 -1 -1 -2 -2 -3c-2 -3 -4 -7 -4 -10c0 -4 0 -8 4 -10c1 -1 2 -1 4 -1c4 -2 -3 -8 -5 -11c-3 -5 -3 -10 4 -14c1 -1 8 -1 9 0c2 3 -1 6 -2 9c0 2 1 5 1 7c1 3 2 7 -3 9c1 0 3 1 3 1c2 4 -2 9 -1 13c1 5 6 10 7 15
c0 3 -4 6 -5 9zM103 333c1 4 2 7 2 11c-1 4 -4 6 -8 10v1c2 7 6 13 6 20c0 4 0 7 -1 11c-1 3 0 7 -2 10c0 1 -3 1 -3 0c-1 -2 -2 -4 -2 -6c-1 2 -2 5 -4 7c-1 1 -6 1 -7 0c-2 -3 -2 -7 -2 -10l-3 -12c-1 -6 -2 -12 1 -18c1 -2 3 -4 5 -6l-2 -4c-2 -8 -3 -15 -8 -23
c-2 -2 -4 -5 -1 -7c2 -2 9 -2 13 -1c-1 0 -1 -1 -1 -2c-1 -2 -2 -3 -2 -5c-1 -4 2 -9 4 -14c1 0 5 -1 5 0c2 4 4 9 3 13c0 2 1 4 1 6s-1 4 -3 6c6 4 7 10 9 13zM77 413c-1 -1 -1 -3 0 -4c2 -3 2 -5 3 -8h5c1 2 1 4 1 6c1 3 -2 5 0 8c3 4 5 6 -2 10c-1 0 -4 0 -3 -1
c2 -2 4 -4 1 -6c-2 -2 -4 -3 -5 -5zM94 609c-1 -3 1 -5 2 -8c0 -1 5 -1 4 0c0 2 -1 5 -2 8c0 0 -3 1 -4 0zM82 446c-1 1 -3 0 -3 0c1 -4 2 -8 2 -11c0 -1 2 -1 2 0c0 4 0 7 -1 11zM94 293c0 1 -1 1 -1 1h-1c1 0 1 -1 2 -1zM97 522c-1 0 -1 1 -1 1c0 -1 0 -1 1 -1z" />
    <glyph glyph-name="E" unicode="E" horiz-adv-x="319" 
d="M291 782c67 -103 -120 -21 -144 -79c-17 -42 -17 -241 15 -258c21 -11 134 27 129 -36c-4 -49 -84 -26 -112 -35c-81 -27 -33 -209 -37 -281c20 3 159 33 132 -38c-5 -13 -138 -49 -160 -51c-136 -14 -76 201 -74 277c5 141 -7 284 -5 424c0 51 -4 86 58 97
c66 13 136 6 198 -20zM93 326c0 7 1 14 -2 21c0 1 -4 1 -6 1c1 0 1 1 0 1c0 3 0 6 -1 10c0 2 -4 5 -2 7c1 1 2 3 2 4c3 4 5 7 5 12c0 3 0 8 -4 11c-1 1 -3 1 -4 1c-4 3 3 9 5 12c3 5 3 12 -4 16c-2 1 -8 1 -9 0c-2 -3 1 -7 1 -10c1 -3 0 -5 0 -8c-1 -3 -2 -8 3 -10
c-2 0 -3 -1 -3 -1c-3 -5 1 -10 1 -15c-1 -6 -6 -11 -7 -17c-1 -3 3 -7 5 -10l1 -1h-1c-1 -10 -11 -19 -5 -28c1 -2 6 -1 7 0c4 4 3 8 5 13l3 6c0 -5 0 -9 -1 -14c-1 -6 0 -13 -5 -20c-4 -5 -4 -10 -2 -16c2 -3 3 -6 4 -9l1 -1c-2 1 -3 2 -3 4c0 1 -5 1 -5 0c-2 -3 1 -6 5 -9
c3 -2 4 -6 4 -9c-2 -1 -4 -1 -5 -2c-2 -1 -1 -3 0 -4c2 -2 4 -5 3 -8h1c-1 -4 -2 -7 -2 -10c-2 0 -3 -1 -3 -1c-3 -3 -2 -7 -3 -10s1 -7 1 -10c0 -2 0 -3 -1 -5c-1 -1 -2 -2 -2 -3c1 -2 5 -3 7 -4v-1c0 -4 3 -7 5 -10h1l-4 9c1 -1 4 -1 5 0c2 2 2 3 0 5c-4 2 1 5 1 8
c-1 3 -2 7 -1 11c0 3 3 7 0 10h-1c0 1 1 1 1 2c3 4 4 10 5 15c1 4 4 10 0 14c0 1 -1 2 -2 3c0 2 2 4 2 7s0 6 -1 9c-1 2 -1 5 -1 8c-1 3 2 6 3 9c3 6 2 12 3 17zM102 505c2 3 4 6 1 9c-2 1 -9 1 -13 0c1 1 1 2 1 2c1 3 2 5 2 7c1 5 -2 10 -4 15c-1 1 -5 1 -5 0
c-2 -4 -4 -9 -3 -14c0 -2 -1 -5 -1 -7s1 -5 3 -6c-6 -5 -7 -12 -9 -16s-2 -8 -2 -12s4 -7 8 -11l-1 -1c-2 -8 -6 -15 -6 -23c0 -4 1 -8 1 -12c1 -4 0 -8 2 -12h3c1 3 2 5 2 8c1 -3 2 -6 4 -9c1 -1 6 -1 7 0c2 4 2 7 2 11l3 13c1 7 2 15 -1 22c0 2 -2 4 -4 6c0 1 1 3 1 4
c3 9 4 17 9 26zM99 404c1 2 0 4 -1 5l-2 9c0 1 -5 1 -5 0c-1 -2 -1 -4 -1 -7c-1 -3 1 -5 -1 -8c-3 -5 -5 -7 3 -11c1 -1 4 0 3 0c-3 3 -4 5 -1 7zM85 183c1 3 0 6 -2 9c0 1 -5 1 -5 0l4 -9c0 -1 3 -1 3 0zM94 367c0 0 2 0 2 1c-1 4 -1 8 -1 12c0 1 -2 1 -2 0
c0 -4 0 -8 1 -13zM85 540h-2l1 -1s1 0 1 1z" />
    <glyph glyph-name="F" unicode="F" horiz-adv-x="319" 
d="M226 433c29 2 101 0 75 -51c-20 -39 -113 -24 -140 -45c-30 -23 -16 -114 -15 -151c2 -33 27 -143 12 -177c1 0 0 -2 -4 -6c-48 0 -97 -15 -116 46c-12 40 5 103 5 147c-2 119 0 237 -5 356c-2 50 -2 106 -10 155c-7 47 -10 65 39 89c40 19 74 -2 119 1
c37 3 103 10 122 -35c20 -44 -25 -72 -64 -65c-23 3 -30 17 -57 17c-53 1 -49 -19 -46 -64c2 -41 8 -81 8 -123c0 -16 -10 -80 1 -92c19 -20 48 -3 76 -2zM96 475c0 5 0 11 -2 16h-7c1 0 1 1 0 1c0 2 0 5 -1 7c0 1 -4 4 -2 5l2 3c2 3 5 6 5 9s-1 7 -5 9h-4c-4 2 3 7 5 9
c3 5 2 9 -5 12c-1 1 -8 1 -9 -1s2 -4 2 -7v-6c-1 -2 -2 -6 3 -7c-2 0 -3 -1 -3 -1c-2 -4 2 -8 1 -11c0 -4 -5 -9 -6 -13c0 -3 3 -5 5 -7l1 -1c-2 -8 -11 -15 -5 -22c1 0 6 0 7 1c4 3 2 6 4 10l3 3v-9c-1 -5 0 -10 -5 -15c-4 -4 -4 -8 -1 -12c0 -2 1 -3 2 -4c0 0 -5 0 -6 -1
c-2 -2 2 -4 5 -6s4 -5 5 -7c-2 0 -5 -1 -6 -1c-2 -1 0 -2 1 -3c1 -2 4 -4 3 -6l1 -1l-3 -7c-1 0 -2 0 -2 -1c-3 -2 -2 -5 -3 -7s0 -5 1 -8c0 -1 0 -2 -2 -4c-1 0 -1 -1 -1 -2c1 -1 5 -2 7 -3v-1c0 -2 3 -4 5 -7h1c-1 3 -3 5 -4 7h5c2 1 2 3 0 4c-4 2 1 4 1 6c-1 3 -2 5 -1 8
c0 3 3 5 -1 8l1 1c3 3 4 7 5 11c0 3 3 8 0 11l-3 2h1c-1 2 1 3 1 5c1 3 1 5 0 7s-2 4 -2 6s2 5 3 7c3 4 2 9 3 13zM98 610c2 2 4 5 0 7c-2 1 -8 0 -12 -1v2c1 1 2 3 2 5c0 3 -3 7 -6 10c0 1 -4 1 -5 0c-1 -4 -2 -8 -1 -11c0 -2 -1 -4 -1 -5c0 -2 2 -3 3 -5
c-5 -4 -6 -9 -7 -12c-2 -3 -2 -6 -2 -9c1 -3 5 -5 9 -8v-1c-2 -5 -6 -11 -6 -17c0 -3 1 -6 2 -9s0 -6 2 -9c0 0 3 0 3 1c1 1 2 3 2 5c1 -2 2 -4 4 -6c1 -1 7 0 7 1c2 2 2 5 2 8l2 10c1 5 2 11 -1 16c-1 2 -3 3 -5 4c0 1 1 3 1 4c2 6 2 13 7 20zM100 534c1 1 0 3 -1 4
c-2 2 -1 4 -3 6c0 1 -4 0 -4 0c-1 -2 -2 -4 -2 -5c0 -3 2 -4 0 -7c-3 -4 -4 -5 3 -8c1 0 4 0 3 1c-3 1 -4 3 -1 5zM89 367c1 3 0 5 -2 7c0 1 -5 1 -5 0l4 -7h3zM96 506h2l-2 10h-1c0 -4 0 -7 1 -10zM76 635v-1h2s0 1 -2 1zM82 441c-1 1 -2 1 -1 3c0 -1 0 -2 1 -3zM83 440
c-1 0 -1 0 -1 1c1 0 1 0 1 -1z" />
    <glyph glyph-name="G" unicode="G" horiz-adv-x="503" 
d="M503 456c7 -43 -51 -19 -68 -35c-31 -30 -9 -141 -6 -180c5 -72 31 -133 44 -202c21 -109 -75 1 -104 13c-29 11 -36 -13 -62 -36c-32 -29 -55 -34 -99 -36c-59 -1 -92 6 -127 50c-40 49 -51 112 -57 175c-14 141 1 308 49 442c20 54 43 117 101 130c22 5 44 7 67 4
c15 -2 30 -4 44 -11c13 -5 25 -10 37 -17c-1 -6 -2 -13 -4 -20c19 -35 82 -134 15 -150c-84 -21 -58 165 -135 76c-43 -49 -44 -150 -48 -212c-5 -77 -8 -153 -7 -229c0 -45 13 -176 85 -151c63 22 44 132 100 156l-9 121c0 -1 -1 58 -4 61c-13 10 -27 -6 -39 -3
c-27 7 -42 -10 -62 23c-15 26 -12 33 9 50c46 36 145 29 198 20c23 -4 78 -6 82 -39zM108 500c1 1 2 1 2 3c0 1 -4 3 -6 5c0 0 0 1 1 1c0 3 -2 7 -3 10c0 1 -1 1 -1 1c0 -3 2 -7 2 -10c-1 1 -4 2 -5 1c-3 -1 -3 -2 -1 -4c3 -3 -3 -5 -3 -8s-1 -7 -2 -10s-5 -6 -2 -10
c0 -1 -1 -1 -1 -1c-4 -4 -7 -9 -9 -13s-6 -9 -4 -14l2 -2s-1 0 -1 -1c0 -2 -2 -3 -3 -5c-1 -3 -2 -6 -2 -9c1 -3 1 -6 0 -8c0 -3 -3 -6 -6 -8c-3 -5 -4 -11 -5 -16c-2 -7 -4 -14 -2 -21c1 -1 4 -2 6 -2c0 0 0 -1 1 -1v-8c0 -2 4 -6 2 -7v-1c0 -1 -1 -2 -2 -3
c-1 -2 -2 -4 -2 -6c-1 -2 -1 -4 -1 -6c0 -4 1 -8 6 -11h4c4 -2 -2 -9 -3 -12c-2 -6 -1 -12 7 -15c0 -1 2 -1 4 0c-1 0 -1 -1 -1 -1c0 -3 -1 -5 -1 -8c-1 3 -2 6 -5 8c-1 1 -7 -1 -7 -2c-1 -4 0 -7 0 -11v-23c1 -3 1 -6 3 -9c1 -2 3 -4 5 -5c-1 -2 -1 -3 -1 -4
c-2 -8 -4 -16 -10 -22c-1 -1 -3 -2 -3 -3c-1 -1 -1 -3 1 -4c2 -2 8 -3 12 -3c-1 -1 -1 -1 -1 -2l-4 -5c-2 -3 -1 -9 -1 -14c0 0 3 -3 4 -2l3 2l2 3c2 2 3 4 3 6l3 7c1 2 0 4 -1 7c6 3 8 9 11 14l2 6v6c0 5 -4 8 -8 11v1l3 12c0 2 1 4 1 6v4c0 1 -1 1 -1 2c0 4 -2 8 -3 11
c-1 4 -1 8 -4 12h-2c2 0 4 1 5 2c0 4 -3 6 -4 9s-1 6 -1 8c0 3 1 8 -4 9c1 0 2 1 2 2c2 4 -3 8 -2 13c0 2 1 5 2 8c1 1 2 2 2 3c1 2 1 3 1 4c1 1 0 2 0 3v1c-1 0 -1 0 -1 1c-1 1 -3 3 -3 4c-1 0 -1 1 -1 1c1 5 5 9 7 12c3 4 4 8 2 13c-1 1 -6 2 -7 1c-5 -3 -4 -8 -7 -11
c-1 -2 -2 -4 -4 -5l3 12c2 6 3 13 9 18c5 4 6 8 5 14c0 3 -1 6 -1 9c0 0 0 1 -1 1c2 -1 2 -2 2 -4c0 -1 4 -2 5 -1c3 2 0 6 -2 9c-3 4 -3 7 -2 11c2 -1 4 -1 5 -1c3 1 1 3 1 4c-1 3 -2 6 -1 9h-1c2 3 4 6 5 9h3c3 2 3 6 5 8c2 3 1 7 2 10c1 2 0 4 3 5zM57 323
c-1 -2 0 -4 1 -5c2 -2 2 -5 4 -8c1 0 5 0 5 1v7c0 3 -3 5 -1 8c2 5 3 8 -5 10c-1 1 -4 0 -3 -1c3 -1 5 -3 2 -6c-1 -2 -3 -4 -3 -6zM103 536c-2 -3 -1 -6 0 -10c0 0 4 -2 4 -1c1 3 0 7 -1 10c0 1 -3 1 -3 1zM54 360l2 -6l1 -7s2 0 2 1l-2 13c-1 0 -3 0 -3 -1zM72 197l-1 1
h-1c1 0 1 -1 2 -1z" />
    <glyph glyph-name="H" unicode="H" horiz-adv-x="415" 
d="M373 387c0 -64 5 -128 5 -193c0 -37 8 -77 5 -113c-2 -29 -12 -52 -8 -83c-105 -86 -87 153 -87 208c0 31 15 178 -10 195c-16 11 -72 -18 -85 -24c-35 -17 -35 -9 -41 -53c-10 -68 -11 -143 2 -210c6 -32 24 -65 -22 -79c-16 -5 -51 7 -65 17c-38 28 -27 107 -29 154
c-3 70 2 141 3 211c1 60 -1 120 -3 179c-1 30 0 61 -1 91c-2 22 -16 53 -12 73c8 40 68 58 100 35c42 -29 18 -132 22 -178c3 -30 -4 -162 25 -168c12 -3 84 27 95 36c27 23 21 54 21 88c2 67 7 135 3 203c-2 31 -25 32 15 55c24 14 56 9 69 -14c23 -38 3 -162 3 -206
c0 -74 -5 -149 -5 -224zM99 496c-1 0 -1 1 -1 1v1c2 9 11 18 5 27c0 1 -6 1 -7 0c-4 -4 -3 -9 -5 -13c0 -2 -2 -4 -3 -6c0 5 0 9 1 13c1 7 0 14 5 20c4 6 4 11 2 16c-2 3 -3 6 -4 9c0 0 -1 1 -1 2c2 -2 3 -3 3 -5c0 -1 5 -1 5 0c2 3 -1 6 -5 9c-3 2 -4 6 -4 9c2 0 4 1 5 2
c2 1 1 2 0 4c-2 2 -4 5 -3 7c0 1 -1 1 -1 1c0 3 2 7 2 10c2 0 3 0 3 1c3 2 2 6 3 9s0 7 -1 10c0 2 0 3 2 5c1 1 1 2 1 3c0 2 -4 3 -7 4c0 0 1 1 0 1c0 4 -3 7 -4 10h-1c0 -3 3 -6 3 -9c-1 1 -4 1 -4 0c-3 -2 -3 -3 -1 -5c4 -2 -1 -5 -1 -8c1 -3 2 -7 1 -11c0 -3 -3 -7 1 -10
l-1 -1c-3 -5 -4 -10 -5 -15c-1 -4 -4 -10 0 -14c0 -1 1 -2 2 -3c0 -2 -2 -4 -2 -7c-1 -3 -1 -6 1 -9c1 -2 1 -5 1 -7c1 -4 -2 -7 -3 -10c-3 -5 -2 -11 -3 -17c0 -6 -1 -14 2 -20c0 -1 5 -1 7 -1c-1 0 -1 -1 0 -1v-9c1 -2 4 -6 2 -8c0 -1 -1 -2 -2 -3c-2 -4 -4 -8 -4 -12
s0 -9 4 -11c1 -1 2 -1 4 -1c4 -3 -3 -9 -4 -12c-4 -5 -3 -12 3 -16c2 -1 9 -1 10 0c1 4 -2 7 -2 10v8c1 3 2 8 -3 10c2 0 3 0 3 1c3 5 -1 10 -1 14c1 6 6 12 7 17c0 4 -4 7 -5 10zM100 354c1 4 2 8 2 12c-1 4 -5 7 -8 11v1c2 7 6 15 6 22c0 4 -1 8 -2 12c0 4 1 8 -1 12
c-1 1 -3 1 -3 0c-2 -2 -2 -5 -3 -7c0 3 -1 5 -3 8c-1 1 -7 1 -8 0l-2 -11c0 -4 -1 -9 -2 -13c-1 -7 -2 -14 1 -21c1 -2 2 -4 4 -6c0 -2 0 -3 -1 -4c-2 -9 -3 -18 -8 -26c-2 -3 -4 -6 -1 -9c3 -2 9 -1 13 0c0 -1 0 -2 -1 -2c-1 -2 -2 -5 -2 -7c0 -4 3 -10 5 -15c0 0 5 -1 5 0
c2 5 3 10 2 15c0 2 1 4 1 7c1 2 -1 4 -3 6c6 4 7 11 9 15zM73 443c-1 -2 0 -3 1 -5c2 -3 1 -5 2 -8c1 -1 5 -1 5 0l2 6c0 3 -2 6 0 9c3 5 5 7 -3 11c-1 0 -4 0 -3 -1c3 -2 4 -4 1 -7c-2 -2 -4 -3 -5 -5zM86 662c0 -3 1 -6 2 -9c1 -1 5 -1 5 0c0 3 -2 6 -3 9c0 1 -3 1 -3 0
h-1zM78 480h-3c1 -5 2 -9 2 -13h2c0 4 0 8 -1 13zM92 309c1 0 1 1 0 1h-2c1 0 1 -1 2 -1z" />
    <glyph glyph-name="I" unicode="I" horiz-adv-x="206" 
d="M154 589c-4 -76 -5 -152 -3 -228c2 -124 9 -254 -6 -371c-1 -10 -39 2 -39 -3c-85 5 -60 90 -57 153c3 88 -3 174 1 261c4 85 0 171 3 257c3 92 -29 174 92 161c-5 -1 -11 -2 -16 -4c56 -50 28 -158 25 -226zM125 660c1 1 2 2 2 3s-4 2 -7 3v1c0 2 -2 5 -4 7h-1
c0 -2 3 -4 3 -7c-1 1 -4 1 -4 0c-3 -1 -3 -2 -1 -3c4 -2 -1 -4 -1 -6c1 -3 1 -6 0 -9c0 -2 -3 -5 0 -7c0 0 1 0 1 -1h-1c-4 -4 -5 -8 -6 -11s-4 -8 -1 -11c1 -1 2 -1 2 -2c0 -2 -2 -4 -2 -5c-1 -3 -1 -5 0 -7s1 -4 1 -6c0 -3 -2 -5 -4 -7c-3 -4 -3 -9 -3 -13
c-1 -5 -2 -10 0 -15c0 -1 4 -2 6 -2h1c-1 -3 -1 -5 0 -7c0 -2 3 -4 1 -6c0 -1 -1 -2 -2 -3c-2 -3 -5 -5 -5 -8s0 -7 4 -9c0 -1 2 -1 3 -1c4 -2 -3 -7 -5 -9c-3 -4 -3 -8 3 -12c2 -1 8 -1 9 0c2 2 -1 5 -1 7s0 4 1 6c1 3 2 6 -2 8c1 0 2 0 3 1c2 3 -2 7 -1 11s7 8 8 12
c1 2 -3 5 -5 8v1c2 7 12 13 7 21c-1 1 -7 0 -8 0c-4 -3 -2 -7 -5 -10l-3 -4c0 3 0 7 1 10c1 5 1 10 7 15c4 4 4 7 2 12c-1 1 -2 2 -2 3c1 0 5 0 6 1c2 2 -1 5 -4 7c-4 2 -4 5 -5 7c2 0 5 1 6 1c2 1 0 2 0 3c-2 2 -4 4 -3 6c0 0 0 1 -1 1l3 7c1 0 2 0 3 1c3 2 2 4 3 6
c1 3 0 6 0 8s-1 3 1 4zM111 452c2 3 3 6 3 9c-1 3 -4 6 -8 9c3 6 7 12 7 17c0 3 0 6 -1 9c0 3 1 6 -1 9c0 1 -3 1 -3 0l-3 -5c0 2 -1 4 -3 7h-7c-2 -3 -2 -6 -3 -8l-3 -10c-1 -6 -2 -11 0 -16c1 -2 3 -4 5 -5l-2 -3c-2 -7 -3 -13 -9 -20c-2 -2 -4 -5 -1 -7c3 -1 9 -1 13 0
c0 -1 -1 -1 -1 -2c-1 -1 -2 -3 -2 -4c-1 -4 2 -8 4 -12c1 0 5 -1 6 0c1 4 3 7 2 11c0 2 1 4 1 5c1 2 -1 3 -3 5c6 3 7 8 9 11zM89 521c-1 -1 -1 -3 0 -4c2 -2 1 -4 2 -6c1 -1 5 -1 5 -1c1 2 2 4 2 5c0 3 -2 5 0 7c4 3 6 5 -2 8h-3c3 -2 4 -4 1 -6zM113 686c-1 -2 1 -4 2 -7
h5l-3 7c-1 1 -4 1 -4 0zM96 548c-1 1 -3 1 -3 0c1 -3 1 -6 1 -9h2v9zM114 613c2 -1 3 -3 2 -4c-1 1 -1 2 -1 3c0 0 -1 0 -1 1zM102 418c1 0 1 1 1 1h-3c1 0 1 -1 2 -1z" />
    <glyph glyph-name="J" unicode="J" horiz-adv-x="400" 
d="M296 794c67 9 67 -51 63 -95c-6 -77 -2 -153 -2 -230c0 -75 -13 -150 -16 -226c-2 -63 4 -130 -6 -193c-18 -121 -170 -85 -235 -26c-88 79 -44 186 -89 282v4c-3 51 76 75 111 50c28 -20 21 -20 18 -45c-12 -12 -19 -26 -22 -43c1 -14 2 -27 4 -41
c-1 -38 0 -114 21 -148c12 -19 48 -32 69 -21c22 12 12 31 16 53c22 110 31 235 30 348c-1 71 -2 141 2 213c4 46 -21 111 36 118zM326 460v1c2 7 11 14 5 21c-1 1 -6 0 -7 0c-4 -4 -3 -7 -5 -10c0 -2 -2 -3 -3 -5c0 4 0 7 1 10c1 5 0 11 5 16c4 4 4 8 2 12c-2 2 -3 4 -4 6
c-1 1 -1 1 -1 2c1 -1 3 -3 3 -4c-1 -1 4 0 5 0c2 3 -2 5 -5 7s-4 4 -5 7c2 0 5 1 6 1c2 1 0 2 -1 3c-1 2 -4 4 -3 6l-1 1c1 2 2 5 2 7c2 0 3 1 3 1c3 2 2 5 2 7c1 3 0 5 0 8c0 2 -1 2 1 4c1 1 1 2 1 2c0 2 -4 2 -7 3v1c0 2 -3 5 -5 7h-1c1 -2 3 -4 4 -7c-1 1 -4 0 -5 0
c-2 -2 -2 -3 0 -4c4 -1 -1 -4 0 -6c0 -3 1 -5 1 -8s-3 -6 0 -8h1l-1 -1c-3 -4 -4 -8 -5 -11c0 -4 -3 -8 0 -11l3 -2h-1c1 -2 -1 -4 -1 -5c-1 -3 -1 -5 1 -7c1 -2 1 -4 1 -6c0 -3 -2 -5 -3 -7c-3 -5 -2 -9 -3 -13c0 -5 -1 -11 2 -16c0 -1 4 0 7 0c-1 -1 -2 -1 0 -1v-7
c0 -2 4 -4 2 -6c-1 -1 -1 -2 -2 -2c-2 -3 -5 -6 -5 -9s0 -7 5 -9c0 0 2 -1 3 -1c5 -2 -3 -7 -4 -9c-4 -4 -4 -8 3 -12c2 0 9 -1 9 1c2 2 -1 5 -1 7s0 4 1 6c0 2 2 6 -3 8c1 0 2 0 3 1c2 3 -2 7 -1 10c0 5 5 9 6 13c1 3 -3 5 -5 8zM325 352c2 3 2 6 2 9s-4 5 -8 8l1 1
c2 5 6 11 6 17c0 3 -1 6 -1 9c-1 3 0 6 -2 9h-3c-1 -2 -2 -4 -2 -5c0 2 -1 4 -3 6c-1 0 -7 0 -8 -1c-2 -2 -2 -5 -2 -8l-3 -10c-1 -5 -2 -10 1 -16c0 -1 2 -3 4 -4c0 -1 -1 -2 -1 -3c-3 -7 -4 -13 -9 -20c-2 -2 -4 -5 -1 -6c2 -2 8 -3 12 -2c-1 -2 -2 -4 -2 -5
c-1 -4 2 -8 4 -12h5c2 4 4 8 3 11c0 2 1 4 1 6c0 1 -1 3 -3 4c6 4 7 8 9 12zM300 419c-1 -1 0 -2 1 -3c2 -2 1 -5 2 -7h5c1 2 1 4 2 5c0 3 -2 4 0 7c3 3 5 5 -3 8c0 0 -4 0 -3 -1c3 -1 4 -3 1 -5c-2 -1 -4 -2 -5 -4zM311 586c-1 -3 1 -5 2 -7c1 -1 5 0 5 0c0 3 -2 5 -3 7
c-1 1 -4 0 -4 0zM305 447h-2l2 -10h1c0 4 0 7 -1 10z" />
    <glyph glyph-name="K" unicode="K" horiz-adv-x="477" 
d="M419 70c11 -15 18 -37 35 -47c-1 -1 -1 -2 -2 -2c-65 -91 -126 28 -154 78c-13 22 -132 218 -141 215c-23 -7 -13 -101 -14 -116c-2 -50 31 -126 19 -171c-12 -41 -71 -48 -102 -16c-26 27 -13 91 -14 128c-3 113 7 227 5 341c-1 92 -25 213 -3 301c11 41 28 43 70 30
c56 -16 49 -36 43 -87c-6 -46 -1 -92 -4 -138c-3 -51 -21 -105 -1 -156c51 27 79 122 107 169c20 33 44 63 64 95c14 23 13 54 26 73c26 40 118 48 119 -10c0 -44 -82 -133 -105 -170c-28 -43 -57 -82 -82 -127c-41 -74 -44 -78 -11 -153c26 -60 65 -115 94 -172
c15 -29 34 -42 51 -65zM97 429c1 8 1 16 -1 24c0 1 -5 2 -7 1c1 1 1 2 0 2v11c0 2 -4 6 -1 8l-1 1l3 3c2 5 5 9 5 14c0 4 0 10 -4 13c-1 1 -2 2 -4 2c-4 3 4 10 6 13c3 6 3 14 -3 19c-2 1 -8 2 -9 0c-2 -3 1 -7 1 -11c0 -3 -1 -6 -1 -10c-1 -3 -3 -8 2 -11c-1 0 -3 -1 -3 -2
c-2 -5 1 -11 0 -16c-1 -7 -6 -13 -7 -20c-1 -4 3 -8 5 -11v-2c-2 -11 -12 -22 -6 -33c1 -1 6 -1 7 0c4 5 3 10 5 15l3 7c0 -5 0 -10 -1 -15c-1 -8 -1 -16 -5 -24c-4 -6 -5 -12 -2 -18c0 -3 1 -5 2 -7c-1 1 -5 1 -5 0c-2 -4 1 -8 4 -11c4 -3 5 -7 5 -11c-2 0 -4 -1 -5 -2
c-2 -1 0 -3 0 -4c2 -3 5 -7 4 -10h1c-1 -4 -2 -8 -2 -12c-2 0 -3 -1 -3 -1c-3 -3 -1 -8 -2 -11c-1 -4 0 -8 1 -12c0 -3 1 -4 -1 -7c-1 -1 -1 -2 -1 -3c1 -2 5 -3 7 -4v-2c1 -4 4 -7 6 -11h1c-1 4 -4 7 -5 10c2 0 4 0 5 1c2 2 2 4 0 5c-4 3 1 7 0 10c-1 4 -2 9 -2 13
c1 4 3 8 0 12h-1l1 1c3 6 4 12 4 18c1 5 4 12 0 17c-1 1 -1 2 -2 2v1c0 3 2 5 2 8s0 7 -1 10s-2 6 -2 9c0 4 3 8 4 11c3 7 2 14 3 20zM114 635c2 3 4 7 1 10c-2 2 -9 2 -12 1v3l3 7c0 6 -2 12 -4 18c-1 1 -5 1 -5 0c-3 -5 -4 -11 -3 -16c0 -3 -1 -6 -2 -9c0 -2 1 -4 3 -7
c-6 -5 -8 -12 -10 -17c-1 -5 -2 -9 -2 -14s4 -8 7 -13v-1c-3 -9 -7 -17 -8 -26c0 -5 0 -10 1 -14c0 -5 -1 -9 1 -14c0 -1 3 -1 3 0l3 8c0 -3 1 -7 3 -10c0 -1 6 -1 7 0c2 4 2 8 3 12l3 15c2 8 3 17 1 25c-1 3 -3 5 -5 7c1 2 1 4 2 5c3 10 4 20 10 30zM106 519c1 2 1 4 0 6
c-2 3 -1 6 -2 10c-1 1 -5 1 -5 0c-1 -3 -2 -5 -2 -8c-1 -3 1 -6 -1 -10c-3 -5 -5 -8 2 -12c1 -1 4 -1 3 0c-2 3 -3 5 0 8c2 2 4 4 5 6zM95 263c0 3 -1 7 -3 10c0 1 -5 1 -5 -1l5 -10s3 0 3 1zM99 476h3l-2 15c0 1 -1 1 -1 0c0 -5 -1 -10 0 -15zM81 382c0 -1 1 -3 2 -4v-2
c-1 2 -2 4 -2 6zM96 677c-1 0 -1 0 0 -1h2c-1 0 -1 1 -2 1z" />
    <glyph glyph-name="L" unicode="L" horiz-adv-x="389" 
d="M355 34c37 -49 -18 -51 -54 -52c-56 0 -110 -18 -164 -17c-117 3 -79 92 -79 177c0 108 -3 217 -4 325c0 97 13 209 -19 302c0 1 1 2 1 3c18 36 86 32 108 3c22 -30 9 -88 11 -122c7 -91 10 -184 12 -275c3 -87 0 -173 7 -261c4 -50 -5 -54 45 -58c34 -2 112 7 136 -25z
M128 278v1c1 7 11 14 5 20c-1 1 -7 0 -8 -1c-3 -3 -2 -6 -4 -9l-3 -4c0 3 0 6 1 9c0 5 0 10 4 15c4 4 4 7 2 11c-2 2 -3 4 -4 6l-1 1c1 0 3 -1 3 -3c-1 0 4 0 5 1c1 2 -2 4 -5 6c-4 1 -5 4 -5 6c2 0 4 1 5 2c2 1 1 2 0 2c-2 2 -4 4 -4 6h-1c1 2 2 5 2 7c2 1 2 1 3 1
c3 3 1 5 2 7c1 3 -1 6 -1 8c-1 2 -1 3 0 5c1 1 1 2 1 2c-1 2 -5 2 -7 2v1c-1 3 -4 4 -7 6h-1c1 -2 4 -4 6 -6c-2 0 -4 0 -5 -1c-2 -2 -2 -3 0 -4c5 -1 0 -4 1 -6s2 -5 2 -7c-1 -3 -3 -6 0 -8h1l-1 -1c-3 -4 -4 -7 -4 -11c-1 -3 -3 -8 0 -10l3 -2h-1c1 -1 -1 -3 -1 -5
c-1 -2 -1 -4 1 -6c1 -2 2 -4 2 -6s-3 -4 -4 -6c-2 -5 -2 -9 -2 -13s-1 -9 2 -14c0 -1 3 -1 6 -1c0 -2 1 -5 1 -7c0 -1 4 -3 2 -5l-2 -3c-2 -2 -4 -5 -5 -8c0 -3 1 -6 5 -8c0 0 2 -1 4 -1c4 -1 -4 -6 -5 -8c-3 -4 -3 -8 3 -11c2 -1 9 -1 10 0c1 2 -2 5 -2 7s0 4 1 6
c0 2 2 5 -3 7c1 0 2 0 3 1c2 3 -2 6 -1 10c0 4 5 8 6 12c1 2 -3 5 -5 7zM127 176c1 3 2 6 2 9s-4 5 -8 7l1 1c2 6 6 11 6 16c0 3 0 6 -1 9c0 3 0 6 -1 8c-1 1 -3 1 -4 0l-2 -5c0 2 -1 4 -3 6c-1 1 -7 1 -8 0l-2 -8l-3 -9c-1 -5 -2 -10 1 -15c0 -2 2 -3 4 -4
c0 -1 -1 -2 -1 -3c-3 -6 -4 -12 -10 -18c-1 -2 -4 -5 -1 -6c3 -2 9 -2 13 -1c0 -1 0 -1 -1 -2s-2 -2 -2 -4c-1 -3 2 -7 4 -11h5c2 3 4 7 3 10c0 2 1 4 2 5c0 2 -2 3 -3 5c6 3 7 7 9 10zM103 240c-1 -2 -1 -3 0 -4c2 -2 1 -4 2 -6h5c1 2 2 3 2 5s-2 4 0 6c3 3 5 5 -3 8
c0 0 -3 0 -3 -1c3 -1 4 -3 1 -5c-2 -1 -4 -2 -4 -3zM104 397c0 -2 0 -2 1 -3l3 -3c1 0 5 1 5 2l-3 3l-3 2c-1 0 -3 -1 -3 -1zM107 266c0 0 -2 0 -2 -1l2 -8c0 -1 1 -1 1 0c0 3 0 6 -1 9z" />
    <glyph glyph-name="M" unicode="M" horiz-adv-x="587" 
d="M520 778c37 -16 27 -44 26 -76c-3 -93 -3 -186 -6 -279c-4 -97 -15 -201 -8 -297c3 -42 31 -192 -69 -121c-41 30 -20 148 -19 198c1 48 4 96 5 144c1 42 16 112 5 155c4 -18 -12 -4 -4 3c-39 -24 -59 -110 -73 -150c-8 -22 -22 -44 -28 -66c-6 -19 -2 -55 -15 -71
c-35 -44 -101 -2 -118 44c-3 9 -3 48 -4 55c-5 36 -13 73 -20 109c-2 10 -11 74 -19 80c-26 18 -14 -13 -18 -27c-14 -51 -1 -116 -5 -170c-5 -69 -9 -138 -12 -207c-2 -42 19 -114 -38 -121c-116 -14 -59 247 -56 312c6 121 32 281 -1 400c-14 50 -40 72 32 83
c51 8 93 -22 108 -73c4 -13 -5 -32 -2 -50c4 -31 28 -67 39 -96c24 -61 24 -154 62 -205c30 22 39 64 52 98c14 39 33 72 51 109c15 35 33 75 41 113c6 28 -2 56 12 80c16 26 53 38 82 26zM116 274c1 1 1 2 0 3c0 2 0 3 -1 4s-7 1 -8 0c-2 -2 -2 -4 -3 -6c0 -2 -1 -4 -2 -6
s-2 -4 -4 -6l2 13c0 2 1 3 1 5v2c0 1 1 2 1 3c0 2 1 3 1 5l3 5c2 3 3 5 3 8s0 5 -2 8l-4 8c-1 1 -1 1 -1 2c2 -1 3 -3 3 -4s5 -1 5 0c2 3 -2 6 -5 8c-4 3 -5 6 -6 9c2 0 5 1 6 2c2 1 0 3 -1 4c-2 2 -4 5 -4 7h-1c1 4 2 7 2 10c1 0 2 1 3 1c2 3 1 6 2 9s-1 6 -1 9
c0 2 0 3 1 5c1 1 2 2 2 3c-1 1 -5 2 -7 3v1c0 3 -2 6 -4 9h-1c0 -3 3 -5 3 -8h-5c-2 -1 -2 -3 0 -4c2 -2 2 -3 1 -4s-2 -3 -2 -4c1 -3 2 -7 1 -10c0 -3 -2 -7 1 -10h1l-1 -1c-3 -5 -4 -10 -4 -15c-1 -4 -3 -10 1 -14l3 -2h-1c1 -3 -1 -5 -1 -7c0 -3 0 -6 1 -9
c1 -2 2 -5 2 -7c0 -3 -2 -6 -3 -9c-2 -3 -2 -6 -3 -8v-9c-1 -6 -3 -12 -1 -19c0 -1 5 -2 7 -1v-1c-1 0 -1 -1 0 -1c-1 -3 -1 -6 -1 -9c0 -2 3 -5 1 -7l-2 -3c-3 -4 -6 -7 -6 -11v-6c1 -2 2 -4 4 -6h4c4 -3 -3 -9 -5 -12c-3 -5 -2 -11 4 -15c2 -1 9 -1 10 1c1 3 -2 6 -2 9
c-1 2 0 5 0 8c1 2 2 7 -3 9c1 0 3 0 3 1c1 2 1 4 0 6v4l-1 1c0 1 0 1 1 2c1 5 6 10 8 15c1 3 -2 7 -4 10v1c1 5 5 9 7 14c1 2 2 4 2 7zM107 117c2 3 2 7 2 11c-1 4 -5 7 -9 10l1 1c1 8 5 15 5 22l-2 12c-1 4 0 7 -2 11c-1 1 -3 1 -3 0l-3 -7c0 3 -1 5 -3 8c-1 1 -7 0 -8 -1
c-1 -3 -1 -7 -1 -10c-1 -4 -2 -9 -2 -13c-1 -7 -2 -14 1 -21c1 -2 3 -3 5 -5c0 -2 0 -3 -1 -4c-1 -9 -2 -17 -7 -26c-1 -3 -4 -6 0 -8c2 -2 9 -1 13 0c-1 -1 -1 -1 -1 -2l-2 -6c0 -5 4 -10 6 -14c0 -1 5 -1 5 0c2 4 3 9 2 14c-1 2 0 4 0 7c0 1 -2 3 -3 5c5 5 6 11 7 16z
M78 202c-1 -2 0 -3 1 -5l2 -8c1 -1 5 -1 5 0c1 2 1 5 1 7c1 3 -2 5 0 8c4 5 5 7 -2 11c-1 0 -4 0 -3 -1c2 -2 4 -4 1 -7c-2 -2 -4 -3 -5 -5zM96 413c-1 -2 -1 -6 0 -9c1 0 5 -1 5 0v2c0 1 0 1 -1 2c0 2 -1 3 -1 5c0 0 -3 1 -3 0zM84 239h-2v-13h2c0 4 1 9 0 13z" />
    <glyph glyph-name="N" unicode="N" horiz-adv-x="488" 
d="M427 168c0 -38 33 -112 13 -145c-21 -35 -83 -40 -109 -11c-24 26 -44 94 -55 129c-45 137 -112 293 -131 442c6 -92 9 -186 8 -279c-1 -62 10 -120 14 -181c2 -20 6 -52 -1 -69c-2 -4 -48 -57 -52 -59c-66 -38 -75 60 -75 99c0 18 12 36 13 55c1 26 -8 54 -10 81
c-6 116 11 238 12 355c1 49 -28 268 79 230c50 -18 53 -91 62 -131c15 -66 29 -133 50 -198c12 -38 30 -73 41 -110c13 -44 14 -116 54 -142c12 102 12 205 13 309c1 44 4 88 3 133c0 26 -19 103 -8 125c17 33 64 16 80 -7c19 -27 5 -96 4 -131c-2 -102 -1 -203 -4 -305
c-3 -63 -1 -126 -1 -190zM107 313c1 3 1 8 -3 11c-1 1 -2 1 -4 1c-4 3 4 9 5 11c2 3 3 6 2 8c0 3 -2 6 -5 8c-2 1 -9 1 -10 -1c-1 -3 2 -6 2 -9c0 -2 0 -5 -1 -8c0 -2 -2 -6 3 -9c-2 0 -3 0 -3 -1c-3 -4 1 -9 0 -13c-2 -5 -8 -10 -9 -15c-1 -3 2 -7 4 -11v-1l-3 -7l-1 -1v-1
l-1 -2l-2 -3l-2 -8c0 -2 1 -5 2 -7c1 -1 7 0 8 1c2 2 2 4 3 6c0 2 0 4 1 7l4 5c-1 -4 -1 -9 -1 -13c-1 -6 -1 -13 -5 -20c-4 -5 -4 -10 -1 -15c1 -3 2 -6 4 -9l1 -1c-2 1 -3 3 -3 4s-5 1 -5 0c-2 -3 1 -6 5 -8c3 -3 4 -6 5 -9l-6 -2c-2 -1 0 -3 1 -4c2 -2 4 -5 4 -7
c-1 -1 0 -1 1 -1l-3 -9c-1 -1 -2 -1 -2 -2c-3 -2 -2 -6 -2 -9c-1 -3 0 -6 1 -10c0 -2 1 -3 -1 -5c-1 -1 -2 -2 -1 -3c0 -1 4 -2 6 -3c0 0 0 -1 1 -1c0 -3 3 -6 5 -9h1l-4 8c1 0 4 0 4 1c3 1 3 3 0 4c-4 2 2 5 1 8s-2 7 -2 10c0 4 3 7 -1 10v1l1 1c3 4 3 10 4 14s3 11 0 14
c-1 1 -2 2 -3 2c0 1 1 1 1 1c-1 2 1 4 1 6c0 3 0 6 -1 9s-2 5 -2 8s2 6 3 9c3 5 2 11 2 16c1 4 1 7 1 10v5c0 1 -1 3 -1 5c0 1 -5 1 -7 1c1 0 1 1 0 1c1 3 1 6 1 9c0 2 -4 6 -1 7v1c0 1 1 2 2 3c3 3 6 7 6 11zM88 421c-1 -4 -2 -8 -1 -12c0 -4 4 -7 8 -10v-1
c-1 -8 -4 -15 -4 -22c0 -4 1 -8 2 -12c1 -3 0 -7 2 -11h3l3 8c0 -3 1 -6 3 -8c1 -1 7 -1 8 0c1 4 1 7 1 11l2 13c0 7 1 14 -3 20c-1 2 -2 4 -5 6c1 1 1 2 1 4c2 8 3 16 8 24c2 2 4 6 1 8c-3 1 -9 1 -13 1c0 0 1 1 1 2c1 1 2 3 2 5c1 2 1 5 0 7c-1 3 -2 5 -2 8
c-1 0 -5 1 -5 0c-2 -2 -3 -4 -4 -6c0 -2 -1 -5 -1 -7c1 -2 -1 -5 -1 -7c-1 -2 1 -4 3 -6c-6 -4 -7 -11 -9 -15zM119 335c1 1 0 3 -1 5l-2 8c-1 1 -5 1 -5 0l-2 -6c0 -3 2 -6 0 -9c-3 -4 -5 -6 2 -11c1 0 4 0 3 1c-3 2 -3 4 0 7c1 0 2 1 3 2c0 1 1 2 2 3zM105 123
c1 2 -1 5 -2 8c-1 1 -5 1 -5 0l4 -9s3 0 3 1zM110 299c0 -1 3 -1 3 -1c-1 5 0 9 0 13h-2c0 -4 -1 -8 -1 -12zM99 465c0 0 -1 -1 0 -1h1c1 -1 1 -1 1 0c-1 0 -1 0 -2 1z" />
    <glyph glyph-name="O" unicode="O" 
d="M369 622c2 -80 2 -163 -1 -242c-2 -71 -25 -444 -169 -361c-13 8 -17 22 -29 29c-14 8 -31 4 -44 12c-39 22 -59 69 -70 110c-21 78 -1 177 -29 251c24 11 18 84 20 103c4 52 9 100 26 149c11 34 23 77 50 103c35 36 84 27 131 25c49 -3 57 -10 79 -53
c20 -39 36 -82 36 -126zM258 373c3 68 -8 134 -8 201c0 59 -2 97 -22 154c-101 -44 -83 -177 -89 -271c-3 -52 -4 -101 1 -153c5 -47 44 -129 37 -167c46 -27 52 17 61 59c12 56 17 119 20 177zM332 370c1 7 2 14 0 21c-1 1 -5 2 -7 1c1 1 1 1 0 2v9c0 2 -4 5 -1 7v1
c0 1 1 2 2 3c2 4 5 8 5 12c0 3 0 8 -4 12c-1 0 -2 0 -4 1c-4 2 3 9 5 11c3 6 3 12 -3 17c-2 1 -9 1 -9 -1c-2 -3 1 -6 1 -9s0 -6 -1 -9c0 -2 -2 -7 3 -9c-2 -1 -3 -1 -3 -2c-3 -4 1 -9 0 -14c0 -6 -6 -11 -7 -17c-1 -3 3 -7 4 -10c1 0 1 -1 1 -1c-2 -10 -13 -18 -7 -28
c0 -1 6 -1 7 0c4 4 3 8 5 12l4 6l-2 -13c-1 -7 -1 -14 -7 -20c-4 -5 -5 -10 -3 -15c0 -3 1 -5 1 -7c-1 1 -4 2 -5 1c-2 -3 1 -6 4 -9s4 -7 3 -10c-2 0 -4 0 -5 -1c-2 -1 -1 -3 0 -4c1 -3 3 -6 2 -8c0 -1 0 -1 1 -1c-2 -3 -3 -6 -4 -9c-2 0 -3 0 -3 -1c-3 -2 -3 -5 -4 -8
c-2 -3 -2 -7 -2 -10c0 -2 0 -3 -2 -5c-1 -1 -2 -1 -2 -2c0 -2 4 -3 5 -5v-1c0 -2 0 -4 1 -5c0 -2 1 -4 1 -5s2 -1 2 -1c0 3 -2 6 -2 9c1 0 4 -1 5 -1c2 1 3 3 1 5c-3 3 3 4 3 7c0 4 0 8 1 11s4 7 1 10v1s1 0 1 1c4 4 6 9 7 14c2 4 5 10 2 14c0 1 -1 2 -2 3h1c-1 2 2 4 2 7
c1 3 1 6 0 9c0 3 -1 5 -1 8c1 3 3 6 5 9c3 5 3 12 4 17zM343 551c1 3 4 7 0 9c-2 2 -9 1 -13 0c1 0 1 1 1 2c1 2 2 4 2 7c0 4 -4 10 -6 15c-1 0 -5 0 -5 -1c-2 -5 -3 -10 -2 -14c1 -3 0 -5 0 -8c0 -2 2 -4 3 -6c-5 -5 -6 -11 -8 -16c-1 -4 -2 -8 -1 -11c0 -5 4 -8 8 -11v-1
c-3 -8 -6 -16 -6 -23c0 -4 0 -8 1 -12s0 -8 2 -12c0 -1 2 -1 3 0c0 1 1 3 2 5c0 -3 1 -5 3 -7c1 -1 7 0 8 1c2 3 2 7 2 10l3 14c1 7 1 15 -1 22c-1 2 -3 4 -5 6c0 1 1 3 1 4c2 9 3 18 8 27zM341 449c1 1 1 3 0 5c-2 3 -1 5 -2 8c-1 1 -5 1 -5 0l-2 -6c0 -3 2 -6 0 -9
c-3 -5 -5 -7 2 -11h3c-3 3 -4 5 -1 8c2 1 4 3 5 5zM300 231c2 2 2 6 2 9c0 1 -5 2 -5 1v-9c0 -1 3 -2 3 -1zM335 411h3l-2 13c0 1 -1 1 -1 0c0 -4 -1 -8 0 -13zM315 325c-2 2 -3 4 -2 5c0 -1 0 -2 1 -3c0 0 1 -1 1 -2zM323 585h-2l1 -1zM313 330h-1h1z" />
    <glyph glyph-name="P" unicode="P" horiz-adv-x="404" 
d="M314 742c154 -123 64 -341 -56 -455c-13 -14 -30 -26 -49 -32c-12 -3 -42 5 -50 -2c-25 -20 -13 -91 -11 -120c3 -56 42 -150 -40 -150c-28 -8 -61 51 -65 69c-5 22 8 63 10 86c10 116 5 234 1 350c-2 63 -34 232 20 275c25 20 89 12 122 16c51 5 79 -6 118 -37zM156 342
c50 -7 124 147 137 185c16 49 9 150 -42 180c-26 15 -49 7 -73 -11c-38 -27 -33 -46 -31 -95c3 -86 5 -173 9 -259zM371 546c2 1 2 1 2 2c0 2 -4 3 -6 4v1c0 3 -2 5 -4 8h-1c1 -2 3 -5 3 -7c-1 1 -4 1 -5 1c-2 -1 -2 -2 0 -4c3 -2 -2 -3 -2 -5c0 -3 0 -6 -1 -8s-5 -4 -2 -7
l-1 -1c-4 -2 -6 -5 -8 -7c-2 -3 -6 -5 -4 -9c0 -1 1 -2 1 -3s-3 -2 -4 -3c-1 -2 -2 -4 -2 -6c1 -2 1 -4 0 -5c-1 -2 -4 -3 -6 -5c-4 -2 -5 -6 -7 -9c-3 -4 -5 -8 -5 -13c0 -1 3 -3 5 -3c0 0 0 -1 1 -1c-1 -2 -2 -4 -2 -6c-1 -1 2 -5 -1 -5c-1 -1 -2 -1 -3 -1
c-3 -2 -6 -3 -8 -5c-1 -3 -2 -5 1 -9c0 -1 2 -2 3 -2c3 -4 -6 -4 -8 -5c-4 -2 -6 -5 -2 -11c1 -2 7 -5 8 -4c3 1 1 4 2 6l3 5c2 1 5 3 1 7c1 -1 2 -1 3 -1c3 2 2 7 4 10s8 4 11 7c1 2 -1 5 -2 8v1c4 5 16 7 13 15c0 1 -6 3 -7 3c-4 -1 -4 -4 -7 -6c-2 -1 -4 -2 -5 -2l4 7
c3 4 5 8 11 10c5 2 7 5 6 10c-1 2 -1 4 -1 6c0 -1 1 -2 1 -2c-1 -1 4 -2 5 -2c2 1 0 4 -2 7c-3 3 -3 6 -2 8c2 -1 4 -1 5 -1c3 0 1 1 1 2c-1 3 -2 5 -1 7h-1c2 2 4 4 5 6h3c3 1 3 4 5 6c1 2 1 5 1 7c1 2 0 3 2 4zM307 410c1 2 3 4 3 8c0 0 -2 1 -3 1l-5 -3c1 2 1 4 0 6
c0 2 -5 4 -6 4c-3 -1 -4 -3 -6 -5l-6 -6c-4 -4 -7 -7 -7 -12c0 -2 1 -4 2 -6c-1 0 -2 -1 -3 -2c-3 -1 -5 -3 -8 -5c-2 -1 -5 -3 -9 -3c-2 0 -6 -1 -4 -4c1 -2 5 -6 9 -8v-1c-2 0 -3 -1 -5 -1c-2 -2 -2 -7 -2 -11c0 -1 3 -3 4 -3c3 1 6 3 8 6c0 1 2 2 3 3c2 1 1 3 1 5
c6 -1 10 2 13 3s5 3 6 6c2 2 0 6 -2 10c3 2 6 3 8 5c2 1 5 3 6 5c2 3 2 5 3 8zM303 445c2 -3 2 -4 -1 -5h-6c-2 -1 -2 -2 -1 -3c0 -3 -1 -4 -1 -6c0 -1 4 -3 4 -3l4 3c1 2 0 5 3 5c4 2 6 2 1 8c-1 0 -4 2 -3 1zM360 573c-1 -2 1 -4 2 -7c1 0 5 0 5 1c0 0 0 1 -1 1v1l-1 1
c0 1 -1 2 -2 3h-3zM309 460c0 -3 -1 -6 -2 -8c0 -1 1 -1 1 -1c2 3 3 5 3 8zM260 357h1c-1 1 -1 1 -1 2h-1c0 -1 0 -1 1 -2zM348 506c0 -1 0 -2 1 -2c0 1 -1 1 -1 2z" />
    <glyph glyph-name="Q" unicode="Q" horiz-adv-x="430" 
d="M328 166c0 -55 52 -101 61 -153c10 -55 -41 -44 -73 -13c-54 54 -28 40 -104 30c-34 -5 -94 3 -122 27c-57 48 -53 167 -57 236c-7 100 5 215 25 313c16 82 44 193 147 193c48 68 122 25 159 -34c54 -89 25 -222 14 -319c-10 -90 -50 -191 -50 -280zM292 471
c7 61 17 121 12 183c-4 52 -8 71 -65 56c-20 -6 -29 -3 -44 -21c-35 -43 -34 -140 -38 -193c-7 -102 -17 -217 6 -319c10 -44 43 -114 65 -33c11 38 -36 64 -31 89c6 24 45 38 64 27c38 39 26 159 31 211zM90 214c0 -1 1 -3 2 -4s2 -3 4 -4h1c-1 3 -4 5 -5 8c1 -1 4 0 4 1
c2 1 3 3 0 4c-4 2 1 5 0 7s-1 4 -2 5v5c0 3 2 7 -1 9l-1 1s1 0 1 1c3 4 3 9 4 14c1 3 3 9 0 13c-1 0 -2 1 -3 2h1c-1 2 1 4 1 6c1 3 0 6 -1 8c-1 3 -2 5 -2 7c0 3 3 6 4 9c3 5 2 10 3 15c1 6 1 13 -1 19c0 1 -5 1 -7 0v1c1 0 1 1 0 1v8c0 2 -4 5 -1 7c0 1 1 2 2 3
c2 4 5 7 5 10c0 4 0 8 -4 11c0 0 -2 1 -3 1c-4 3 3 8 5 10c4 5 4 10 -2 15c-2 1 -8 2 -9 0c-2 -2 1 -5 0 -8c0 -3 0 -5 -1 -8c-1 -2 -2 -7 3 -9c-2 0 -3 0 -4 -1c-2 -4 1 -9 1 -13c-1 -5 -7 -10 -8 -15c-1 -3 3 -6 5 -9v-2c-1 -4 -4 -8 -6 -12s-3 -9 0 -13c1 -1 6 -1 7 0
c4 4 3 8 5 12l3 5c0 -4 0 -8 -1 -12c0 -3 0 -6 -1 -9s-2 -6 -4 -9c-4 -5 -4 -10 -2 -15c2 -2 3 -5 4 -8l1 -1c-2 1 -3 2 -3 4c0 1 -5 1 -5 0c-2 -3 2 -6 5 -8s4 -6 5 -9c-2 0 -4 0 -6 -1s0 -3 1 -4c2 -2 4 -5 4 -7h1c-1 -3 -2 -7 -2 -10c-1 0 -2 0 -3 -1c-2 -3 -1 -6 -2 -9
c0 -3 1 -6 2 -9c0 -2 1 -3 -1 -5c-1 -1 -1 -2 -1 -3c1 -2 5 -2 7 -3zM120 479c2 2 5 5 2 8c-2 2 -9 2 -13 2c1 0 1 1 1 1l3 6c1 4 -2 9 -3 14c-1 1 -5 1 -5 0c-3 -4 -4 -8 -4 -12c0 -2 -1 -4 -2 -7c0 -1 1 -3 3 -5c-6 -4 -8 -10 -10 -13c-2 -4 -3 -7 -3 -11
c-1 -3 3 -7 6 -10v-1c-3 -7 -7 -13 -8 -20c-1 -4 0 -7 0 -11c0 -3 -1 -7 1 -11h3l3 6c0 -2 1 -5 2 -7s7 -2 8 -1c2 3 2 6 3 10c1 3 2 7 4 11c1 6 3 13 1 19c-1 2 -2 4 -4 6c0 1 1 3 1 4c3 7 5 15 11 22zM109 390c1 2 1 3 0 5l-2 7c0 1 -4 1 -4 1c-2 -2 -2 -4 -2 -6
c-1 -3 1 -5 -1 -8c-4 -4 -6 -6 2 -10c0 0 4 0 3 1c-3 2 -4 4 -1 6zM102 192c0 3 -2 6 -4 8c0 1 -5 0 -4 -1c0 -3 3 -5 4 -8c1 0 4 1 4 1zM102 358c0 -1 3 -1 3 0c-1 3 -1 7 -1 11h-2v-11zM106 511c-1 0 -1 1 -2 1l1 -1h1z" />
    <glyph glyph-name="R" unicode="R" horiz-adv-x="389" 
d="M312 100c19 -41 107 -139 43 -156s-96 73 -121 117c-19 33 -61 182 -101 181c-3 -48 -10 -102 6 -149c11 -35 40 -81 0 -108c-105 -71 -99 187 -100 226c-2 97 10 195 11 292c0 62 3 124 3 185c-1 53 -15 83 23 124c32 -6 56 -12 86 -6c37 9 58 21 98 0
c63 -33 73 -111 76 -175c5 -79 -7 -157 -44 -229c-27 -52 -95 -71 -67 -131c26 -58 60 -113 87 -171zM142 376c70 35 163 346 60 351c-92 4 -60 -297 -60 -351zM98 208h-1v1c3 5 12 10 7 15c-1 1 -7 0 -8 0c-4 -3 -2 -5 -5 -7l-3 -4c0 3 0 5 1 8s1 7 6 11c4 3 4 5 2 8
c-2 2 -2 4 -4 5c0 0 0 1 -1 1c2 -1 3 -2 3 -2c0 -1 5 -1 5 0c2 1 -1 3 -4 4c-3 2 -4 4 -5 6h6c2 1 0 2 0 3c-2 1 -4 2 -3 4h-1c0 2 2 4 2 6h3c3 2 2 4 3 5c1 2 0 4 0 6c0 1 -1 2 1 3c1 0 2 1 1 1c0 1 -4 2 -6 2v1c0 2 -3 4 -5 5h-1l4 -4c-2 0 -4 0 -5 -1c-2 -1 -3 -1 0 -2
c3 -2 -2 -3 -1 -5c0 -2 1 -4 0 -6c0 -1 -3 -3 1 -5l-1 -1c-3 -3 -4 -5 -5 -8c-1 -2 -4 -6 -1 -8c1 0 2 -1 3 -1c-1 0 -1 0 -1 -1c1 -1 -1 -2 -2 -3c0 -2 0 -3 1 -5s1 -3 1 -4c0 -2 -2 -4 -4 -6c-2 -3 -2 -6 -2 -9c-1 -4 -2 -7 0 -11c1 -1 5 -1 7 0v-1c0 -2 0 -4 1 -5
c0 -1 3 -3 1 -4c0 -1 -1 -2 -2 -2l-5 -7c0 -2 0 -4 5 -6h3c5 -2 -3 -5 -5 -7c-3 -3 -3 -6 4 -9c1 0 8 0 9 1c2 1 -1 3 -1 5c-1 1 0 3 0 4c1 2 2 5 -2 6h3c2 3 -2 6 -1 8c1 3 6 6 7 10c0 1 -3 3 -5 5zM96 130c1 2 2 4 2 7c-1 2 -4 3 -8 5v1c3 4 6 8 7 12c0 3 -1 5 -2 7
c0 2 1 4 -1 6c0 1 -3 1 -3 0l-3 -4c0 2 -1 3 -3 5h-7c-2 -2 -2 -4 -3 -6c0 -3 -1 -5 -2 -8c-2 -3 -2 -7 0 -11l5 -3l-2 -3c-2 -5 -3 -9 -9 -14c-1 -2 -3 -4 0 -5c2 -1 9 -1 12 0v-1c-1 -1 -2 -2 -2 -4c-1 -2 2 -5 4 -8h4c1 -1 1 -1 2 -1l-1 1c2 3 4 6 3 8c0 1 1 3 1 4
s-2 2 -3 3c6 3 7 7 9 9zM71 179c-1 -1 0 -2 1 -3l2 -5h5c1 2 1 3 1 4c1 2 -1 3 1 5c3 2 5 4 -3 6c0 0 -4 0 -3 -1c3 -1 4 -2 1 -4c-2 -1 -4 -1 -5 -2zM89 299c-1 -2 0 -3 2 -5h5l-4 5c0 1 -3 0 -3 0zM77 199h-3c1 -3 2 -5 2 -7h1c0 2 1 4 0 7z" />
    <glyph glyph-name="S" unicode="S" 
d="M393 730c10 -58 22 -325 -102 -205c40 44 52 156 -9 193c-98 60 -81 -124 -81 -168c1 -150 142 -273 148 -422c7 -168 -258 -208 -303 -46c-7 22 7 50 0 70c-3 9 -21 15 -22 23c-8 42 43 66 87 59c54 -9 31 -30 25 -73c-5 -36 -4 -77 32 -100c163 26 -81 357 -91 433
c-9 67 2 201 51 252c69 70 202 45 265 -16zM207 395c0 4 -5 5 -9 5c-4 1 -7 3 -9 6c2 1 4 3 4 4c1 2 -1 3 -2 3c-3 1 -6 2 -7 5h-1l-3 9c1 1 1 2 2 2c0 4 -2 6 -3 9c-1 4 -4 6 -5 8s-3 2 -2 5c1 1 1 2 0 3s-5 0 -7 0c-1 0 -1 0 -1 1l-4 3c-1 0 -3 1 -4 2c0 0 -1 0 -1 -1
l7 -5c-1 0 -4 -1 -4 -2c-1 -3 -1 -4 2 -4c4 0 1 -5 3 -7c2 -3 5 -5 6 -8s1 -8 6 -8v-2c0 -5 2 -10 3 -15c2 -4 3 -10 8 -12h3v-1c1 -2 1 -4 1 -6c1 -3 3 -6 5 -8s4 -3 5 -6c2 -3 1 -6 1 -10c0 -6 2 -10 4 -16s5 -12 10 -17c0 -1 4 1 6 3v-1c0 -1 0 -1 1 -1l4 -8
c1 -2 5 -3 4 -6v-4c-1 -4 -1 -8 0 -12c1 -3 3 -7 8 -8c1 -1 3 0 4 0c5 -1 1 -9 0 -12c-1 -6 1 -12 9 -13c1 -1 2 -1 4 0c-1 0 -1 -1 -1 -1v-7c-1 2 -3 4 -5 6c-1 1 -7 -2 -7 -3c-1 -4 1 -7 1 -10l2 -13c0 -3 1 -6 2 -10c1 -3 2 -6 4 -9l6 -4v-17c0 -4 -1 -8 -3 -12
c-1 -3 -3 -7 1 -8c2 -1 8 0 12 1v-2c-1 -2 -1 -4 -1 -6s1 -4 2 -7c1 -2 2 -4 4 -6c0 -1 4 -1 5 0c1 5 2 10 1 14c-1 2 0 5 0 7s-2 4 -4 5c5 6 5 12 5 17c1 4 1 8 0 12c-2 4 -6 5 -11 8v1c0 2 0 4 1 6v6c0 4 0 8 -1 11c-1 4 -3 7 -5 11c-2 3 -3 7 -6 10h-2c2 0 4 2 4 3
c1 4 -3 6 -4 8c-2 3 -2 6 -3 8c0 3 -1 8 -6 8c1 1 2 1 2 2c1 5 -5 8 -6 13s1 12 0 17c-1 4 -6 5 -9 7c0 0 0 1 -1 1c-1 5 0 10 0 15s-1 10 -6 12c-1 1 -6 -2 -7 -3c-1 -5 2 -9 1 -13v-7l-5 12c-2 6 -5 12 -3 20c1 3 0 6 0 8c-1 1 -1 1 -1 2c-1 1 -1 1 -1 2l-3 3
c-2 1 -4 2 -5 4c0 -1 5 2 5 3zM236 268c1 0 5 1 5 2c0 2 0 4 -1 6c-1 3 -4 5 -3 8c2 6 2 8 -6 9c-1 0 -4 -1 -3 -2c4 -1 6 -2 4 -6c-1 -2 -3 -4 -3 -6s1 -3 2 -4c3 -2 3 -4 5 -7zM152 465c1 0 5 1 4 2c0 1 -1 1 -1 2c-1 0 -1 1 -2 1l-3 4c-1 0 -3 -1 -3 -2s1 -3 2 -4
c0 0 1 -1 1 -2c1 0 1 0 2 -1zM224 302c1 0 2 0 2 1c-2 3 -3 7 -6 10c0 1 -2 0 -2 -1c3 -3 5 -7 6 -10zM197 395c2 0 4 -1 5 -3c-1 0 -2 1 -3 2c-1 0 -1 1 -2 1zM278 160c-1 0 -1 1 -2 1c0 -1 1 -1 2 -1z" />
    <glyph glyph-name="T" unicode="T" 
d="M416 813c47 -68 -35 -68 -77 -69c-52 -2 -76 5 -81 -48c-6 -59 -1 -122 0 -181c1 -118 10 -235 13 -353c1 -44 29 -134 -14 -155c-31 -15 -81 8 -93 40c-14 35 6 108 4 147c-2 49 -1 98 -1 148c-1 64 1 127 -1 191c-1 52 10 119 -3 169c2 -13 -10 8 -3 6
c-45 24 -121 -30 -166 10c-21 18 -22 61 -7 81c25 36 82 -7 122 -3c25 3 48 11 70 20c43 18 51 9 95 12c46 3 105 39 142 -15zM223 279c0 4 3 11 -1 15l-2 2c0 2 1 5 2 7c0 3 0 6 -2 9c-1 2 -2 5 -2 8s2 6 4 9c2 6 1 12 1 17c1 7 1 14 -2 20c-1 2 -5 2 -7 1c1 1 1 1 0 1
c0 3 0 6 -1 9c0 2 -4 6 -2 8c0 1 1 2 2 3c2 5 4 8 4 12s-1 9 -5 12h-4c-4 3 3 9 4 12c3 6 3 12 -4 16c-2 1 -9 1 -9 -1c-2 -3 1 -6 2 -9c0 -3 0 -6 -1 -9c0 -2 -1 -7 4 -9c-2 0 -3 -1 -3 -1c-2 -5 2 -10 2 -15c-1 -5 -6 -11 -6 -17c-1 -3 3 -6 5 -9c0 -1 1 -1 1 -1v-1
c-2 -9 -11 -19 -4 -28c0 -1 6 0 7 1c3 4 2 8 4 13l3 6v-13c-1 -7 0 -14 -5 -21c-3 -5 -3 -10 -1 -15l3 -6c-1 1 -5 0 -6 -1c-1 -3 2 -5 5 -8c4 -2 5 -6 5 -9c-2 0 -4 -1 -5 -2c-2 -1 0 -3 1 -4c1 -2 4 -5 3 -7c0 -1 1 -1 1 -1c0 -3 -1 -7 -2 -10c-1 0 -2 -1 -3 -1
c-2 -3 -1 -6 -2 -9c-1 -4 1 -7 1 -11c0 -2 1 -3 -1 -5c-1 -1 -1 -2 -1 -3c0 -2 4 -2 7 -3v-2c0 -3 3 -6 5 -9h1l-4 9c1 -1 4 0 5 0c2 2 2 3 0 5c-4 2 1 5 0 8s-2 7 -1 11c0 3 3 7 -1 10h-1c1 0 1 1 1 1c3 5 4 10 5 15zM224 523c2 2 4 6 1 8s-9 1 -13 0c0 1 0 2 1 2
c0 3 1 5 2 7c0 5 -3 10 -5 15h-6c-1 -5 -2 -10 -2 -15c1 -2 0 -4 0 -7c-1 -2 1 -4 3 -6c-6 -4 -7 -11 -8 -15c-2 -4 -2 -8 -2 -12s4 -7 8 -11v-1c-2 -8 -5 -15 -5 -23c0 -4 1 -8 1 -11c1 -4 1 -8 3 -12c0 -1 2 -1 3 0l2 7c0 -3 1 -6 3 -8c1 -1 7 -1 8 1l2 10c0 5 1 9 2 13
c1 7 1 15 -2 21c-1 3 -3 5 -5 6c1 2 1 3 1 5c2 8 3 17 8 26zM226 423c0 2 0 4 -1 5c-2 3 -2 6 -3 9c0 0 -5 0 -5 -1c-1 -2 -1 -4 -1 -6c0 -3 2 -6 0 -9c-3 -4 -5 -7 3 -10c1 -1 4 0 3 0c-3 2 -4 5 -1 7zM222 204c1 3 -1 6 -2 9c-1 1 -5 1 -5 0c1 -3 2 -6 4 -9c0 -1 3 0 3 0z
M222 387c0 -1 3 0 3 0l-3 13s-1 0 -1 -1c0 -4 0 -8 1 -12zM210 305c0 -1 1 -2 2 -3v-2c-1 2 -2 3 -2 5zM203 557v-1h2s-1 1 -2 1z" />
    <glyph glyph-name="U" unicode="U" horiz-adv-x="415" 
d="M365 728c-5 -62 11 -125 9 -186c-2 -71 -5 -140 -3 -212c2 -63 1 -116 -9 -178c-9 -63 15 -121 -64 -139c-29 -7 -62 -6 -92 -11c-24 -3 -52 -13 -76 -3c-69 28 -80 90 -88 154c-17 136 -9 276 -7 414c0 33 7 68 4 100c-2 26 -14 49 -17 74c-3 28 -11 39 24 57
c20 11 53 15 75 12s36 -10 50 -27c27 -32 12 -43 6 -80c-13 -70 -10 -148 -13 -219c-3 -65 -41 -433 65 -417c102 15 35 215 48 275c-1 -2 0 6 0 3c10 113 5 229 5 343c1 29 -8 99 19 120c63 49 68 -48 64 -80zM74 471c0 8 1 16 -1 24c-1 1 -5 2 -7 1c1 1 1 2 0 2v11
c0 2 -4 6 -2 8v1c1 1 2 2 2 3c3 5 5 9 6 14c0 4 0 10 -4 13c-1 1 -2 2 -4 2c-4 3 4 10 5 13c4 6 4 14 -2 19c-2 1 -9 2 -10 0c-1 -3 2 -7 2 -11c0 -3 -1 -6 -2 -10c0 -3 -2 -8 3 -11c-2 0 -3 -1 -3 -2c-3 -5 1 -11 0 -16c-1 -7 -6 -13 -7 -20c-1 -4 3 -8 4 -11
c0 -1 1 -1 1 -2c-2 -11 -12 -22 -6 -33c0 -1 6 -1 7 0c4 5 3 10 5 15l3 7c0 -5 0 -10 -1 -15c-1 -8 -1 -16 -6 -24c-4 -6 -4 -12 -1 -18c0 -3 1 -5 2 -7c-1 1 -5 1 -6 0c-1 -4 2 -8 5 -11c4 -3 5 -7 5 -11c-2 0 -4 -1 -5 -2c-2 -1 -1 -3 0 -4c2 -3 4 -7 4 -10
c0 -4 -1 -8 -2 -12c-1 0 -2 -1 -2 -1c-3 -3 -2 -8 -2 -11c-1 -4 0 -8 1 -12c0 -3 1 -4 -1 -7c-1 -1 -1 -2 -1 -3c0 -2 5 -3 7 -4v-2c0 -4 4 -7 5 -11h2c-1 4 -4 7 -5 10c1 0 4 0 5 1c2 2 2 4 0 5c-4 3 1 7 0 10c-1 4 -2 9 -2 13s3 8 -1 12c0 0 0 1 1 1c3 6 3 12 4 18
c1 5 3 12 0 17c-1 1 -2 2 -3 2c1 0 1 1 1 1c-1 3 1 5 2 8c0 3 0 7 -1 10s-2 6 -2 9c0 4 2 8 4 11c2 7 2 14 3 20zM91 677c2 3 4 7 1 10c-2 2 -9 2 -13 1c0 1 1 2 1 3c1 2 2 5 2 7c1 6 -2 12 -4 18c0 1 -4 1 -5 0c-2 -5 -3 -11 -3 -16c1 -3 -1 -6 -1 -9c0 -2 1 -4 3 -7
c-6 -5 -8 -12 -10 -17s-3 -9 -2 -14c0 -5 3 -8 7 -13v-1c-3 -9 -7 -17 -8 -26c0 -5 0 -10 1 -14c0 -5 -1 -9 1 -14c0 -1 2 -1 3 0l3 8c0 -3 0 -7 2 -10c1 -1 7 -1 8 0c2 4 2 8 3 12l3 15c1 8 3 17 0 25c0 3 -2 5 -4 7c1 2 1 4 2 5c2 10 4 20 10 30zM348 678c0 1 -1 2 0 3
c1 0 1 1 1 1c0 1 -2 1 -3 2l-3 4h-1l3 -4c-1 1 -3 0 -3 0c-1 -1 -1 -1 0 -2c2 -1 0 -2 0 -4c0 -1 1 -3 0 -4c0 -2 -1 -3 1 -5h-1c-1 -2 -2 -4 -2 -6c-1 -2 -2 -5 -1 -6c0 -1 1 -1 1 -2s-1 -1 -1 -2v-4c0 -1 1 -3 1 -4s-2 -2 -3 -3c-1 -3 -1 -5 -1 -7c-1 -3 -2 -6 -1 -9
c1 -1 3 -1 4 -1c0 -2 -1 -3 0 -4c0 -1 1 -3 0 -3c0 -1 -1 -1 -1 -2c-1 -1 -3 -3 -3 -5c0 -1 0 -3 2 -5h2c2 -1 -2 -4 -3 -5c-2 -2 -2 -5 1 -7c0 0 1 -1 2 -1c-1 -1 -2 -2 -2 -3c0 2 0 3 -1 4s-4 1 -4 0l-2 -4c0 -2 -1 -4 -1 -6c-1 -3 -2 -6 0 -9c0 -1 1 -2 2 -2
c-1 -1 -1 -2 -1 -2c-1 -4 -2 -8 -5 -11c0 -1 -2 -3 0 -4c1 -1 4 -1 6 0v-1c0 -1 -1 -2 -1 -3c0 -2 2 -4 3 -6c0 -1 2 0 2 0c1 2 2 4 1 6c0 1 1 2 1 3s-1 2 -2 3c3 1 3 4 4 6s2 3 2 5c-1 2 -2 3 -4 4v1l4 9c0 2 0 4 -1 5c0 2 1 4 0 5h-1c1 0 2 0 3 1s-1 3 -1 4s1 2 1 4
c0 1 1 3 -1 4h1c2 2 0 4 0 6c1 3 4 5 5 7c0 1 -2 3 -2 4c-1 0 -1 1 -1 1c2 4 7 7 4 12h-4c-2 -2 -1 -4 -2 -6c-1 0 -1 -1 -2 -2c0 2 0 4 1 6c0 2 1 5 3 8c2 2 3 4 2 7l-2 3v1s1 -1 1 -2h2c1 1 0 3 -2 4c-1 1 -2 3 -2 4c1 0 2 0 3 1c1 0 0 1 0 1c-1 1 -2 3 -2 4s1 3 1 4
c1 0 2 0 2 1c1 1 1 2 1 4c1 1 0 3 0 4zM83 561c1 2 0 4 -1 6l-2 10c0 1 -4 1 -5 0c-1 -3 -1 -5 -1 -8c-1 -3 1 -6 -1 -10c-3 -5 -5 -8 2 -12c1 -1 4 -1 3 0c-3 3 -4 5 0 8c2 2 4 4 5 6zM72 305c0 3 -1 7 -3 10c-1 1 -5 1 -5 -1c1 -3 3 -6 4 -10c1 0 4 0 4 1zM329 602v-2
c1 -1 1 -2 1 -3s2 -1 3 -1c0 1 0 2 1 3c0 1 -1 2 0 4c2 1 3 2 -1 4c0 1 -2 1 -1 0s2 -2 0 -3c-1 0 -2 -1 -3 -2zM76 518h2c0 5 -1 10 -1 15c0 1 -1 1 -1 0c-1 -5 -1 -10 0 -15zM340 695c0 -2 1 -3 2 -4h2c0 2 -1 3 -2 4h-2zM333 618h-1v-6h1c0 2 1 4 0 6zM58 424
c0 -1 1 -3 2 -4v-2c-1 2 -2 4 -2 6zM73 719c-1 0 -1 0 -1 -1h2s0 1 -1 1z" />
    <glyph glyph-name="V" unicode="V" horiz-adv-x="433" 
d="M438 785c33 -39 -9 -91 -24 -125c-41 -90 -60 -191 -84 -286c-23 -93 -58 -191 -67 -287c-3 -34 15 -87 -10 -113c-40 -43 -96 9 -123 35c19 25 -1 81 -5 109c-6 44 -10 88 -14 132c-9 80 -21 159 -39 238c-9 42 -19 84 -32 125c-9 27 -9 46 -15 73c-3 17 -40 62 -36 76
c6 22 69 37 85 37c109 0 94 -207 105 -289c7 -51 17 -103 20 -155c3 -41 -8 -127 14 -163c36 11 51 250 58 283c17 77 36 157 60 233c14 42 55 142 107 77zM88 651c-1 -4 0 -7 0 -11c1 -4 1 -9 4 -13c1 0 5 1 7 2v-1c0 -2 1 -4 2 -6c0 -1 4 -3 2 -4c0 0 0 -1 1 -1
c-1 0 -2 -1 -2 -2c-2 -3 -4 -6 -3 -9c0 -2 1 -5 5 -6h4c4 -1 -2 -6 -3 -8c-3 -4 -2 -8 5 -10c1 0 8 1 9 2c1 2 -2 4 -3 6v5c0 2 1 5 -3 6c1 0 2 1 2 1c2 4 -3 6 -3 10c0 3 5 8 5 12c0 2 -4 3 -6 5h-1v1c1 6 9 15 2 19c-1 1 -7 -1 -7 -2c-3 -3 -2 -6 -3 -9c-1 -2 -2 -3 -2 -5
c-1 3 -1 6 -1 9c-1 4 -2 9 2 14c3 5 2 8 -1 11l-5 4l-1 1c2 0 3 -1 3 -2s5 1 6 1c1 3 -3 4 -6 5c-4 0 -6 2 -6 4l5 3c2 1 0 2 -1 2c-2 1 -5 2 -5 4c0 1 0 1 -1 0c0 3 1 5 1 7c1 1 2 1 2 2c3 2 1 4 1 6c1 3 -1 5 -2 7c-1 1 -1 2 0 4c1 1 1 1 1 2c-1 1 -5 0 -7 0c0 0 0 1 -1 1
c0 2 -4 3 -6 4c0 1 -1 0 -1 0c1 -2 4 -2 5 -4c-1 0 -4 -1 -4 -2c-2 -2 -2 -3 1 -3c4 0 -1 -4 0 -5c2 -2 3 -4 3 -7c0 -2 -2 -5 2 -6h1l-1 -1c-2 -4 -2 -8 -2 -11s-2 -7 2 -9c1 0 2 -1 3 -1h-1c1 -1 0 -3 0 -5s0 -4 2 -5l3 -5c0 -2 -2 -4 -3 -7zM124 537c1 3 2 5 1 8
c0 2 -4 4 -8 6c1 6 5 11 4 16c0 3 -1 5 -2 7c-1 3 -1 6 -3 8c0 0 -3 0 -3 -1c-1 -1 -1 -3 -2 -5c0 2 -1 4 -4 5c-1 1 -6 -1 -7 -1c-1 -3 -1 -5 -1 -8l-2 -8c0 -5 0 -10 3 -14l5 -3c-1 -1 -1 -2 -1 -3c-2 -6 -2 -11 -7 -17c-2 -2 -4 -5 0 -6c2 -1 9 0 12 1v-1
c-1 -1 -2 -3 -2 -4c0 -3 3 -7 6 -9c0 -1 4 0 5 0c1 3 2 7 1 10c0 1 1 3 1 4c0 2 -2 3 -3 4c5 3 6 8 7 11zM92 587c2 -1 2 -3 4 -5c0 0 4 0 4 1c1 2 1 3 1 4c0 2 -2 4 0 6c2 3 4 5 -4 6c-1 0 -4 0 -3 -1c3 -1 4 -2 2 -4l-5 -4c0 -1 0 -2 1 -3zM75 726c1 0 5 1 5 2
c-1 2 -4 3 -5 4s-4 -1 -3 -1h-1c0 -2 2 -4 4 -5zM92 614h-2l3 -8h2c-1 3 -1 6 -3 8z" />
    <glyph glyph-name="W" unicode="W" horiz-adv-x="628" 
d="M642 787c22 -19 -6 -65 -12 -90c-23 -99 -27 -203 -40 -304c-11 -88 -31 -175 -35 -263c-1 -29 9 -47 -6 -69c-8 -14 -44 -28 -60 -30c-77 -7 -95 104 -109 157c-19 73 -14 183 -53 248c1 -4 -6 -7 -4 -4c-48 -56 -61 -171 -77 -239c-12 -54 -8 -193 -98 -174
c-106 23 -81 310 -91 389c-11 88 -33 175 -48 261c-6 32 -19 101 5 117c30 19 51 -7 67 -28c44 -55 47 -161 53 -230c5 -46 16 -90 21 -136c4 -40 -4 -107 19 -141c38 4 72 221 84 260c16 54 30 187 110 182c75 -5 68 -135 75 -191c6 -55 -5 -235 47 -266
c71 151 45 341 81 501c8 36 -25 26 21 47c10 5 39 12 50 3zM415 220c0 -2 3 -4 5 -6h2c-1 2 -4 4 -5 6c1 0 4 1 4 1c2 2 3 3 0 4c-4 1 1 4 0 6s-2 5 -2 8c0 2 2 6 -2 7l1 1c2 4 3 9 3 12c0 4 2 9 -2 11c0 1 -1 1 -2 1v1c-1 2 1 3 1 5c0 3 0 5 -2 7c-1 2 -2 3 -2 5
c-1 3 1 5 2 8c2 5 1 9 1 13c-1 5 -1 11 -4 15c-1 1 -5 0 -7 -1v1c1 0 1 1 0 1l-2 6c0 2 -5 3 -3 5v1c0 1 1 2 1 2c2 4 4 7 4 10c-1 3 -2 6 -6 8h-4c-5 1 2 7 3 10c2 4 1 9 -6 11c-1 0 -2 0 -4 -1c1 0 1 1 1 1c1 3 1 4 1 6c1 -2 2 -4 5 -5c1 -1 6 1 7 2c1 2 0 5 0 8s1 7 1 10
c0 6 0 11 -4 16l-5 3v4c1 7 1 13 5 21c1 2 2 6 -1 7c-3 0 -9 -1 -12 -3v2c0 2 1 3 1 5c0 4 -4 7 -7 10c-1 0 -5 0 -5 -1c-1 -4 -2 -8 0 -11v-6c0 -1 2 -2 4 -4c-5 -4 -5 -9 -6 -13c-1 -3 -1 -6 0 -9s5 -4 9 -6v-1c-1 -6 -3 -13 -2 -18c0 -3 1 -6 2 -9c2 -3 1 -6 4 -8v-1
c-1 0 -3 -1 -3 -2c-1 -2 3 -4 3 -6c1 -2 1 -4 1 -7c-1 -2 -1 -6 4 -6c-2 -1 -3 -1 -3 -2c-2 -4 3 -7 3 -10c0 -4 -4 -10 -4 -14c-1 -3 4 -4 6 -6c0 0 0 -1 1 -1c-1 -8 -9 -16 -2 -22c0 -1 6 1 7 2c3 3 1 6 3 10c0 2 1 3 2 5c0 -3 1 -7 1 -10c0 -5 1 -10 -3 -16
c-3 -5 -3 -8 1 -12l4 -6c1 0 1 -1 1 -1c-1 1 -3 2 -3 3s-5 0 -5 -1c-1 -3 2 -4 6 -6c3 -1 5 -4 5 -6c-2 -1 -4 -1 -5 -2c-2 -1 0 -2 1 -3c2 -1 4 -3 4 -5c0 -1 0 -1 1 -1c0 -2 -1 -5 -2 -7c-1 -1 -2 -1 -2 -1c-2 -3 -1 -5 -2 -8c0 -3 1 -5 2 -7c0 -2 1 -3 -1 -5
c0 -1 -1 -1 0 -2c0 -1 4 -1 6 -2c0 0 1 0 1 -1zM407 378c0 1 -4 0 -4 -1c-1 -1 -1 -3 -1 -5s3 -3 1 -6c-2 -4 -4 -6 4 -8c1 0 4 1 3 1c-3 2 -4 3 -2 5s4 4 4 5c1 2 0 3 -1 4c-2 1 -2 4 -4 5zM426 203c0 2 -2 4 -3 6c-1 1 -5 0 -5 -1l4 -6c1 -1 4 0 4 1zM415 341
c-2 3 -3 6 -4 9c0 1 -1 0 -1 0c0 -3 1 -6 2 -9c0 -1 3 0 3 0zM374 465h3c-1 0 -1 1 -3 0zM325 435c0 0 0 1 1 1z" />
    <glyph glyph-name="X" unicode="X" horiz-adv-x="466" 
d="M384 128c13 -39 41 -69 54 -103c26 -69 -63 -86 -105 -45c-36 35 -79 277 -131 265c-27 -7 -55 -156 -61 -184c-15 -61 -42 -99 -112 -70c-20 43 -18 67 3 110c23 48 36 96 58 143c21 43 74 98 80 143c7 53 -36 130 -53 181c-19 58 -55 99 -82 150c-26 48 9 77 64 68
c62 -11 76 -56 98 -106c10 -22 40 -119 64 -109c26 11 112 300 178 192c24 -39 -33 -115 -49 -149c-26 -54 -58 -108 -79 -164c-42 -114 36 -216 73 -322zM191 519c2 -2 5 -2 8 -3l1 1l-7 2c2 1 4 3 4 3c2 2 1 3 -1 3c-4 0 -1 4 -2 5c-2 2 -4 4 -5 6c-1 3 1 6 -3 6h-1l1 1
c1 5 0 8 0 12c-1 3 0 8 -4 9h-3c-1 2 1 4 0 5c0 2 -1 4 -3 5c-1 2 -3 3 -3 5c-1 2 0 4 1 7c1 4 -1 8 -2 11c-1 5 -2 9 -6 13c-1 0 -5 -2 -7 -3c1 1 1 2 0 1l-3 6c0 1 -5 1 -3 3v3c2 4 3 7 2 10c-1 2 -3 5 -7 5c-1 0 -2 -1 -4 -1c-4 -1 0 7 1 9c2 5 0 8 -8 8
c-1 0 -7 -3 -8 -5c0 -2 3 -3 4 -4c1 -2 2 -4 2 -6s0 -5 5 -4l-2 -2c-1 -4 4 -5 5 -8c0 -4 -3 -10 -2 -13c0 -3 4 -3 7 -4l1 -1c0 -6 -7 -16 1 -19c1 -1 6 2 7 3c2 4 0 6 1 9c0 2 1 4 1 5l3 -8c1 -4 3 -9 0 -15c-2 -5 -1 -8 3 -10c1 -2 2 -3 3 -3l-5 -2c-1 -3 3 -4 7 -4
c3 0 5 -2 6 -4l-4 -3c-2 -2 0 -2 1 -2c3 -1 5 -2 5 -4h2v-7l-2 -2c-1 -3 1 -5 1 -7c0 -3 3 -4 4 -6s2 -2 1 -4c-1 -1 -1 -2 0 -3s5 1 7 2v-1zM122 662c1 -3 3 -5 4 -7l5 -6c1 0 3 1 3 2v5c1 -2 3 -3 5 -3c2 -1 7 2 7 3c1 3 -1 5 -1 8c-1 3 -2 6 -2 9c-1 5 -3 9 -8 12
c-1 1 -3 1 -5 1c-1 2 -1 3 -1 4c-1 6 -3 11 -1 19c0 3 1 6 -3 6c-3 -1 -8 -4 -11 -7v2c0 1 0 3 -1 4c0 2 -2 3 -4 4c-1 1 -3 1 -5 2c-1 0 -4 -2 -4 -3c0 -3 1 -7 3 -9c1 -1 1 -3 2 -5c0 -1 2 -1 4 -1c-3 -6 -2 -10 -2 -14c0 -3 1 -5 3 -7c1 -2 5 -2 10 -2v-1
c1 -6 0 -12 2 -16zM147 653c-1 -2 0 -4 0 -5c1 -2 3 -3 2 -5c-1 -5 -2 -7 6 -6c1 0 3 2 2 2c-3 0 -4 1 -2 4l3 5c0 1 -1 2 -2 3c-3 1 -3 3 -5 4c-1 0 -4 -2 -4 -2zM208 509c0 2 -3 3 -5 4c-1 0 -4 -3 -4 -3c2 -2 5 -2 7 -3c0 -1 3 2 2 2zM160 631c0 1 -1 0 -1 0
c1 -3 2 -6 4 -8l2 1l-3 4s0 1 -1 1zM172 564c-2 0 -4 1 -4 2c0 -1 1 -1 2 -1s1 -1 2 -1zM98 718h2v1z" />
    <glyph glyph-name="Y" unicode="Y" 
d="M433 742c2 -43 -75 -127 -92 -169c-24 -59 -42 -111 -55 -172c-12 -52 -32 -70 -27 -128c9 -96 7 -191 7 -288c-49 -10 -109 -13 -112 50c0 15 15 44 18 60c8 39 3 58 -3 97c-17 107 4 202 -51 297c-19 33 -36 66 -53 102c-16 34 -82 103 -80 138c3 59 95 -4 111 -28
c29 -40 40 -144 80 -169c40 -24 59 61 75 98c13 28 32 58 41 88c6 16 4 41 18 54c33 31 120 13 123 -30zM230 81c1 2 4 6 0 8c0 1 -1 1 -2 2c0 1 2 3 2 4c0 2 0 4 -1 6c-1 1 -2 3 -2 4c-1 2 2 4 3 6c2 4 1 8 2 11c0 4 0 9 -3 12c0 1 -4 0 -7 0c1 0 1 1 0 1v5c-1 1 -5 3 -3 5
l2 2c2 3 4 5 4 8c0 2 0 5 -5 6h-4c-4 2 3 6 5 8c3 4 2 7 -4 9c-2 1 -9 1 -10 -1s2 -3 2 -5c1 -2 0 -4 0 -5c-1 -2 -2 -5 3 -6c-1 0 -2 -1 -3 -1c-2 -3 2 -6 2 -9s-5 -7 -6 -11c0 -2 4 -4 6 -5v-1c-1 -6 -10 -13 -4 -18c1 -1 7 0 7 1c4 3 2 6 4 8l3 4v-8c0 -4 0 -8 -4 -12
s-4 -7 -1 -10l4 -5s0 -1 1 -1c-2 1 -3 1 -3 2s-5 1 -5 0c-2 -2 1 -3 5 -5c3 -1 4 -3 4 -5c-2 0 -4 -1 -5 -1c-2 -1 0 -2 1 -3s4 -3 3 -4c0 0 0 -1 1 -1l-3 -6h-2c-3 -2 -2 -4 -3 -6s1 -4 1 -6c0 -1 0 -2 -1 -3s-2 -1 -2 -2c1 -1 5 -1 7 -2v-1c0 -2 3 -3 4 -5h2l-4 5h5
c2 1 2 2 0 3c-4 1 1 3 1 5c-1 2 -2 4 -1 6c0 2 3 5 -1 6v1h1c3 3 4 7 4 10zM236 228c2 1 4 3 1 5c-2 1 -9 1 -13 1c1 0 1 1 1 1l3 4c0 3 -2 6 -4 9c-1 0 -3 1 -4 1c-1 1 -1 1 -2 1l1 -1c-2 -3 -4 -6 -4 -9c1 -1 -1 -3 -1 -4s1 -3 3 -4c-6 -2 -7 -7 -9 -9c-2 -3 -3 -5 -3 -8
c1 -2 4 -4 8 -6v-1c-2 -5 -6 -10 -6 -14c0 -3 1 -5 1 -8c1 -2 0 -5 2 -7h3l3 5c0 -2 1 -3 3 -5c1 0 7 0 7 1c2 2 2 4 2 7l3 8c1 4 2 8 -1 12l-5 4c1 0 1 1 2 2c2 5 3 11 9 15zM234 169c1 2 0 3 -1 3c-1 2 -1 4 -2 5s-5 0 -5 0l-2 -4c0 -2 3 -3 1 -6c-3 -3 -5 -4 3 -6
c0 0 4 1 3 1c-3 1 -4 2 -2 4zM227 35c0 2 -1 4 -2 6h-5c0 -2 2 -4 3 -6h4zM231 147h2c-1 3 -2 5 -2 8c0 0 -2 0 -2 -1c0 -2 0 -5 2 -7z" />
    <glyph glyph-name="Z" unicode="Z" horiz-adv-x="422" 
d="M350 95c53 -32 46 -40 2 -77c-11 8 -76 5 -89 3c-40 -6 -77 -34 -116 -44c-32 -8 -62 -9 -86 17c-21 24 -16 36 -18 65c-1 16 -11 22 -9 41c1 13 13 30 17 42c13 44 23 89 36 133c29 91 66 177 95 269c12 39 26 75 41 113c23 56 19 45 -40 53c-24 3 -169 13 -153 60
c17 48 154 0 188 1s61 17 91 22c37 6 70 -17 105 -23c8 -47 -55 -80 -74 -119c-23 -50 -39 -104 -59 -155c-39 -99 -70 -202 -104 -304c-6 -17 -38 -89 -28 -108c17 -30 79 -3 103 6c47 17 51 32 98 5zM161 334c-1 -1 -2 -1 -2 -2c0 -2 3 -4 5 -6v-1c-1 -3 1 -7 1 -10
c0 0 1 -1 1 0c1 3 -1 6 -1 9c1 -1 4 -2 5 -2c3 1 3 2 2 4c-3 4 3 4 3 7c0 4 1 7 2 10c2 3 6 5 3 9v1s1 0 1 1c5 3 7 7 10 11c2 3 6 8 4 13c0 1 -1 2 -1 3l4 5c1 3 2 5 2 8s0 6 1 8c1 3 4 5 6 7c4 4 6 10 8 14c2 6 5 12 5 19c0 1 -5 3 -7 3c1 0 2 1 1 1l2 9c0 1 -2 5 0 7
c1 1 2 2 3 2c4 3 7 6 8 10c1 3 2 7 -1 11c0 1 -2 1 -3 2c-3 4 5 7 8 9c4 4 6 10 1 16c-1 1 -8 3 -9 2c-2 -3 0 -6 -1 -9l-3 -7c-2 -3 -4 -7 0 -10h-3c-4 -3 -2 -9 -3 -13c-3 -5 -9 -8 -12 -13c-1 -3 1 -7 2 -10v-2c-4 -8 -16 -13 -13 -23c0 -1 6 -3 7 -2c5 3 5 7 8 10l5 4
c-2 -4 -3 -8 -5 -11c-3 -6 -5 -12 -11 -17c-6 -3 -7 -7 -6 -13v-6c0 1 -5 2 -5 2c-3 -2 -1 -6 1 -9c3 -4 2 -7 2 -10h-6c-2 0 -1 -2 -1 -4c1 -2 2 -6 1 -7v-1c-1 -3 -3 -6 -5 -8h-3c-3 -2 -3 -5 -5 -7c-2 -3 -2 -7 -3 -10c-1 -2 0 -3 -3 -4zM228 526c0 -3 -2 -7 -2 -11
c1 0 3 -1 3 -1l4 5c0 -3 0 -5 2 -7c0 -2 6 -3 7 -2c2 2 3 6 5 9l6 11c3 6 6 12 5 19c0 2 -1 4 -3 7l3 3c4 8 7 15 15 21c2 2 5 5 3 8c-2 2 -8 4 -12 4c0 1 0 1 1 2s3 3 3 5c2 4 1 10 0 15c-1 1 -5 2 -5 1c-3 -4 -6 -8 -6 -12c0 -2 -2 -4 -3 -6s0 -4 1 -7
c-6 -2 -9 -8 -12 -11l-5 -10c-1 -4 2 -8 5 -12l-1 -1c-4 -6 -10 -12 -12 -19zM243 491c1 1 2 3 1 4c-1 4 0 6 0 9c0 1 -4 2 -5 1l-3 -5c-1 -3 0 -6 -3 -8c-4 -3 -6 -5 0 -10c1 -1 4 -2 3 -1c-2 3 -2 5 1 7zM164 300c1 2 1 5 0 8c0 1 -4 3 -4 2c-1 -3 0 -6 0 -9
c0 -1 3 -2 3 -1h1zM230 459c0 4 1 8 2 12h-1c-2 -4 -3 -7 -3 -11c0 -1 2 -2 2 -1zM188 389c-1 1 -1 2 0 3v-3zM262 617c1 0 1 -1 2 -1c0 1 0 1 -2 1z" />
  </font>
</defs>
</svg>
